<ttFont>
<head>
    <!-- Most of this table will be recalculated by the compiler -->
    <tableVersion value="1.0"/>
    <fontRevision value="1.00700378418"/>
    <checkSumAdjustment value="0xcfae1670"/>
    <magicNumber value="0x5f0f3cf5"/>
    <flags value="00000000 00011001"/>
    <unitsPerEm value="1000"/>
    <created value="Sun Mar 25 09:17:00 2012"/>
    <modified value="Sun Mar 25 06:51:38 2012"/>
    <xMin value="-143"/>
    <yMin value="-237"/>
    <xMax value="994"/>
    <yMax value="1027"/>
    <macStyle value="00000000 00000000"/>
    <lowestRecPPEM value="9"/>
    <fontDirectionHint value="2"/>
    <indexToLocFormat value="0"/>
    <glyphDataFormat value="0"/>
  </head>
    <TTGlyph name=".notdef" xMin="60" yMin="95" xMax="257" yMax="378">
      <contour>
        <pt x="239" y="378" on="1"/>
        <pt x="246" y="378" on="0"/>
        <pt x="257" y="368" on="0"/>
        <pt x="257" y="360" on="1"/>
        <pt x="257" y="355" on="0"/>
        <pt x="254" y="351" on="1"/>
        <pt x="180" y="236" on="1"/>
        <pt x="253" y="122" on="1"/>
        <pt x="256" y="117" on="0"/>
        <pt x="256" y="112" on="1"/>
        <pt x="256" y="105" on="0"/>
        <pt x="246" y="95" on="0"/>
        <pt x="238" y="95" on="1"/>
        <pt x="229" y="95" on="0"/>
        <pt x="224" y="103" on="1"/>
        <pt x="159" y="203" on="1"/>
        <pt x="93" y="103" on="1"/>
        <pt x="87" y="95" on="0"/>
        <pt x="78" y="95" on="1"/>
        <pt x="70" y="95" on="0"/>
        <pt x="60" y="105" on="0"/>
        <pt x="60" y="112" on="1"/>
        <pt x="60" y="117" on="0"/>
        <pt x="63" y="122" on="1"/>
        <pt x="137" y="236" on="1"/>
        <pt x="63" y="351" on="1"/>
        <pt x="60" y="355" on="0"/>
        <pt x="60" y="360" on="1"/>
        <pt x="60" y="368" on="0"/>
        <pt x="70" y="378" on="0"/>
        <pt x="78" y="378" on="1"/>
        <pt x="87" y="378" on="0"/>
        <pt x="93" y="370" on="1"/>
        <pt x="159" y="268" on="1"/>
        <pt x="225" y="370" on="1"/>
        <pt x="230" y="378" on="0"/>
      </contour>
    </TTGlyph>
    <TTGlyph name="A" xMin="25" yMin="0" xMax="496" yMax="737">
      <contour>
        <pt x="43" y="0" on="1"/>
        <pt x="36" y="0" on="0"/>
        <pt x="25" y="8" on="0"/>
        <pt x="25" y="16" on="1"/>
        <pt x="25" y="20" on="0"/>
        <pt x="26" y="22" on="1"/>
        <pt x="243" y="723" on="1"/>
        <pt x="247" y="737" on="0"/>
        <pt x="261" y="737" on="1"/>
        <pt x="275" y="737" on="0"/>
        <pt x="280" y="723" on="1"/>
        <pt x="495" y="22" on="1"/>
        <pt x="495" y="20" on="0"/>
        <pt x="496" y="19" on="0"/>
        <pt x="496" y="17" on="1"/>
        <pt x="496" y="10" on="0"/>
        <pt x="484" y="0" on="0"/>
        <pt x="476" y="0" on="1"/>
        <pt x="464" y="0" on="0"/>
        <pt x="460" y="13" on="1"/>
        <pt x="409" y="177" on="1"/>
        <pt x="111" y="177" on="1"/>
        <pt x="61" y="13" on="1"/>
        <pt x="57" y="0" on="0"/>
      </contour>
      <contour>
        <pt x="398" y="213" on="1"/>
        <pt x="261" y="661" on="1"/>
        <pt x="122" y="213" on="1"/>
      </contour>
    </TTGlyph>
    <TTGlyph name="AE" xMin="79" yMin="0" xMax="652" yMax="731">
      <contour>
        <pt x="398" y="384" on="1"/>
        <pt x="558" y="384" on="1"/>
        <pt x="566" y="384" on="0"/>
        <pt x="575" y="373" on="0"/>
        <pt x="575" y="365" on="1"/>
        <pt x="575" y="359" on="0"/>
        <pt x="567" y="348" on="0"/>
        <pt x="558" y="348" on="1"/>
        <pt x="398" y="348" on="1"/>
        <pt x="398" y="36" on="1"/>
        <pt x="635" y="36" on="1"/>
        <pt x="643" y="36" on="0"/>
        <pt x="652" y="25" on="0"/>
        <pt x="652" y="17" on="1"/>
        <pt x="652" y="11" on="0"/>
        <pt x="644" y="0" on="0"/>
        <pt x="635" y="0" on="1"/>
        <pt x="380" y="0" on="1"/>
        <pt x="373" y="0" on="0"/>
        <pt x="362" y="9" on="0"/>
        <pt x="362" y="18" on="1"/>
        <pt x="362" y="348" on="1"/>
        <pt x="115" y="348" on="1"/>
        <pt x="115" y="23" on="1"/>
        <pt x="115" y="13" on="0"/>
        <pt x="109" y="0" on="0"/>
        <pt x="97" y="0" on="1"/>
        <pt x="87" y="0" on="0"/>
        <pt x="79" y="13" on="0"/>
        <pt x="79" y="23" on="1"/>
        <pt x="79" y="525" on="1"/>
        <pt x="79" y="581" on="0"/>
        <pt x="109" y="660" on="0"/>
        <pt x="162" y="709" on="0"/>
        <pt x="234" y="731" on="0"/>
        <pt x="275" y="731" on="1"/>
        <pt x="635" y="731" on="1"/>
        <pt x="644" y="731" on="0"/>
        <pt x="652" y="720" on="0"/>
        <pt x="652" y="714" on="1"/>
        <pt x="652" y="706" on="0"/>
        <pt x="643" y="695" on="0"/>
        <pt x="635" y="695" on="1"/>
        <pt x="398" y="695" on="1"/>
      </contour>
      <contour>
        <pt x="115" y="384" on="1"/>
        <pt x="362" y="384" on="1"/>
        <pt x="362" y="695" on="1"/>
        <pt x="275" y="695" on="1"/>
        <pt x="200" y="695" on="0"/>
        <pt x="115" y="613" on="0"/>
        <pt x="115" y="525" on="1"/>
      </contour>
    </TTGlyph>
    <TTGlyph name="AEacute" xMin="79" yMin="0" xMax="652" yMax="953">
      <contour>
        <pt x="398" y="384" on="1"/>
        <pt x="558" y="384" on="1"/>
        <pt x="566" y="384" on="0"/>
        <pt x="575" y="373" on="0"/>
        <pt x="575" y="365" on="1"/>
        <pt x="575" y="359" on="0"/>
        <pt x="567" y="348" on="0"/>
        <pt x="558" y="348" on="1"/>
        <pt x="398" y="348" on="1"/>
        <pt x="398" y="36" on="1"/>
        <pt x="635" y="36" on="1"/>
        <pt x="643" y="36" on="0"/>
        <pt x="652" y="25" on="0"/>
        <pt x="652" y="17" on="1"/>
        <pt x="652" y="11" on="0"/>
        <pt x="644" y="0" on="0"/>
        <pt x="635" y="0" on="1"/>
        <pt x="380" y="0" on="1"/>
        <pt x="373" y="0" on="0"/>
        <pt x="362" y="9" on="0"/>
        <pt x="362" y="18" on="1"/>
        <pt x="362" y="348" on="1"/>
        <pt x="115" y="348" on="1"/>
        <pt x="115" y="23" on="1"/>
        <pt x="115" y="13" on="0"/>
        <pt x="109" y="0" on="0"/>
        <pt x="97" y="0" on="1"/>
        <pt x="87" y="0" on="0"/>
        <pt x="79" y="13" on="0"/>
        <pt x="79" y="23" on="1"/>
        <pt x="79" y="525" on="1"/>
        <pt x="79" y="581" on="0"/>
        <pt x="109" y="660" on="0"/>
        <pt x="162" y="709" on="0"/>
        <pt x="234" y="731" on="0"/>
        <pt x="275" y="731" on="1"/>
        <pt x="635" y="731" on="1"/>
        <pt x="644" y="731" on="0"/>
        <pt x="652" y="720" on="0"/>
        <pt x="652" y="714" on="1"/>
        <pt x="652" y="706" on="0"/>
        <pt x="643" y="695" on="0"/>
        <pt x="635" y="695" on="1"/>
        <pt x="398" y="695" on="1"/>
      </contour>
      <contour>
        <pt x="115" y="384" on="1"/>
        <pt x="362" y="384" on="1"/>
        <pt x="362" y="695" on="1"/>
        <pt x="275" y="695" on="1"/>
        <pt x="200" y="695" on="0"/>
        <pt x="115" y="613" on="0"/>
        <pt x="115" y="525" on="1"/>
      </contour>
      <contour>
        <pt x="303" y="863" on="1"/>
        <pt x="298" y="860" on="0"/>
        <pt x="294" y="860" on="1"/>
        <pt x="286" y="860" on="0"/>
        <pt x="275" y="870" on="0"/>
        <pt x="275" y="878" on="1"/>
        <pt x="275" y="887" on="0"/>
        <pt x="283" y="891" on="1"/>
        <pt x="385" y="951" on="1"/>
        <pt x="389" y="953" on="0"/>
        <pt x="392" y="953" on="1"/>
        <pt x="400" y="953" on="0"/>
        <pt x="408" y="942" on="0"/>
        <pt x="408" y="935" on="1"/>
        <pt x="408" y="923" on="0"/>
        <pt x="398" y="917" on="1"/>
      </contour>
    </TTGlyph>
    <TTGlyph name="Aacute" xMin="25" yMin="0" xMax="496" yMax="953">
      <contour>
        <pt x="43" y="0" on="1"/>
        <pt x="36" y="0" on="0"/>
        <pt x="25" y="8" on="0"/>
        <pt x="25" y="16" on="1"/>
        <pt x="25" y="20" on="0"/>
        <pt x="26" y="22" on="1"/>
        <pt x="243" y="723" on="1"/>
        <pt x="247" y="737" on="0"/>
        <pt x="261" y="737" on="1"/>
        <pt x="275" y="737" on="0"/>
        <pt x="280" y="723" on="1"/>
        <pt x="495" y="22" on="1"/>
        <pt x="495" y="20" on="0"/>
        <pt x="496" y="19" on="0"/>
        <pt x="496" y="17" on="1"/>
        <pt x="496" y="10" on="0"/>
        <pt x="484" y="0" on="0"/>
        <pt x="476" y="0" on="1"/>
        <pt x="464" y="0" on="0"/>
        <pt x="460" y="13" on="1"/>
        <pt x="409" y="177" on="1"/>
        <pt x="111" y="177" on="1"/>
        <pt x="61" y="13" on="1"/>
        <pt x="57" y="0" on="0"/>
      </contour>
      <contour>
        <pt x="398" y="213" on="1"/>
        <pt x="261" y="661" on="1"/>
        <pt x="122" y="213" on="1"/>
      </contour>
      <contour>
        <pt x="222" y="863" on="1"/>
        <pt x="217" y="860" on="0"/>
        <pt x="213" y="860" on="1"/>
        <pt x="205" y="860" on="0"/>
        <pt x="194" y="870" on="0"/>
        <pt x="194" y="878" on="1"/>
        <pt x="194" y="887" on="0"/>
        <pt x="202" y="891" on="1"/>
        <pt x="304" y="951" on="1"/>
        <pt x="308" y="953" on="0"/>
        <pt x="311" y="953" on="1"/>
        <pt x="319" y="953" on="0"/>
        <pt x="327" y="942" on="0"/>
        <pt x="327" y="935" on="1"/>
        <pt x="327" y="923" on="0"/>
        <pt x="317" y="917" on="1"/>
      </contour>
    </TTGlyph>
    <TTGlyph name="Abreve" xMin="25" yMin="0" xMax="496" yMax="969">
      <contour>
        <pt x="43" y="0" on="1"/>
        <pt x="36" y="0" on="0"/>
        <pt x="25" y="8" on="0"/>
        <pt x="25" y="16" on="1"/>
        <pt x="25" y="20" on="0"/>
        <pt x="26" y="22" on="1"/>
        <pt x="243" y="723" on="1"/>
        <pt x="247" y="737" on="0"/>
        <pt x="261" y="737" on="1"/>
        <pt x="275" y="737" on="0"/>
        <pt x="280" y="723" on="1"/>
        <pt x="495" y="22" on="1"/>
        <pt x="495" y="20" on="0"/>
        <pt x="496" y="19" on="0"/>
        <pt x="496" y="17" on="1"/>
        <pt x="496" y="10" on="0"/>
        <pt x="484" y="0" on="0"/>
        <pt x="476" y="0" on="1"/>
        <pt x="464" y="0" on="0"/>
        <pt x="460" y="13" on="1"/>
        <pt x="409" y="177" on="1"/>
        <pt x="111" y="177" on="1"/>
        <pt x="61" y="13" on="1"/>
        <pt x="57" y="0" on="0"/>
      </contour>
      <contour>
        <pt x="398" y="213" on="1"/>
        <pt x="261" y="661" on="1"/>
        <pt x="122" y="213" on="1"/>
      </contour>
      <contour>
        <pt x="369" y="969" on="1"/>
        <pt x="369" y="947" on="0"/>
        <pt x="351" y="907" on="0"/>
        <pt x="321" y="877" on="0"/>
        <pt x="281" y="860" on="0"/>
        <pt x="260" y="860" on="1"/>
        <pt x="238" y="860" on="0"/>
        <pt x="199" y="877" on="0"/>
        <pt x="169" y="907" on="0"/>
        <pt x="151" y="947" on="0"/>
        <pt x="151" y="969" on="1"/>
        <pt x="183" y="969" on="1"/>
        <pt x="183" y="934" on="0"/>
        <pt x="228" y="886" on="0"/>
        <pt x="260" y="886" on="1"/>
        <pt x="291" y="886" on="0"/>
        <pt x="336" y="934" on="0"/>
        <pt x="336" y="969" on="1"/>
      </contour>
    </TTGlyph>
    <TTGlyph name="Acircumflex" xMin="25" yMin="0" xMax="496" yMax="953">
      <contour>
        <pt x="43" y="0" on="1"/>
        <pt x="36" y="0" on="0"/>
        <pt x="25" y="8" on="0"/>
        <pt x="25" y="16" on="1"/>
        <pt x="25" y="20" on="0"/>
        <pt x="26" y="22" on="1"/>
        <pt x="243" y="723" on="1"/>
        <pt x="247" y="737" on="0"/>
        <pt x="261" y="737" on="1"/>
        <pt x="275" y="737" on="0"/>
        <pt x="280" y="723" on="1"/>
        <pt x="495" y="22" on="1"/>
        <pt x="495" y="20" on="0"/>
        <pt x="496" y="19" on="0"/>
        <pt x="496" y="17" on="1"/>
        <pt x="496" y="10" on="0"/>
        <pt x="484" y="0" on="0"/>
        <pt x="476" y="0" on="1"/>
        <pt x="464" y="0" on="0"/>
        <pt x="460" y="13" on="1"/>
        <pt x="409" y="177" on="1"/>
        <pt x="111" y="177" on="1"/>
        <pt x="61" y="13" on="1"/>
        <pt x="57" y="0" on="0"/>
      </contour>
      <contour>
        <pt x="398" y="213" on="1"/>
        <pt x="261" y="661" on="1"/>
        <pt x="122" y="213" on="1"/>
      </contour>
      <contour>
        <pt x="156" y="862" on="1"/>
        <pt x="154" y="861" on="0"/>
        <pt x="150" y="859" on="0"/>
        <pt x="148" y="859" on="1"/>
        <pt x="141" y="859" on="0"/>
        <pt x="130" y="870" on="0"/>
        <pt x="130" y="878" on="1"/>
        <pt x="130" y="887" on="0"/>
        <pt x="139" y="892" on="1"/>
        <pt x="243" y="948" on="1"/>
        <pt x="251" y="953" on="0"/>
        <pt x="260" y="953" on="1"/>
        <pt x="269" y="953" on="0"/>
        <pt x="277" y="948" on="1"/>
        <pt x="381" y="893" on="1"/>
        <pt x="390" y="888" on="0"/>
        <pt x="390" y="876" on="1"/>
        <pt x="390" y="869" on="0"/>
        <pt x="380" y="860" on="0"/>
        <pt x="373" y="860" on="1"/>
        <pt x="371" y="860" on="0"/>
        <pt x="366" y="862" on="0"/>
        <pt x="364" y="863" on="1"/>
        <pt x="260" y="918" on="1"/>
      </contour>
    </TTGlyph>
    <TTGlyph name="Adieresis" xMin="25" yMin="0" xMax="496" yMax="918">
      <contour>
        <pt x="43" y="0" on="1"/>
        <pt x="36" y="0" on="0"/>
        <pt x="25" y="8" on="0"/>
        <pt x="25" y="16" on="1"/>
        <pt x="25" y="20" on="0"/>
        <pt x="26" y="22" on="1"/>
        <pt x="243" y="723" on="1"/>
        <pt x="247" y="737" on="0"/>
        <pt x="261" y="737" on="1"/>
        <pt x="275" y="737" on="0"/>
        <pt x="280" y="723" on="1"/>
        <pt x="495" y="22" on="1"/>
        <pt x="495" y="20" on="0"/>
        <pt x="496" y="19" on="0"/>
        <pt x="496" y="17" on="1"/>
        <pt x="496" y="10" on="0"/>
        <pt x="484" y="0" on="0"/>
        <pt x="476" y="0" on="1"/>
        <pt x="464" y="0" on="0"/>
        <pt x="460" y="13" on="1"/>
        <pt x="409" y="177" on="1"/>
        <pt x="111" y="177" on="1"/>
        <pt x="61" y="13" on="1"/>
        <pt x="57" y="0" on="0"/>
      </contour>
      <contour>
        <pt x="398" y="213" on="1"/>
        <pt x="261" y="661" on="1"/>
        <pt x="122" y="213" on="1"/>
      </contour>
      <contour>
        <pt x="205" y="918" on="1"/>
        <pt x="218" y="918" on="0"/>
        <pt x="234" y="902" on="0"/>
        <pt x="234" y="889" on="1"/>
        <pt x="234" y="876" on="0"/>
        <pt x="218" y="859" on="0"/>
        <pt x="205" y="859" on="1"/>
        <pt x="191" y="859" on="0"/>
        <pt x="175" y="876" on="0"/>
        <pt x="175" y="889" on="1"/>
        <pt x="175" y="902" on="0"/>
        <pt x="191" y="918" on="0"/>
      </contour>
      <contour>
        <pt x="316" y="918" on="1"/>
        <pt x="329" y="918" on="0"/>
        <pt x="345" y="902" on="0"/>
        <pt x="345" y="889" on="1"/>
        <pt x="345" y="876" on="0"/>
        <pt x="329" y="859" on="0"/>
        <pt x="316" y="859" on="1"/>
        <pt x="302" y="859" on="0"/>
        <pt x="286" y="876" on="0"/>
        <pt x="286" y="889" on="1"/>
        <pt x="286" y="902" on="0"/>
        <pt x="302" y="918" on="0"/>
      </contour>
    </TTGlyph>
    <TTGlyph name="Agrave" xMin="25" yMin="0" xMax="496" yMax="953">
      <contour>
        <pt x="43" y="0" on="1"/>
        <pt x="36" y="0" on="0"/>
        <pt x="25" y="8" on="0"/>
        <pt x="25" y="16" on="1"/>
        <pt x="25" y="20" on="0"/>
        <pt x="26" y="22" on="1"/>
        <pt x="243" y="723" on="1"/>
        <pt x="247" y="737" on="0"/>
        <pt x="261" y="737" on="1"/>
        <pt x="275" y="737" on="0"/>
        <pt x="280" y="723" on="1"/>
        <pt x="495" y="22" on="1"/>
        <pt x="495" y="20" on="0"/>
        <pt x="496" y="19" on="0"/>
        <pt x="496" y="17" on="1"/>
        <pt x="496" y="10" on="0"/>
        <pt x="484" y="0" on="0"/>
        <pt x="476" y="0" on="1"/>
        <pt x="464" y="0" on="0"/>
        <pt x="460" y="13" on="1"/>
        <pt x="409" y="177" on="1"/>
        <pt x="111" y="177" on="1"/>
        <pt x="61" y="13" on="1"/>
        <pt x="57" y="0" on="0"/>
      </contour>
      <contour>
        <pt x="398" y="213" on="1"/>
        <pt x="261" y="661" on="1"/>
        <pt x="122" y="213" on="1"/>
      </contour>
      <contour>
        <pt x="204" y="917" on="1"/>
        <pt x="194" y="923" on="0"/>
        <pt x="194" y="935" on="1"/>
        <pt x="194" y="942" on="0"/>
        <pt x="202" y="953" on="0"/>
        <pt x="210" y="953" on="1"/>
        <pt x="213" y="953" on="0"/>
        <pt x="217" y="951" on="1"/>
        <pt x="319" y="891" on="1"/>
        <pt x="327" y="887" on="0"/>
        <pt x="327" y="878" on="1"/>
        <pt x="327" y="870" on="0"/>
        <pt x="316" y="860" on="0"/>
        <pt x="308" y="860" on="1"/>
        <pt x="303" y="860" on="0"/>
        <pt x="299" y="863" on="1"/>
      </contour>
    </TTGlyph>
    <TTGlyph name="Amacron" xMin="25" yMin="0" xMax="496" yMax="941">
      <contour>
        <pt x="43" y="0" on="1"/>
        <pt x="36" y="0" on="0"/>
        <pt x="25" y="8" on="0"/>
        <pt x="25" y="16" on="1"/>
        <pt x="25" y="20" on="0"/>
        <pt x="26" y="22" on="1"/>
        <pt x="243" y="723" on="1"/>
        <pt x="247" y="737" on="0"/>
        <pt x="261" y="737" on="1"/>
        <pt x="275" y="737" on="0"/>
        <pt x="280" y="723" on="1"/>
        <pt x="495" y="22" on="1"/>
        <pt x="495" y="20" on="0"/>
        <pt x="496" y="19" on="0"/>
        <pt x="496" y="17" on="1"/>
        <pt x="496" y="10" on="0"/>
        <pt x="484" y="0" on="0"/>
        <pt x="476" y="0" on="1"/>
        <pt x="464" y="0" on="0"/>
        <pt x="460" y="13" on="1"/>
        <pt x="409" y="177" on="1"/>
        <pt x="111" y="177" on="1"/>
        <pt x="61" y="13" on="1"/>
        <pt x="57" y="0" on="0"/>
      </contour>
      <contour>
        <pt x="398" y="213" on="1"/>
        <pt x="261" y="661" on="1"/>
        <pt x="122" y="213" on="1"/>
      </contour>
      <contour>
        <pt x="133" y="923" on="1"/>
        <pt x="133" y="931" on="0"/>
        <pt x="142" y="941" on="0"/>
        <pt x="150" y="941" on="1"/>
        <pt x="370" y="941" on="1"/>
        <pt x="377" y="941" on="0"/>
        <pt x="388" y="931" on="0"/>
        <pt x="388" y="923" on="1"/>
        <pt x="388" y="915" on="0"/>
        <pt x="377" y="906" on="0"/>
        <pt x="370" y="906" on="1"/>
        <pt x="150" y="906" on="1"/>
        <pt x="133" y="906" on="0"/>
      </contour>
    </TTGlyph>
    <TTGlyph name="Aogonek" xMin="25" yMin="-195" xMax="496" yMax="737">
      <contour>
        <pt x="476" y="-169" on="1"/>
        <pt x="484" y="-169" on="0"/>
        <pt x="494" y="-174" on="0"/>
        <pt x="494" y="-182" on="1"/>
        <pt x="494" y="-195" on="0"/>
        <pt x="471" y="-195" on="1"/>
        <pt x="457" y="-195" on="0"/>
        <pt x="427" y="-189" on="0"/>
        <pt x="401" y="-174" on="0"/>
        <pt x="384" y="-148" on="0"/>
        <pt x="384" y="-128" on="1"/>
        <pt x="384" y="-84" on="0"/>
        <pt x="426" y="-14" on="0"/>
        <pt x="458" y="17" on="1"/>
        <pt x="409" y="177" on="1"/>
        <pt x="111" y="177" on="1"/>
        <pt x="61" y="13" on="1"/>
        <pt x="57" y="0" on="0"/>
        <pt x="43" y="0" on="1"/>
        <pt x="36" y="0" on="0"/>
        <pt x="25" y="8" on="0"/>
        <pt x="25" y="16" on="1"/>
        <pt x="25" y="20" on="0"/>
        <pt x="26" y="22" on="1"/>
        <pt x="243" y="723" on="1"/>
        <pt x="247" y="737" on="0"/>
        <pt x="261" y="737" on="1"/>
        <pt x="275" y="737" on="0"/>
        <pt x="280" y="723" on="1"/>
        <pt x="495" y="22" on="1"/>
        <pt x="495" y="20" on="0"/>
        <pt x="496" y="19" on="0"/>
        <pt x="496" y="17" on="1"/>
        <pt x="496" y="7" on="0"/>
        <pt x="485" y="2" on="1"/>
        <pt x="455" y="-27" on="0"/>
        <pt x="413" y="-87" on="0"/>
        <pt x="413" y="-126" on="1"/>
        <pt x="413" y="-151" on="0"/>
        <pt x="447" y="-169" on="0"/>
      </contour>
      <contour>
        <pt x="398" y="213" on="1"/>
        <pt x="261" y="661" on="1"/>
        <pt x="122" y="213" on="1"/>
      </contour>
    </TTGlyph>
    <TTGlyph name="Aring" xMin="25" yMin="0" xMax="496" yMax="1027">
      <contour>
        <pt x="43" y="0" on="1"/>
        <pt x="36" y="0" on="0"/>
        <pt x="25" y="8" on="0"/>
        <pt x="25" y="16" on="1"/>
        <pt x="25" y="20" on="0"/>
        <pt x="26" y="22" on="1"/>
        <pt x="243" y="723" on="1"/>
        <pt x="247" y="737" on="0"/>
        <pt x="261" y="737" on="1"/>
        <pt x="275" y="737" on="0"/>
        <pt x="280" y="723" on="1"/>
        <pt x="495" y="22" on="1"/>
        <pt x="495" y="20" on="0"/>
        <pt x="496" y="19" on="0"/>
        <pt x="496" y="17" on="1"/>
        <pt x="496" y="10" on="0"/>
        <pt x="484" y="0" on="0"/>
        <pt x="476" y="0" on="1"/>
        <pt x="464" y="0" on="0"/>
        <pt x="460" y="13" on="1"/>
        <pt x="409" y="177" on="1"/>
        <pt x="111" y="177" on="1"/>
        <pt x="61" y="13" on="1"/>
        <pt x="57" y="0" on="0"/>
      </contour>
      <contour>
        <pt x="398" y="213" on="1"/>
        <pt x="261" y="661" on="1"/>
        <pt x="122" y="213" on="1"/>
      </contour>
      <contour>
        <pt x="260" y="1027" on="1"/>
        <pt x="278" y="1027" on="0"/>
        <pt x="310" y="1012" on="0"/>
        <pt x="335" y="987" on="0"/>
        <pt x="350" y="954" on="0"/>
        <pt x="350" y="936" on="1"/>
        <pt x="350" y="918" on="0"/>
        <pt x="335" y="884" on="0"/>
        <pt x="310" y="858" on="0"/>
        <pt x="278" y="843" on="0"/>
        <pt x="260" y="843" on="1"/>
        <pt x="241" y="843" on="0"/>
        <pt x="208" y="858" on="0"/>
        <pt x="184" y="884" on="0"/>
        <pt x="170" y="918" on="0"/>
        <pt x="170" y="936" on="1"/>
        <pt x="170" y="954" on="0"/>
        <pt x="184" y="986" on="0"/>
        <pt x="208" y="1012" on="0"/>
        <pt x="241" y="1027" on="0"/>
      </contour>
      <contour>
        <pt x="325" y="936" on="1"/>
        <pt x="325" y="948" on="0"/>
        <pt x="315" y="971" on="0"/>
        <pt x="297" y="989" on="0"/>
        <pt x="273" y="1001" on="0"/>
        <pt x="260" y="1001" on="1"/>
        <pt x="246" y="1001" on="0"/>
        <pt x="222" y="989" on="0"/>
        <pt x="204" y="971" on="0"/>
        <pt x="194" y="948" on="0"/>
        <pt x="194" y="936" on="1"/>
        <pt x="194" y="923" on="0"/>
        <pt x="204" y="898" on="0"/>
        <pt x="222" y="878" on="0"/>
        <pt x="246" y="866" on="0"/>
        <pt x="260" y="866" on="1"/>
        <pt x="273" y="866" on="0"/>
        <pt x="297" y="878" on="0"/>
        <pt x="315" y="898" on="0"/>
        <pt x="325" y="923" on="0"/>
      </contour>
    </TTGlyph>
    <TTGlyph name="Atilde" xMin="25" yMin="0" xMax="496" yMax="949">
      <contour>
        <pt x="43" y="0" on="1"/>
        <pt x="36" y="0" on="0"/>
        <pt x="25" y="8" on="0"/>
        <pt x="25" y="16" on="1"/>
        <pt x="25" y="20" on="0"/>
        <pt x="26" y="22" on="1"/>
        <pt x="243" y="723" on="1"/>
        <pt x="247" y="737" on="0"/>
        <pt x="261" y="737" on="1"/>
        <pt x="275" y="737" on="0"/>
        <pt x="280" y="723" on="1"/>
        <pt x="495" y="22" on="1"/>
        <pt x="495" y="20" on="0"/>
        <pt x="496" y="19" on="0"/>
        <pt x="496" y="17" on="1"/>
        <pt x="496" y="10" on="0"/>
        <pt x="484" y="0" on="0"/>
        <pt x="476" y="0" on="1"/>
        <pt x="464" y="0" on="0"/>
        <pt x="460" y="13" on="1"/>
        <pt x="409" y="177" on="1"/>
        <pt x="111" y="177" on="1"/>
        <pt x="61" y="13" on="1"/>
        <pt x="57" y="0" on="0"/>
      </contour>
      <contour>
        <pt x="398" y="213" on="1"/>
        <pt x="261" y="661" on="1"/>
        <pt x="122" y="213" on="1"/>
      </contour>
      <contour>
        <pt x="329" y="912" on="1"/>
        <pt x="346" y="912" on="0"/>
        <pt x="366" y="922" on="0"/>
        <pt x="379" y="934" on="0"/>
        <pt x="388" y="944" on="0"/>
        <pt x="394" y="944" on="1"/>
        <pt x="399" y="944" on="0"/>
        <pt x="408" y="936" on="0"/>
        <pt x="408" y="929" on="1"/>
        <pt x="408" y="917" on="0"/>
        <pt x="391" y="899" on="0"/>
        <pt x="365" y="885" on="0"/>
        <pt x="336" y="878" on="0"/>
        <pt x="324" y="878" on="1"/>
        <pt x="306" y="878" on="0"/>
        <pt x="277" y="890" on="0"/>
        <pt x="248" y="903" on="0"/>
        <pt x="216" y="915" on="0"/>
        <pt x="195" y="915" on="1"/>
        <pt x="179" y="915" on="0"/>
        <pt x="157" y="904" on="0"/>
        <pt x="142" y="891" on="0"/>
        <pt x="131" y="880" on="0"/>
        <pt x="126" y="880" on="1"/>
        <pt x="113" y="880" on="0"/>
        <pt x="113" y="897" on="1"/>
        <pt x="113" y="907" on="0"/>
        <pt x="131" y="925" on="0"/>
        <pt x="157" y="940" on="0"/>
        <pt x="188" y="949" on="0"/>
        <pt x="202" y="949" on="1"/>
        <pt x="220" y="949" on="0"/>
        <pt x="250" y="937" on="0"/>
        <pt x="279" y="924" on="0"/>
        <pt x="310" y="912" on="0"/>
      </contour>
    </TTGlyph>
    <TTGlyph name="B" xMin="83" yMin="0" xMax="474" yMax="731">
      <contour>
        <pt x="83" y="713" on="1"/>
        <pt x="83" y="722" on="0"/>
        <pt x="94" y="731" on="0"/>
        <pt x="101" y="731" on="1"/>
        <pt x="251" y="731" on="1"/>
        <pt x="294" y="731" on="0"/>
        <pt x="369" y="718" on="0"/>
        <pt x="425" y="682" on="0"/>
        <pt x="456" y="616" on="0"/>
        <pt x="456" y="564" on="1"/>
        <pt x="456" y="499" on="0"/>
        <pt x="409" y="413" on="0"/>
        <pt x="371" y="396" on="1"/>
        <pt x="394" y="386" on="0"/>
        <pt x="432" y="358" on="0"/>
        <pt x="459" y="316" on="0"/>
        <pt x="474" y="259" on="0"/>
        <pt x="474" y="220" on="1"/>
        <pt x="474" y="203" on="1"/>
        <pt x="474" y="147" on="0"/>
        <pt x="444" y="69" on="0"/>
        <pt x="391" y="21" on="0"/>
        <pt x="319" y="0" on="0"/>
        <pt x="278" y="0" on="1"/>
        <pt x="101" y="0" on="1"/>
        <pt x="93" y="0" on="0"/>
        <pt x="83" y="10" on="0"/>
        <pt x="83" y="17" on="1"/>
      </contour>
      <contour>
        <pt x="278" y="36" on="1"/>
        <pt x="353" y="36" on="0"/>
        <pt x="438" y="115" on="0"/>
        <pt x="438" y="203" on="1"/>
        <pt x="438" y="220" on="1"/>
        <pt x="438" y="307" on="0"/>
        <pt x="353" y="378" on="0"/>
        <pt x="278" y="378" on="1"/>
        <pt x="119" y="378" on="1"/>
        <pt x="119" y="36" on="1"/>
      </contour>
      <contour>
        <pt x="119" y="414" on="1"/>
        <pt x="258" y="414" on="1"/>
        <pt x="299" y="414" on="0"/>
        <pt x="360" y="428" on="0"/>
        <pt x="400" y="463" on="0"/>
        <pt x="420" y="520" on="0"/>
        <pt x="420" y="564" on="1"/>
        <pt x="420" y="606" on="0"/>
        <pt x="395" y="657" on="0"/>
        <pt x="351" y="685" on="0"/>
        <pt x="289" y="695" on="0"/>
        <pt x="253" y="695" on="1"/>
        <pt x="119" y="695" on="1"/>
      </contour>
    </TTGlyph>
    <TTGlyph name="C" xMin="76" yMin="-6" xMax="467" yMax="731">
      <contour>
        <pt x="112" y="200" on="1"/>
        <pt x="112" y="112" on="0"/>
        <pt x="196" y="30" on="0"/>
        <pt x="278" y="30" on="1"/>
        <pt x="327" y="30" on="0"/>
        <pt x="385" y="56" on="0"/>
        <pt x="417" y="96" on="0"/>
        <pt x="428" y="141" on="0"/>
        <pt x="431" y="161" on="1"/>
        <pt x="432" y="168" on="0"/>
        <pt x="438" y="179" on="0"/>
        <pt x="449" y="179" on="1"/>
        <pt x="458" y="179" on="0"/>
        <pt x="467" y="167" on="0"/>
        <pt x="467" y="150" on="1"/>
        <pt x="467" y="121" on="0"/>
        <pt x="442" y="65" on="0"/>
        <pt x="393" y="21" on="0"/>
        <pt x="320" y="-6" on="0"/>
        <pt x="272" y="-6" on="1"/>
        <pt x="232" y="-6" on="0"/>
        <pt x="161" y="16" on="0"/>
        <pt x="107" y="65" on="0"/>
        <pt x="76" y="144" on="0"/>
        <pt x="76" y="200" on="1"/>
        <pt x="76" y="525" on="1"/>
        <pt x="76" y="581" on="0"/>
        <pt x="108" y="660" on="0"/>
        <pt x="162" y="709" on="0"/>
        <pt x="234" y="731" on="0"/>
        <pt x="275" y="731" on="1"/>
        <pt x="323" y="731" on="0"/>
        <pt x="395" y="704" on="0"/>
        <pt x="443" y="660" on="0"/>
        <pt x="467" y="603" on="0"/>
        <pt x="467" y="574" on="1"/>
        <pt x="467" y="557" on="0"/>
        <pt x="458" y="546" on="0"/>
        <pt x="449" y="546" on="1"/>
        <pt x="436" y="546" on="0"/>
        <pt x="431" y="559" on="0"/>
        <pt x="431" y="564" on="1"/>
        <pt x="430" y="582" on="0"/>
        <pt x="417" y="627" on="0"/>
        <pt x="383" y="668" on="0"/>
        <pt x="323" y="695" on="0"/>
        <pt x="274" y="695" on="1"/>
        <pt x="195" y="695" on="0"/>
        <pt x="112" y="613" on="0"/>
        <pt x="112" y="525" on="1"/>
      </contour>
    </TTGlyph>
    <TTGlyph name="Cacute" xMin="76" yMin="-6" xMax="467" yMax="953">
      <contour>
        <pt x="112" y="200" on="1"/>
        <pt x="112" y="112" on="0"/>
        <pt x="196" y="30" on="0"/>
        <pt x="278" y="30" on="1"/>
        <pt x="327" y="30" on="0"/>
        <pt x="385" y="56" on="0"/>
        <pt x="417" y="96" on="0"/>
        <pt x="428" y="141" on="0"/>
        <pt x="431" y="161" on="1"/>
        <pt x="432" y="168" on="0"/>
        <pt x="438" y="179" on="0"/>
        <pt x="449" y="179" on="1"/>
        <pt x="458" y="179" on="0"/>
        <pt x="467" y="167" on="0"/>
        <pt x="467" y="150" on="1"/>
        <pt x="467" y="121" on="0"/>
        <pt x="442" y="65" on="0"/>
        <pt x="393" y="21" on="0"/>
        <pt x="320" y="-6" on="0"/>
        <pt x="272" y="-6" on="1"/>
        <pt x="232" y="-6" on="0"/>
        <pt x="161" y="16" on="0"/>
        <pt x="107" y="65" on="0"/>
        <pt x="76" y="144" on="0"/>
        <pt x="76" y="200" on="1"/>
        <pt x="76" y="525" on="1"/>
        <pt x="76" y="581" on="0"/>
        <pt x="108" y="660" on="0"/>
        <pt x="162" y="709" on="0"/>
        <pt x="234" y="731" on="0"/>
        <pt x="275" y="731" on="1"/>
        <pt x="323" y="731" on="0"/>
        <pt x="395" y="704" on="0"/>
        <pt x="443" y="660" on="0"/>
        <pt x="467" y="603" on="0"/>
        <pt x="467" y="574" on="1"/>
        <pt x="467" y="557" on="0"/>
        <pt x="458" y="546" on="0"/>
        <pt x="449" y="546" on="1"/>
        <pt x="436" y="546" on="0"/>
        <pt x="431" y="559" on="0"/>
        <pt x="431" y="564" on="1"/>
        <pt x="430" y="582" on="0"/>
        <pt x="417" y="627" on="0"/>
        <pt x="383" y="668" on="0"/>
        <pt x="323" y="695" on="0"/>
        <pt x="274" y="695" on="1"/>
        <pt x="195" y="695" on="0"/>
        <pt x="112" y="613" on="0"/>
        <pt x="112" y="525" on="1"/>
      </contour>
      <contour>
        <pt x="233" y="863" on="1"/>
        <pt x="228" y="860" on="0"/>
        <pt x="224" y="860" on="1"/>
        <pt x="216" y="860" on="0"/>
        <pt x="205" y="870" on="0"/>
        <pt x="205" y="878" on="1"/>
        <pt x="205" y="887" on="0"/>
        <pt x="213" y="891" on="1"/>
        <pt x="315" y="951" on="1"/>
        <pt x="319" y="953" on="0"/>
        <pt x="322" y="953" on="1"/>
        <pt x="330" y="953" on="0"/>
        <pt x="338" y="942" on="0"/>
        <pt x="338" y="935" on="1"/>
        <pt x="338" y="923" on="0"/>
        <pt x="328" y="917" on="1"/>
      </contour>
    </TTGlyph>
    <TTGlyph name="Ccaron" xMin="76" yMin="-6" xMax="467" yMax="990">
      <contour>
        <pt x="112" y="200" on="1"/>
        <pt x="112" y="112" on="0"/>
        <pt x="196" y="30" on="0"/>
        <pt x="278" y="30" on="1"/>
        <pt x="327" y="30" on="0"/>
        <pt x="385" y="56" on="0"/>
        <pt x="417" y="96" on="0"/>
        <pt x="428" y="141" on="0"/>
        <pt x="431" y="161" on="1"/>
        <pt x="432" y="168" on="0"/>
        <pt x="438" y="179" on="0"/>
        <pt x="449" y="179" on="1"/>
        <pt x="458" y="179" on="0"/>
        <pt x="467" y="167" on="0"/>
        <pt x="467" y="150" on="1"/>
        <pt x="467" y="121" on="0"/>
        <pt x="442" y="65" on="0"/>
        <pt x="393" y="21" on="0"/>
        <pt x="320" y="-6" on="0"/>
        <pt x="272" y="-6" on="1"/>
        <pt x="232" y="-6" on="0"/>
        <pt x="161" y="16" on="0"/>
        <pt x="107" y="65" on="0"/>
        <pt x="76" y="144" on="0"/>
        <pt x="76" y="200" on="1"/>
        <pt x="76" y="525" on="1"/>
        <pt x="76" y="581" on="0"/>
        <pt x="108" y="660" on="0"/>
        <pt x="162" y="709" on="0"/>
        <pt x="234" y="731" on="0"/>
        <pt x="275" y="731" on="1"/>
        <pt x="323" y="731" on="0"/>
        <pt x="395" y="704" on="0"/>
        <pt x="443" y="660" on="0"/>
        <pt x="467" y="603" on="0"/>
        <pt x="467" y="574" on="1"/>
        <pt x="467" y="557" on="0"/>
        <pt x="458" y="546" on="0"/>
        <pt x="449" y="546" on="1"/>
        <pt x="436" y="546" on="0"/>
        <pt x="431" y="559" on="0"/>
        <pt x="431" y="564" on="1"/>
        <pt x="430" y="582" on="0"/>
        <pt x="417" y="627" on="0"/>
        <pt x="383" y="668" on="0"/>
        <pt x="323" y="695" on="0"/>
        <pt x="274" y="695" on="1"/>
        <pt x="195" y="695" on="0"/>
        <pt x="112" y="613" on="0"/>
        <pt x="112" y="525" on="1"/>
      </contour>
      <contour>
        <pt x="291" y="858" on="1"/>
        <pt x="280" y="847" on="0"/>
        <pt x="270" y="847" on="1"/>
        <pt x="258" y="847" on="0"/>
        <pt x="249" y="858" on="1"/>
        <pt x="149" y="959" on="1"/>
        <pt x="141" y="969" on="0"/>
        <pt x="141" y="975" on="1"/>
        <pt x="141" y="980" on="0"/>
        <pt x="149" y="990" on="0"/>
        <pt x="156" y="990" on="1"/>
        <pt x="165" y="990" on="0"/>
        <pt x="172" y="982" on="1"/>
        <pt x="270" y="879" on="1"/>
        <pt x="368" y="982" on="1"/>
        <pt x="375" y="990" on="0"/>
        <pt x="384" y="990" on="1"/>
        <pt x="391" y="990" on="0"/>
        <pt x="399" y="980" on="0"/>
        <pt x="399" y="975" on="1"/>
        <pt x="399" y="969" on="0"/>
        <pt x="391" y="959" on="1"/>
      </contour>
    </TTGlyph>
    <TTGlyph name="Ccedilla" xMin="76" yMin="-207" xMax="467" yMax="731">
      <contour>
        <pt x="112" y="200" on="1"/>
        <pt x="112" y="112" on="0"/>
        <pt x="196" y="30" on="0"/>
        <pt x="278" y="30" on="1"/>
        <pt x="327" y="30" on="0"/>
        <pt x="385" y="56" on="0"/>
        <pt x="417" y="96" on="0"/>
        <pt x="428" y="141" on="0"/>
        <pt x="431" y="161" on="1"/>
        <pt x="432" y="168" on="0"/>
        <pt x="438" y="179" on="0"/>
        <pt x="449" y="179" on="1"/>
        <pt x="458" y="179" on="0"/>
        <pt x="467" y="167" on="0"/>
        <pt x="467" y="150" on="1"/>
        <pt x="467" y="124" on="0"/>
        <pt x="447" y="73" on="0"/>
        <pt x="406" y="31" on="0"/>
        <pt x="347" y="2" on="0"/>
        <pt x="308" y="-3" on="1"/>
        <pt x="293" y="-65" on="1"/>
        <pt x="344" y="-67" on="0"/>
        <pt x="387" y="-109" on="0"/>
        <pt x="387" y="-135" on="1"/>
        <pt x="387" y="-163" on="0"/>
        <pt x="344" y="-207" on="0"/>
        <pt x="305" y="-207" on="1"/>
        <pt x="296" y="-207" on="0"/>
        <pt x="271" y="-204" on="0"/>
        <pt x="248" y="-198" on="0"/>
        <pt x="231" y="-189" on="0"/>
        <pt x="231" y="-183" on="1"/>
        <pt x="231" y="-178" on="0"/>
        <pt x="238" y="-165" on="0"/>
        <pt x="243" y="-165" on="1"/>
        <pt x="248" y="-165" on="0"/>
        <pt x="274" y="-178" on="0"/>
        <pt x="299" y="-178" on="1"/>
        <pt x="331" y="-178" on="0"/>
        <pt x="354" y="-153" on="0"/>
        <pt x="354" y="-137" on="1"/>
        <pt x="354" y="-114" on="0"/>
        <pt x="316" y="-94" on="0"/>
        <pt x="284" y="-92" on="1"/>
        <pt x="255" y="-90" on="1"/>
        <pt x="276" y="-6" on="1"/>
        <pt x="272" y="-6" on="1"/>
        <pt x="232" y="-6" on="0"/>
        <pt x="161" y="16" on="0"/>
        <pt x="107" y="65" on="0"/>
        <pt x="76" y="144" on="0"/>
        <pt x="76" y="200" on="1"/>
        <pt x="76" y="525" on="1"/>
        <pt x="76" y="581" on="0"/>
        <pt x="108" y="660" on="0"/>
        <pt x="162" y="709" on="0"/>
        <pt x="234" y="731" on="0"/>
        <pt x="275" y="731" on="1"/>
        <pt x="323" y="731" on="0"/>
        <pt x="395" y="704" on="0"/>
        <pt x="443" y="660" on="0"/>
        <pt x="467" y="603" on="0"/>
        <pt x="467" y="574" on="1"/>
        <pt x="467" y="557" on="0"/>
        <pt x="458" y="546" on="0"/>
        <pt x="449" y="546" on="1"/>
        <pt x="436" y="546" on="0"/>
        <pt x="431" y="559" on="0"/>
        <pt x="431" y="564" on="1"/>
        <pt x="430" y="582" on="0"/>
        <pt x="417" y="627" on="0"/>
        <pt x="383" y="668" on="0"/>
        <pt x="323" y="695" on="0"/>
        <pt x="274" y="695" on="1"/>
        <pt x="195" y="695" on="0"/>
        <pt x="112" y="613" on="0"/>
        <pt x="112" y="525" on="1"/>
      </contour>
    </TTGlyph>
    <TTGlyph name="Ccircumflex" xMin="76" yMin="-6" xMax="467" yMax="953">
      <contour>
        <pt x="112" y="200" on="1"/>
        <pt x="112" y="112" on="0"/>
        <pt x="196" y="30" on="0"/>
        <pt x="278" y="30" on="1"/>
        <pt x="327" y="30" on="0"/>
        <pt x="385" y="56" on="0"/>
        <pt x="417" y="96" on="0"/>
        <pt x="428" y="141" on="0"/>
        <pt x="431" y="161" on="1"/>
        <pt x="432" y="168" on="0"/>
        <pt x="438" y="179" on="0"/>
        <pt x="449" y="179" on="1"/>
        <pt x="458" y="179" on="0"/>
        <pt x="467" y="167" on="0"/>
        <pt x="467" y="150" on="1"/>
        <pt x="467" y="121" on="0"/>
        <pt x="442" y="65" on="0"/>
        <pt x="393" y="21" on="0"/>
        <pt x="320" y="-6" on="0"/>
        <pt x="272" y="-6" on="1"/>
        <pt x="232" y="-6" on="0"/>
        <pt x="161" y="16" on="0"/>
        <pt x="107" y="65" on="0"/>
        <pt x="76" y="144" on="0"/>
        <pt x="76" y="200" on="1"/>
        <pt x="76" y="525" on="1"/>
        <pt x="76" y="581" on="0"/>
        <pt x="108" y="660" on="0"/>
        <pt x="162" y="709" on="0"/>
        <pt x="234" y="731" on="0"/>
        <pt x="275" y="731" on="1"/>
        <pt x="323" y="731" on="0"/>
        <pt x="395" y="704" on="0"/>
        <pt x="443" y="660" on="0"/>
        <pt x="467" y="603" on="0"/>
        <pt x="467" y="574" on="1"/>
        <pt x="467" y="557" on="0"/>
        <pt x="458" y="546" on="0"/>
        <pt x="449" y="546" on="1"/>
        <pt x="436" y="546" on="0"/>
        <pt x="431" y="559" on="0"/>
        <pt x="431" y="564" on="1"/>
        <pt x="430" y="582" on="0"/>
        <pt x="417" y="627" on="0"/>
        <pt x="383" y="668" on="0"/>
        <pt x="323" y="695" on="0"/>
        <pt x="274" y="695" on="1"/>
        <pt x="195" y="695" on="0"/>
        <pt x="112" y="613" on="0"/>
        <pt x="112" y="525" on="1"/>
      </contour>
      <contour>
        <pt x="167" y="862" on="1"/>
        <pt x="165" y="861" on="0"/>
        <pt x="161" y="859" on="0"/>
        <pt x="159" y="859" on="1"/>
        <pt x="152" y="859" on="0"/>
        <pt x="141" y="870" on="0"/>
        <pt x="141" y="878" on="1"/>
        <pt x="141" y="887" on="0"/>
        <pt x="150" y="892" on="1"/>
        <pt x="254" y="948" on="1"/>
        <pt x="262" y="953" on="0"/>
        <pt x="271" y="953" on="1"/>
        <pt x="280" y="953" on="0"/>
        <pt x="288" y="948" on="1"/>
        <pt x="392" y="893" on="1"/>
        <pt x="401" y="888" on="0"/>
        <pt x="401" y="876" on="1"/>
        <pt x="401" y="869" on="0"/>
        <pt x="391" y="860" on="0"/>
        <pt x="384" y="860" on="1"/>
        <pt x="382" y="860" on="0"/>
        <pt x="377" y="862" on="0"/>
        <pt x="375" y="863" on="1"/>
        <pt x="271" y="918" on="1"/>
      </contour>
    </TTGlyph>
    <TTGlyph name="Cdotaccent" xMin="76" yMin="-6" xMax="467" yMax="918">
      <contour>
        <pt x="112" y="200" on="1"/>
        <pt x="112" y="112" on="0"/>
        <pt x="196" y="30" on="0"/>
        <pt x="278" y="30" on="1"/>
        <pt x="327" y="30" on="0"/>
        <pt x="385" y="56" on="0"/>
        <pt x="417" y="96" on="0"/>
        <pt x="428" y="141" on="0"/>
        <pt x="431" y="161" on="1"/>
        <pt x="432" y="168" on="0"/>
        <pt x="438" y="179" on="0"/>
        <pt x="449" y="179" on="1"/>
        <pt x="458" y="179" on="0"/>
        <pt x="467" y="167" on="0"/>
        <pt x="467" y="150" on="1"/>
        <pt x="467" y="121" on="0"/>
        <pt x="442" y="65" on="0"/>
        <pt x="393" y="21" on="0"/>
        <pt x="320" y="-6" on="0"/>
        <pt x="272" y="-6" on="1"/>
        <pt x="232" y="-6" on="0"/>
        <pt x="161" y="16" on="0"/>
        <pt x="107" y="65" on="0"/>
        <pt x="76" y="144" on="0"/>
        <pt x="76" y="200" on="1"/>
        <pt x="76" y="525" on="1"/>
        <pt x="76" y="581" on="0"/>
        <pt x="108" y="660" on="0"/>
        <pt x="162" y="709" on="0"/>
        <pt x="234" y="731" on="0"/>
        <pt x="275" y="731" on="1"/>
        <pt x="323" y="731" on="0"/>
        <pt x="395" y="704" on="0"/>
        <pt x="443" y="660" on="0"/>
        <pt x="467" y="603" on="0"/>
        <pt x="467" y="574" on="1"/>
        <pt x="467" y="557" on="0"/>
        <pt x="458" y="546" on="0"/>
        <pt x="449" y="546" on="1"/>
        <pt x="436" y="546" on="0"/>
        <pt x="431" y="559" on="0"/>
        <pt x="431" y="564" on="1"/>
        <pt x="430" y="582" on="0"/>
        <pt x="417" y="627" on="0"/>
        <pt x="383" y="668" on="0"/>
        <pt x="323" y="695" on="0"/>
        <pt x="274" y="695" on="1"/>
        <pt x="195" y="695" on="0"/>
        <pt x="112" y="613" on="0"/>
        <pt x="112" y="525" on="1"/>
      </contour>
      <contour>
        <pt x="272" y="918" on="1"/>
        <pt x="285" y="918" on="0"/>
        <pt x="301" y="902" on="0"/>
        <pt x="301" y="889" on="1"/>
        <pt x="301" y="876" on="0"/>
        <pt x="285" y="859" on="0"/>
        <pt x="272" y="859" on="1"/>
        <pt x="258" y="859" on="0"/>
        <pt x="242" y="876" on="0"/>
        <pt x="242" y="889" on="1"/>
        <pt x="242" y="902" on="0"/>
        <pt x="258" y="918" on="0"/>
      </contour>
    </TTGlyph>
    <TTGlyph name="D" xMin="83" yMin="0" xMax="474" yMax="731">
      <contour>
        <pt x="278" y="731" on="1"/>
        <pt x="319" y="731" on="0"/>
        <pt x="391" y="709" on="0"/>
        <pt x="444" y="660" on="0"/>
        <pt x="474" y="581" on="0"/>
        <pt x="474" y="525" on="1"/>
        <pt x="474" y="206" on="1"/>
        <pt x="474" y="150" on="0"/>
        <pt x="444" y="71" on="0"/>
        <pt x="391" y="22" on="0"/>
        <pt x="319" y="0" on="0"/>
        <pt x="278" y="0" on="1"/>
        <pt x="101" y="0" on="1"/>
        <pt x="93" y="0" on="0"/>
        <pt x="83" y="10" on="0"/>
        <pt x="83" y="17" on="1"/>
        <pt x="83" y="714" on="1"/>
        <pt x="83" y="721" on="0"/>
        <pt x="93" y="731" on="0"/>
        <pt x="101" y="731" on="1"/>
      </contour>
      <contour>
        <pt x="119" y="695" on="1"/>
        <pt x="119" y="36" on="1"/>
        <pt x="278" y="36" on="1"/>
        <pt x="353" y="36" on="0"/>
        <pt x="438" y="118" on="0"/>
        <pt x="438" y="206" on="1"/>
        <pt x="438" y="525" on="1"/>
        <pt x="438" y="613" on="0"/>
        <pt x="353" y="695" on="0"/>
        <pt x="278" y="695" on="1"/>
      </contour>
    </TTGlyph>
    <TTGlyph name="Dcaron" xMin="83" yMin="0" xMax="474" yMax="990">
      <contour>
        <pt x="278" y="731" on="1"/>
        <pt x="319" y="731" on="0"/>
        <pt x="391" y="709" on="0"/>
        <pt x="444" y="660" on="0"/>
        <pt x="474" y="581" on="0"/>
        <pt x="474" y="525" on="1"/>
        <pt x="474" y="206" on="1"/>
        <pt x="474" y="150" on="0"/>
        <pt x="444" y="71" on="0"/>
        <pt x="391" y="22" on="0"/>
        <pt x="319" y="0" on="0"/>
        <pt x="278" y="0" on="1"/>
        <pt x="101" y="0" on="1"/>
        <pt x="93" y="0" on="0"/>
        <pt x="83" y="10" on="0"/>
        <pt x="83" y="17" on="1"/>
        <pt x="83" y="714" on="1"/>
        <pt x="83" y="721" on="0"/>
        <pt x="93" y="731" on="0"/>
        <pt x="101" y="731" on="1"/>
      </contour>
      <contour>
        <pt x="119" y="695" on="1"/>
        <pt x="119" y="36" on="1"/>
        <pt x="278" y="36" on="1"/>
        <pt x="353" y="36" on="0"/>
        <pt x="438" y="118" on="0"/>
        <pt x="438" y="206" on="1"/>
        <pt x="438" y="525" on="1"/>
        <pt x="438" y="613" on="0"/>
        <pt x="353" y="695" on="0"/>
        <pt x="278" y="695" on="1"/>
      </contour>
      <contour>
        <pt x="298" y="858" on="1"/>
        <pt x="287" y="847" on="0"/>
        <pt x="277" y="847" on="1"/>
        <pt x="265" y="847" on="0"/>
        <pt x="256" y="858" on="1"/>
        <pt x="156" y="959" on="1"/>
        <pt x="148" y="969" on="0"/>
        <pt x="148" y="975" on="1"/>
        <pt x="148" y="980" on="0"/>
        <pt x="156" y="990" on="0"/>
        <pt x="163" y="990" on="1"/>
        <pt x="172" y="990" on="0"/>
        <pt x="179" y="982" on="1"/>
        <pt x="277" y="879" on="1"/>
        <pt x="375" y="982" on="1"/>
        <pt x="382" y="990" on="0"/>
        <pt x="391" y="990" on="1"/>
        <pt x="398" y="990" on="0"/>
        <pt x="406" y="980" on="0"/>
        <pt x="406" y="975" on="1"/>
        <pt x="406" y="969" on="0"/>
        <pt x="398" y="959" on="1"/>
      </contour>
    </TTGlyph>
    <TTGlyph name="Dcroat" xMin="3" yMin="0" xMax="484" yMax="731">
      <contour>
        <pt x="288" y="731" on="1"/>
        <pt x="329" y="731" on="0"/>
        <pt x="401" y="709" on="0"/>
        <pt x="454" y="660" on="0"/>
        <pt x="484" y="581" on="0"/>
        <pt x="484" y="525" on="1"/>
        <pt x="484" y="206" on="1"/>
        <pt x="484" y="150" on="0"/>
        <pt x="454" y="71" on="0"/>
        <pt x="401" y="22" on="0"/>
        <pt x="329" y="0" on="0"/>
        <pt x="288" y="0" on="1"/>
        <pt x="111" y="0" on="1"/>
        <pt x="103" y="0" on="0"/>
        <pt x="93" y="10" on="0"/>
        <pt x="93" y="17" on="1"/>
        <pt x="93" y="367" on="1"/>
        <pt x="20" y="367" on="1"/>
        <pt x="3" y="367" on="0"/>
        <pt x="3" y="384" on="1"/>
        <pt x="3" y="392" on="0"/>
        <pt x="12" y="402" on="0"/>
        <pt x="20" y="402" on="1"/>
        <pt x="93" y="402" on="1"/>
        <pt x="93" y="714" on="1"/>
        <pt x="93" y="721" on="0"/>
        <pt x="103" y="731" on="0"/>
        <pt x="111" y="731" on="1"/>
      </contour>
      <contour>
        <pt x="129" y="695" on="1"/>
        <pt x="129" y="402" on="1"/>
        <pt x="260" y="402" on="1"/>
        <pt x="267" y="402" on="0"/>
        <pt x="278" y="392" on="0"/>
        <pt x="278" y="384" on="1"/>
        <pt x="278" y="376" on="0"/>
        <pt x="267" y="367" on="0"/>
        <pt x="260" y="367" on="1"/>
        <pt x="129" y="367" on="1"/>
        <pt x="129" y="36" on="1"/>
        <pt x="288" y="36" on="1"/>
        <pt x="363" y="36" on="0"/>
        <pt x="448" y="118" on="0"/>
        <pt x="448" y="206" on="1"/>
        <pt x="448" y="525" on="1"/>
        <pt x="448" y="613" on="0"/>
        <pt x="363" y="695" on="0"/>
        <pt x="288" y="695" on="1"/>
      </contour>
    </TTGlyph>
    <TTGlyph name="Delta" xMin="25" yMin="0" xMax="456" yMax="737">
      <contour>
        <pt x="456" y="16" on="1"/>
        <pt x="456" y="8" on="0"/>
        <pt x="446" y="0" on="0"/>
        <pt x="439" y="0" on="1"/>
        <pt x="42" y="0" on="1"/>
        <pt x="35" y="0" on="0"/>
        <pt x="25" y="8" on="0"/>
        <pt x="25" y="16" on="1"/>
        <pt x="25" y="19" on="0"/>
        <pt x="26" y="22" on="1"/>
        <pt x="223" y="723" on="1"/>
        <pt x="227" y="737" on="0"/>
        <pt x="241" y="737" on="1"/>
        <pt x="255" y="737" on="0"/>
        <pt x="260" y="723" on="1"/>
        <pt x="455" y="22" on="1"/>
        <pt x="456" y="19" on="0"/>
      </contour>
      <contour>
        <pt x="67" y="36" on="1"/>
        <pt x="413" y="36" on="1"/>
        <pt x="241" y="661" on="1"/>
      </contour>
    </TTGlyph>
    <TTGlyph name="E" xMin="83" yMin="0" xMax="474" yMax="731">
      <contour>
        <pt x="119" y="384" on="1"/>
        <pt x="279" y="384" on="1"/>
        <pt x="287" y="384" on="0"/>
        <pt x="296" y="373" on="0"/>
        <pt x="296" y="365" on="1"/>
        <pt x="296" y="359" on="0"/>
        <pt x="288" y="348" on="0"/>
        <pt x="279" y="348" on="1"/>
        <pt x="119" y="348" on="1"/>
        <pt x="119" y="36" on="1"/>
        <pt x="457" y="36" on="1"/>
        <pt x="465" y="36" on="0"/>
        <pt x="474" y="25" on="0"/>
        <pt x="474" y="17" on="1"/>
        <pt x="474" y="11" on="0"/>
        <pt x="466" y="0" on="0"/>
        <pt x="457" y="0" on="1"/>
        <pt x="101" y="0" on="1"/>
        <pt x="94" y="0" on="0"/>
        <pt x="83" y="9" on="0"/>
        <pt x="83" y="18" on="1"/>
        <pt x="83" y="713" on="1"/>
        <pt x="83" y="722" on="0"/>
        <pt x="94" y="731" on="0"/>
        <pt x="101" y="731" on="1"/>
        <pt x="457" y="731" on="1"/>
        <pt x="466" y="731" on="0"/>
        <pt x="474" y="720" on="0"/>
        <pt x="474" y="714" on="1"/>
        <pt x="474" y="706" on="0"/>
        <pt x="465" y="695" on="0"/>
        <pt x="457" y="695" on="1"/>
        <pt x="119" y="695" on="1"/>
      </contour>
    </TTGlyph>
    <TTGlyph name="Eacute" xMin="83" yMin="0" xMax="474" yMax="953">
      <contour>
        <pt x="119" y="384" on="1"/>
        <pt x="279" y="384" on="1"/>
        <pt x="287" y="384" on="0"/>
        <pt x="296" y="373" on="0"/>
        <pt x="296" y="365" on="1"/>
        <pt x="296" y="359" on="0"/>
        <pt x="288" y="348" on="0"/>
        <pt x="279" y="348" on="1"/>
        <pt x="119" y="348" on="1"/>
        <pt x="119" y="36" on="1"/>
        <pt x="457" y="36" on="1"/>
        <pt x="465" y="36" on="0"/>
        <pt x="474" y="25" on="0"/>
        <pt x="474" y="17" on="1"/>
        <pt x="474" y="11" on="0"/>
        <pt x="466" y="0" on="0"/>
        <pt x="457" y="0" on="1"/>
        <pt x="101" y="0" on="1"/>
        <pt x="94" y="0" on="0"/>
        <pt x="83" y="9" on="0"/>
        <pt x="83" y="18" on="1"/>
        <pt x="83" y="713" on="1"/>
        <pt x="83" y="722" on="0"/>
        <pt x="94" y="731" on="0"/>
        <pt x="101" y="731" on="1"/>
        <pt x="457" y="731" on="1"/>
        <pt x="466" y="731" on="0"/>
        <pt x="474" y="720" on="0"/>
        <pt x="474" y="714" on="1"/>
        <pt x="474" y="706" on="0"/>
        <pt x="465" y="695" on="0"/>
        <pt x="457" y="695" on="1"/>
        <pt x="119" y="695" on="1"/>
      </contour>
      <contour>
        <pt x="240" y="863" on="1"/>
        <pt x="235" y="860" on="0"/>
        <pt x="231" y="860" on="1"/>
        <pt x="223" y="860" on="0"/>
        <pt x="212" y="870" on="0"/>
        <pt x="212" y="878" on="1"/>
        <pt x="212" y="887" on="0"/>
        <pt x="220" y="891" on="1"/>
        <pt x="322" y="951" on="1"/>
        <pt x="326" y="953" on="0"/>
        <pt x="329" y="953" on="1"/>
        <pt x="337" y="953" on="0"/>
        <pt x="345" y="942" on="0"/>
        <pt x="345" y="935" on="1"/>
        <pt x="345" y="923" on="0"/>
        <pt x="335" y="917" on="1"/>
      </contour>
    </TTGlyph>
    <TTGlyph name="Ebreve" xMin="83" yMin="0" xMax="474" yMax="969">
      <contour>
        <pt x="119" y="384" on="1"/>
        <pt x="279" y="384" on="1"/>
        <pt x="287" y="384" on="0"/>
        <pt x="296" y="373" on="0"/>
        <pt x="296" y="365" on="1"/>
        <pt x="296" y="359" on="0"/>
        <pt x="288" y="348" on="0"/>
        <pt x="279" y="348" on="1"/>
        <pt x="119" y="348" on="1"/>
        <pt x="119" y="36" on="1"/>
        <pt x="457" y="36" on="1"/>
        <pt x="465" y="36" on="0"/>
        <pt x="474" y="25" on="0"/>
        <pt x="474" y="17" on="1"/>
        <pt x="474" y="11" on="0"/>
        <pt x="466" y="0" on="0"/>
        <pt x="457" y="0" on="1"/>
        <pt x="101" y="0" on="1"/>
        <pt x="94" y="0" on="0"/>
        <pt x="83" y="9" on="0"/>
        <pt x="83" y="18" on="1"/>
        <pt x="83" y="713" on="1"/>
        <pt x="83" y="722" on="0"/>
        <pt x="94" y="731" on="0"/>
        <pt x="101" y="731" on="1"/>
        <pt x="457" y="731" on="1"/>
        <pt x="466" y="731" on="0"/>
        <pt x="474" y="720" on="0"/>
        <pt x="474" y="714" on="1"/>
        <pt x="474" y="706" on="0"/>
        <pt x="465" y="695" on="0"/>
        <pt x="457" y="695" on="1"/>
        <pt x="119" y="695" on="1"/>
      </contour>
      <contour>
        <pt x="387" y="969" on="1"/>
        <pt x="387" y="947" on="0"/>
        <pt x="369" y="907" on="0"/>
        <pt x="339" y="877" on="0"/>
        <pt x="299" y="860" on="0"/>
        <pt x="278" y="860" on="1"/>
        <pt x="256" y="860" on="0"/>
        <pt x="217" y="877" on="0"/>
        <pt x="187" y="907" on="0"/>
        <pt x="169" y="947" on="0"/>
        <pt x="169" y="969" on="1"/>
        <pt x="201" y="969" on="1"/>
        <pt x="201" y="934" on="0"/>
        <pt x="246" y="886" on="0"/>
        <pt x="278" y="886" on="1"/>
        <pt x="309" y="886" on="0"/>
        <pt x="354" y="934" on="0"/>
        <pt x="354" y="969" on="1"/>
      </contour>
    </TTGlyph>
    <TTGlyph name="Ecaron" xMin="83" yMin="0" xMax="474" yMax="990">
      <contour>
        <pt x="119" y="384" on="1"/>
        <pt x="279" y="384" on="1"/>
        <pt x="287" y="384" on="0"/>
        <pt x="296" y="373" on="0"/>
        <pt x="296" y="365" on="1"/>
        <pt x="296" y="359" on="0"/>
        <pt x="288" y="348" on="0"/>
        <pt x="279" y="348" on="1"/>
        <pt x="119" y="348" on="1"/>
        <pt x="119" y="36" on="1"/>
        <pt x="457" y="36" on="1"/>
        <pt x="465" y="36" on="0"/>
        <pt x="474" y="25" on="0"/>
        <pt x="474" y="17" on="1"/>
        <pt x="474" y="11" on="0"/>
        <pt x="466" y="0" on="0"/>
        <pt x="457" y="0" on="1"/>
        <pt x="101" y="0" on="1"/>
        <pt x="94" y="0" on="0"/>
        <pt x="83" y="9" on="0"/>
        <pt x="83" y="18" on="1"/>
        <pt x="83" y="713" on="1"/>
        <pt x="83" y="722" on="0"/>
        <pt x="94" y="731" on="0"/>
        <pt x="101" y="731" on="1"/>
        <pt x="457" y="731" on="1"/>
        <pt x="466" y="731" on="0"/>
        <pt x="474" y="720" on="0"/>
        <pt x="474" y="714" on="1"/>
        <pt x="474" y="706" on="0"/>
        <pt x="465" y="695" on="0"/>
        <pt x="457" y="695" on="1"/>
        <pt x="119" y="695" on="1"/>
      </contour>
      <contour>
        <pt x="298" y="858" on="1"/>
        <pt x="287" y="847" on="0"/>
        <pt x="277" y="847" on="1"/>
        <pt x="265" y="847" on="0"/>
        <pt x="256" y="858" on="1"/>
        <pt x="156" y="959" on="1"/>
        <pt x="148" y="969" on="0"/>
        <pt x="148" y="975" on="1"/>
        <pt x="148" y="980" on="0"/>
        <pt x="156" y="990" on="0"/>
        <pt x="163" y="990" on="1"/>
        <pt x="172" y="990" on="0"/>
        <pt x="179" y="982" on="1"/>
        <pt x="277" y="879" on="1"/>
        <pt x="375" y="982" on="1"/>
        <pt x="382" y="990" on="0"/>
        <pt x="391" y="990" on="1"/>
        <pt x="398" y="990" on="0"/>
        <pt x="406" y="980" on="0"/>
        <pt x="406" y="975" on="1"/>
        <pt x="406" y="969" on="0"/>
        <pt x="398" y="959" on="1"/>
      </contour>
    </TTGlyph>
    <TTGlyph name="Ecircumflex" xMin="83" yMin="0" xMax="474" yMax="953">
      <contour>
        <pt x="119" y="384" on="1"/>
        <pt x="279" y="384" on="1"/>
        <pt x="287" y="384" on="0"/>
        <pt x="296" y="373" on="0"/>
        <pt x="296" y="365" on="1"/>
        <pt x="296" y="359" on="0"/>
        <pt x="288" y="348" on="0"/>
        <pt x="279" y="348" on="1"/>
        <pt x="119" y="348" on="1"/>
        <pt x="119" y="36" on="1"/>
        <pt x="457" y="36" on="1"/>
        <pt x="465" y="36" on="0"/>
        <pt x="474" y="25" on="0"/>
        <pt x="474" y="17" on="1"/>
        <pt x="474" y="11" on="0"/>
        <pt x="466" y="0" on="0"/>
        <pt x="457" y="0" on="1"/>
        <pt x="101" y="0" on="1"/>
        <pt x="94" y="0" on="0"/>
        <pt x="83" y="9" on="0"/>
        <pt x="83" y="18" on="1"/>
        <pt x="83" y="713" on="1"/>
        <pt x="83" y="722" on="0"/>
        <pt x="94" y="731" on="0"/>
        <pt x="101" y="731" on="1"/>
        <pt x="457" y="731" on="1"/>
        <pt x="466" y="731" on="0"/>
        <pt x="474" y="720" on="0"/>
        <pt x="474" y="714" on="1"/>
        <pt x="474" y="706" on="0"/>
        <pt x="465" y="695" on="0"/>
        <pt x="457" y="695" on="1"/>
        <pt x="119" y="695" on="1"/>
      </contour>
      <contour>
        <pt x="174" y="862" on="1"/>
        <pt x="172" y="861" on="0"/>
        <pt x="168" y="859" on="0"/>
        <pt x="166" y="859" on="1"/>
        <pt x="159" y="859" on="0"/>
        <pt x="148" y="870" on="0"/>
        <pt x="148" y="878" on="1"/>
        <pt x="148" y="887" on="0"/>
        <pt x="157" y="892" on="1"/>
        <pt x="261" y="948" on="1"/>
        <pt x="269" y="953" on="0"/>
        <pt x="278" y="953" on="1"/>
        <pt x="287" y="953" on="0"/>
        <pt x="295" y="948" on="1"/>
        <pt x="399" y="893" on="1"/>
        <pt x="408" y="888" on="0"/>
        <pt x="408" y="876" on="1"/>
        <pt x="408" y="869" on="0"/>
        <pt x="398" y="860" on="0"/>
        <pt x="391" y="860" on="1"/>
        <pt x="389" y="860" on="0"/>
        <pt x="384" y="862" on="0"/>
        <pt x="382" y="863" on="1"/>
        <pt x="278" y="918" on="1"/>
      </contour>
    </TTGlyph>
    <TTGlyph name="Edieresis" xMin="83" yMin="0" xMax="474" yMax="918">
      <contour>
        <pt x="119" y="384" on="1"/>
        <pt x="279" y="384" on="1"/>
        <pt x="287" y="384" on="0"/>
        <pt x="296" y="373" on="0"/>
        <pt x="296" y="365" on="1"/>
        <pt x="296" y="359" on="0"/>
        <pt x="288" y="348" on="0"/>
        <pt x="279" y="348" on="1"/>
        <pt x="119" y="348" on="1"/>
        <pt x="119" y="36" on="1"/>
        <pt x="457" y="36" on="1"/>
        <pt x="465" y="36" on="0"/>
        <pt x="474" y="25" on="0"/>
        <pt x="474" y="17" on="1"/>
        <pt x="474" y="11" on="0"/>
        <pt x="466" y="0" on="0"/>
        <pt x="457" y="0" on="1"/>
        <pt x="101" y="0" on="1"/>
        <pt x="94" y="0" on="0"/>
        <pt x="83" y="9" on="0"/>
        <pt x="83" y="18" on="1"/>
        <pt x="83" y="713" on="1"/>
        <pt x="83" y="722" on="0"/>
        <pt x="94" y="731" on="0"/>
        <pt x="101" y="731" on="1"/>
        <pt x="457" y="731" on="1"/>
        <pt x="466" y="731" on="0"/>
        <pt x="474" y="720" on="0"/>
        <pt x="474" y="714" on="1"/>
        <pt x="474" y="706" on="0"/>
        <pt x="465" y="695" on="0"/>
        <pt x="457" y="695" on="1"/>
        <pt x="119" y="695" on="1"/>
      </contour>
      <contour>
        <pt x="223" y="918" on="1"/>
        <pt x="236" y="918" on="0"/>
        <pt x="252" y="902" on="0"/>
        <pt x="252" y="889" on="1"/>
        <pt x="252" y="876" on="0"/>
        <pt x="236" y="859" on="0"/>
        <pt x="223" y="859" on="1"/>
        <pt x="209" y="859" on="0"/>
        <pt x="193" y="876" on="0"/>
        <pt x="193" y="889" on="1"/>
        <pt x="193" y="902" on="0"/>
        <pt x="209" y="918" on="0"/>
      </contour>
      <contour>
        <pt x="334" y="918" on="1"/>
        <pt x="347" y="918" on="0"/>
        <pt x="363" y="902" on="0"/>
        <pt x="363" y="889" on="1"/>
        <pt x="363" y="876" on="0"/>
        <pt x="347" y="859" on="0"/>
        <pt x="334" y="859" on="1"/>
        <pt x="320" y="859" on="0"/>
        <pt x="304" y="876" on="0"/>
        <pt x="304" y="889" on="1"/>
        <pt x="304" y="902" on="0"/>
        <pt x="320" y="918" on="0"/>
      </contour>
    </TTGlyph>
    <TTGlyph name="Edotaccent" xMin="83" yMin="0" xMax="474" yMax="918">
      <contour>
        <pt x="119" y="384" on="1"/>
        <pt x="279" y="384" on="1"/>
        <pt x="287" y="384" on="0"/>
        <pt x="296" y="373" on="0"/>
        <pt x="296" y="365" on="1"/>
        <pt x="296" y="359" on="0"/>
        <pt x="288" y="348" on="0"/>
        <pt x="279" y="348" on="1"/>
        <pt x="119" y="348" on="1"/>
        <pt x="119" y="36" on="1"/>
        <pt x="457" y="36" on="1"/>
        <pt x="465" y="36" on="0"/>
        <pt x="474" y="25" on="0"/>
        <pt x="474" y="17" on="1"/>
        <pt x="474" y="11" on="0"/>
        <pt x="466" y="0" on="0"/>
        <pt x="457" y="0" on="1"/>
        <pt x="101" y="0" on="1"/>
        <pt x="94" y="0" on="0"/>
        <pt x="83" y="9" on="0"/>
        <pt x="83" y="18" on="1"/>
        <pt x="83" y="713" on="1"/>
        <pt x="83" y="722" on="0"/>
        <pt x="94" y="731" on="0"/>
        <pt x="101" y="731" on="1"/>
        <pt x="457" y="731" on="1"/>
        <pt x="466" y="731" on="0"/>
        <pt x="474" y="720" on="0"/>
        <pt x="474" y="714" on="1"/>
        <pt x="474" y="706" on="0"/>
        <pt x="465" y="695" on="0"/>
        <pt x="457" y="695" on="1"/>
        <pt x="119" y="695" on="1"/>
      </contour>
      <contour>
        <pt x="279" y="918" on="1"/>
        <pt x="292" y="918" on="0"/>
        <pt x="308" y="902" on="0"/>
        <pt x="308" y="889" on="1"/>
        <pt x="308" y="876" on="0"/>
        <pt x="292" y="859" on="0"/>
        <pt x="279" y="859" on="1"/>
        <pt x="265" y="859" on="0"/>
        <pt x="249" y="876" on="0"/>
        <pt x="249" y="889" on="1"/>
        <pt x="249" y="902" on="0"/>
        <pt x="265" y="918" on="0"/>
      </contour>
    </TTGlyph>
    <TTGlyph name="Egrave" xMin="83" yMin="0" xMax="474" yMax="953">
      <contour>
        <pt x="119" y="384" on="1"/>
        <pt x="279" y="384" on="1"/>
        <pt x="287" y="384" on="0"/>
        <pt x="296" y="373" on="0"/>
        <pt x="296" y="365" on="1"/>
        <pt x="296" y="359" on="0"/>
        <pt x="288" y="348" on="0"/>
        <pt x="279" y="348" on="1"/>
        <pt x="119" y="348" on="1"/>
        <pt x="119" y="36" on="1"/>
        <pt x="457" y="36" on="1"/>
        <pt x="465" y="36" on="0"/>
        <pt x="474" y="25" on="0"/>
        <pt x="474" y="17" on="1"/>
        <pt x="474" y="11" on="0"/>
        <pt x="466" y="0" on="0"/>
        <pt x="457" y="0" on="1"/>
        <pt x="101" y="0" on="1"/>
        <pt x="94" y="0" on="0"/>
        <pt x="83" y="9" on="0"/>
        <pt x="83" y="18" on="1"/>
        <pt x="83" y="713" on="1"/>
        <pt x="83" y="722" on="0"/>
        <pt x="94" y="731" on="0"/>
        <pt x="101" y="731" on="1"/>
        <pt x="457" y="731" on="1"/>
        <pt x="466" y="731" on="0"/>
        <pt x="474" y="720" on="0"/>
        <pt x="474" y="714" on="1"/>
        <pt x="474" y="706" on="0"/>
        <pt x="465" y="695" on="0"/>
        <pt x="457" y="695" on="1"/>
        <pt x="119" y="695" on="1"/>
      </contour>
      <contour>
        <pt x="222" y="917" on="1"/>
        <pt x="212" y="923" on="0"/>
        <pt x="212" y="935" on="1"/>
        <pt x="212" y="942" on="0"/>
        <pt x="220" y="953" on="0"/>
        <pt x="228" y="953" on="1"/>
        <pt x="231" y="953" on="0"/>
        <pt x="235" y="951" on="1"/>
        <pt x="337" y="891" on="1"/>
        <pt x="345" y="887" on="0"/>
        <pt x="345" y="878" on="1"/>
        <pt x="345" y="870" on="0"/>
        <pt x="334" y="860" on="0"/>
        <pt x="326" y="860" on="1"/>
        <pt x="321" y="860" on="0"/>
        <pt x="317" y="863" on="1"/>
      </contour>
    </TTGlyph>
    <TTGlyph name="Emacron" xMin="83" yMin="0" xMax="474" yMax="941">
      <contour>
        <pt x="119" y="384" on="1"/>
        <pt x="279" y="384" on="1"/>
        <pt x="287" y="384" on="0"/>
        <pt x="296" y="373" on="0"/>
        <pt x="296" y="365" on="1"/>
        <pt x="296" y="359" on="0"/>
        <pt x="288" y="348" on="0"/>
        <pt x="279" y="348" on="1"/>
        <pt x="119" y="348" on="1"/>
        <pt x="119" y="36" on="1"/>
        <pt x="457" y="36" on="1"/>
        <pt x="465" y="36" on="0"/>
        <pt x="474" y="25" on="0"/>
        <pt x="474" y="17" on="1"/>
        <pt x="474" y="11" on="0"/>
        <pt x="466" y="0" on="0"/>
        <pt x="457" y="0" on="1"/>
        <pt x="101" y="0" on="1"/>
        <pt x="94" y="0" on="0"/>
        <pt x="83" y="9" on="0"/>
        <pt x="83" y="18" on="1"/>
        <pt x="83" y="713" on="1"/>
        <pt x="83" y="722" on="0"/>
        <pt x="94" y="731" on="0"/>
        <pt x="101" y="731" on="1"/>
        <pt x="457" y="731" on="1"/>
        <pt x="466" y="731" on="0"/>
        <pt x="474" y="720" on="0"/>
        <pt x="474" y="714" on="1"/>
        <pt x="474" y="706" on="0"/>
        <pt x="465" y="695" on="0"/>
        <pt x="457" y="695" on="1"/>
        <pt x="119" y="695" on="1"/>
      </contour>
      <contour>
        <pt x="151" y="923" on="1"/>
        <pt x="151" y="931" on="0"/>
        <pt x="160" y="941" on="0"/>
        <pt x="168" y="941" on="1"/>
        <pt x="388" y="941" on="1"/>
        <pt x="395" y="941" on="0"/>
        <pt x="406" y="931" on="0"/>
        <pt x="406" y="923" on="1"/>
        <pt x="406" y="915" on="0"/>
        <pt x="395" y="906" on="0"/>
        <pt x="388" y="906" on="1"/>
        <pt x="168" y="906" on="1"/>
        <pt x="151" y="906" on="0"/>
      </contour>
    </TTGlyph>
    <TTGlyph name="Eng" xMin="83" yMin="-237" xMax="474" yMax="731">
      <contour>
        <pt x="438" y="89" on="1"/>
        <pt x="438" y="714" on="1"/>
        <pt x="438" y="723" on="0"/>
        <pt x="449" y="731" on="0"/>
        <pt x="456" y="731" on="1"/>
        <pt x="463" y="731" on="0"/>
        <pt x="474" y="723" on="0"/>
        <pt x="474" y="714" on="1"/>
        <pt x="474" y="-48" on="1"/>
        <pt x="474" y="-90" on="0"/>
        <pt x="462" y="-159" on="0"/>
        <pt x="433" y="-209" on="0"/>
        <pt x="386" y="-237" on="0"/>
        <pt x="352" y="-237" on="1"/>
        <pt x="344" y="-237" on="0"/>
        <pt x="334" y="-226" on="0"/>
        <pt x="334" y="-219" on="1"/>
        <pt x="334" y="-211" on="0"/>
        <pt x="344" y="-202" on="0"/>
        <pt x="352" y="-202" on="1"/>
        <pt x="381" y="-202" on="0"/>
        <pt x="415" y="-179" on="0"/>
        <pt x="433" y="-138" on="0"/>
        <pt x="439" y="-81" on="0"/>
        <pt x="439" y="-48" on="1"/>
        <pt x="439" y="0" on="1"/>
        <pt x="439" y="5" on="0"/>
        <pt x="434" y="22" on="0"/>
        <pt x="427" y="36" on="1"/>
        <pt x="119" y="643" on="1"/>
        <pt x="119" y="18" on="1"/>
        <pt x="119" y="9" on="0"/>
        <pt x="108" y="0" on="0"/>
        <pt x="101" y="0" on="1"/>
        <pt x="94" y="0" on="0"/>
        <pt x="83" y="9" on="0"/>
        <pt x="83" y="18" on="1"/>
        <pt x="83" y="714" on="1"/>
        <pt x="83" y="724" on="0"/>
        <pt x="93" y="731" on="0"/>
        <pt x="101" y="731" on="1"/>
        <pt x="106" y="731" on="0"/>
        <pt x="115" y="722" on="0"/>
        <pt x="124" y="710" on="0"/>
        <pt x="130" y="698" on="0"/>
        <pt x="132" y="695" on="1"/>
      </contour>
    </TTGlyph>
    <TTGlyph name="Eogonek" xMin="83" yMin="-195" xMax="474" yMax="731">
      <contour>
        <pt x="456" y="-169" on="1"/>
        <pt x="464" y="-169" on="0"/>
        <pt x="474" y="-174" on="0"/>
        <pt x="474" y="-182" on="1"/>
        <pt x="474" y="-195" on="0"/>
        <pt x="451" y="-195" on="1"/>
        <pt x="437" y="-195" on="0"/>
        <pt x="407" y="-189" on="0"/>
        <pt x="381" y="-174" on="0"/>
        <pt x="364" y="-148" on="0"/>
        <pt x="364" y="-128" on="1"/>
        <pt x="364" y="-90" on="0"/>
        <pt x="395" y="-28" on="0"/>
        <pt x="421" y="0" on="1"/>
        <pt x="101" y="0" on="1"/>
        <pt x="94" y="0" on="0"/>
        <pt x="83" y="9" on="0"/>
        <pt x="83" y="18" on="1"/>
        <pt x="83" y="713" on="1"/>
        <pt x="83" y="722" on="0"/>
        <pt x="94" y="731" on="0"/>
        <pt x="101" y="731" on="1"/>
        <pt x="457" y="731" on="1"/>
        <pt x="466" y="731" on="0"/>
        <pt x="474" y="720" on="0"/>
        <pt x="474" y="714" on="1"/>
        <pt x="474" y="706" on="0"/>
        <pt x="465" y="695" on="0"/>
        <pt x="457" y="695" on="1"/>
        <pt x="119" y="695" on="1"/>
        <pt x="119" y="384" on="1"/>
        <pt x="279" y="384" on="1"/>
        <pt x="287" y="384" on="0"/>
        <pt x="296" y="373" on="0"/>
        <pt x="296" y="365" on="1"/>
        <pt x="296" y="359" on="0"/>
        <pt x="288" y="348" on="0"/>
        <pt x="279" y="348" on="1"/>
        <pt x="119" y="348" on="1"/>
        <pt x="119" y="36" on="1"/>
        <pt x="457" y="36" on="1"/>
        <pt x="465" y="36" on="0"/>
        <pt x="474" y="25" on="0"/>
        <pt x="474" y="17" on="1"/>
        <pt x="474" y="12" on="0"/>
        <pt x="469" y="3" on="0"/>
        <pt x="464" y="1" on="1"/>
        <pt x="434" y="-28" on="0"/>
        <pt x="393" y="-87" on="0"/>
        <pt x="393" y="-126" on="1"/>
        <pt x="393" y="-151" on="0"/>
        <pt x="427" y="-169" on="0"/>
      </contour>
    </TTGlyph>
    <TTGlyph name="Eth" xMin="3" yMin="0" xMax="484" yMax="731">
      <contour>
        <pt x="288" y="731" on="1"/>
        <pt x="329" y="731" on="0"/>
        <pt x="401" y="709" on="0"/>
        <pt x="454" y="660" on="0"/>
        <pt x="484" y="581" on="0"/>
        <pt x="484" y="525" on="1"/>
        <pt x="484" y="206" on="1"/>
        <pt x="484" y="150" on="0"/>
        <pt x="454" y="71" on="0"/>
        <pt x="401" y="22" on="0"/>
        <pt x="329" y="0" on="0"/>
        <pt x="288" y="0" on="1"/>
        <pt x="111" y="0" on="1"/>
        <pt x="103" y="0" on="0"/>
        <pt x="93" y="10" on="0"/>
        <pt x="93" y="17" on="1"/>
        <pt x="93" y="367" on="1"/>
        <pt x="20" y="367" on="1"/>
        <pt x="3" y="367" on="0"/>
        <pt x="3" y="384" on="1"/>
        <pt x="3" y="392" on="0"/>
        <pt x="12" y="402" on="0"/>
        <pt x="20" y="402" on="1"/>
        <pt x="93" y="402" on="1"/>
        <pt x="93" y="714" on="1"/>
        <pt x="93" y="721" on="0"/>
        <pt x="103" y="731" on="0"/>
        <pt x="111" y="731" on="1"/>
      </contour>
      <contour>
        <pt x="129" y="695" on="1"/>
        <pt x="129" y="402" on="1"/>
        <pt x="260" y="402" on="1"/>
        <pt x="267" y="402" on="0"/>
        <pt x="278" y="392" on="0"/>
        <pt x="278" y="384" on="1"/>
        <pt x="278" y="376" on="0"/>
        <pt x="267" y="367" on="0"/>
        <pt x="260" y="367" on="1"/>
        <pt x="129" y="367" on="1"/>
        <pt x="129" y="36" on="1"/>
        <pt x="288" y="36" on="1"/>
        <pt x="363" y="36" on="0"/>
        <pt x="448" y="118" on="0"/>
        <pt x="448" y="206" on="1"/>
        <pt x="448" y="525" on="1"/>
        <pt x="448" y="613" on="0"/>
        <pt x="363" y="695" on="0"/>
        <pt x="288" y="695" on="1"/>
      </contour>
    </TTGlyph>
    <TTGlyph name="Euro" xMin="37" yMin="-6" xMax="515" yMax="731">
      <contour>
        <pt x="37" y="424" on="1"/>
        <pt x="37" y="432" on="0"/>
        <pt x="46" y="442" on="0"/>
        <pt x="54" y="442" on="1"/>
        <pt x="124" y="442" on="1"/>
        <pt x="124" y="525" on="1"/>
        <pt x="124" y="581" on="0"/>
        <pt x="154" y="660" on="0"/>
        <pt x="206" y="709" on="0"/>
        <pt x="278" y="731" on="0"/>
        <pt x="319" y="731" on="1"/>
        <pt x="365" y="731" on="0"/>
        <pt x="438" y="705" on="0"/>
        <pt x="488" y="661" on="0"/>
        <pt x="515" y="600" on="0"/>
        <pt x="515" y="566" on="1"/>
        <pt x="515" y="555" on="0"/>
        <pt x="504" y="546" on="0"/>
        <pt x="497" y="546" on="1"/>
        <pt x="490" y="546" on="0"/>
        <pt x="479" y="555" on="0"/>
        <pt x="479" y="564" on="1"/>
        <pt x="479" y="598" on="0"/>
        <pt x="454" y="647" on="0"/>
        <pt x="410" y="679" on="0"/>
        <pt x="352" y="695" on="0"/>
        <pt x="319" y="695" on="1"/>
        <pt x="244" y="695" on="0"/>
        <pt x="160" y="613" on="0"/>
        <pt x="160" y="525" on="1"/>
        <pt x="160" y="442" on="1"/>
        <pt x="364" y="442" on="1"/>
        <pt x="371" y="442" on="0"/>
        <pt x="382" y="432" on="0"/>
        <pt x="382" y="424" on="1"/>
        <pt x="382" y="416" on="0"/>
        <pt x="371" y="407" on="0"/>
        <pt x="364" y="407" on="1"/>
        <pt x="160" y="407" on="1"/>
        <pt x="160" y="299" on="1"/>
        <pt x="364" y="299" on="1"/>
        <pt x="371" y="299" on="0"/>
        <pt x="382" y="289" on="0"/>
        <pt x="382" y="281" on="1"/>
        <pt x="382" y="273" on="0"/>
        <pt x="371" y="264" on="0"/>
        <pt x="364" y="264" on="1"/>
        <pt x="160" y="264" on="1"/>
        <pt x="160" y="200" on="1"/>
        <pt x="160" y="112" on="0"/>
        <pt x="244" y="30" on="0"/>
        <pt x="319" y="30" on="1"/>
        <pt x="352" y="30" on="0"/>
        <pt x="410" y="46" on="0"/>
        <pt x="454" y="78" on="0"/>
        <pt x="479" y="127" on="0"/>
        <pt x="479" y="161" on="1"/>
        <pt x="479" y="170" on="0"/>
        <pt x="490" y="179" on="0"/>
        <pt x="497" y="179" on="1"/>
        <pt x="504" y="179" on="0"/>
        <pt x="515" y="170" on="0"/>
        <pt x="515" y="159" on="1"/>
        <pt x="515" y="124" on="0"/>
        <pt x="488" y="64" on="0"/>
        <pt x="438" y="20" on="0"/>
        <pt x="365" y="-6" on="0"/>
        <pt x="319" y="-6" on="1"/>
        <pt x="278" y="-6" on="0"/>
        <pt x="206" y="16" on="0"/>
        <pt x="154" y="65" on="0"/>
        <pt x="124" y="144" on="0"/>
        <pt x="124" y="200" on="1"/>
        <pt x="124" y="264" on="1"/>
        <pt x="54" y="264" on="1"/>
        <pt x="37" y="264" on="0"/>
        <pt x="37" y="281" on="1"/>
        <pt x="37" y="289" on="0"/>
        <pt x="46" y="299" on="0"/>
        <pt x="54" y="299" on="1"/>
        <pt x="124" y="299" on="1"/>
        <pt x="124" y="407" on="1"/>
        <pt x="54" y="407" on="1"/>
        <pt x="37" y="407" on="0"/>
      </contour>
    </TTGlyph>
    <TTGlyph name="F" xMin="83" yMin="0" xMax="474" yMax="731">
      <contour>
        <pt x="457" y="731" on="1"/>
        <pt x="466" y="731" on="0"/>
        <pt x="474" y="720" on="0"/>
        <pt x="474" y="714" on="1"/>
        <pt x="474" y="706" on="0"/>
        <pt x="465" y="695" on="0"/>
        <pt x="457" y="695" on="1"/>
        <pt x="119" y="695" on="1"/>
        <pt x="119" y="384" on="1"/>
        <pt x="279" y="384" on="1"/>
        <pt x="287" y="384" on="0"/>
        <pt x="296" y="373" on="0"/>
        <pt x="296" y="365" on="1"/>
        <pt x="296" y="359" on="0"/>
        <pt x="288" y="348" on="0"/>
        <pt x="279" y="348" on="1"/>
        <pt x="119" y="348" on="1"/>
        <pt x="119" y="17" on="1"/>
        <pt x="119" y="8" on="0"/>
        <pt x="108" y="0" on="0"/>
        <pt x="101" y="0" on="1"/>
        <pt x="94" y="0" on="0"/>
        <pt x="83" y="8" on="0"/>
        <pt x="83" y="17" on="1"/>
        <pt x="83" y="713" on="1"/>
        <pt x="83" y="722" on="0"/>
        <pt x="94" y="731" on="0"/>
        <pt x="101" y="731" on="1"/>
      </contour>
    </TTGlyph>
    <TTGlyph name="G" xMin="76" yMin="-6" xMax="467" yMax="731">
      <contour>
        <pt x="272" y="348" on="1"/>
        <pt x="264" y="348" on="0"/>
        <pt x="255" y="359" on="0"/>
        <pt x="255" y="366" on="1"/>
        <pt x="255" y="373" on="0"/>
        <pt x="264" y="384" on="0"/>
        <pt x="272" y="384" on="1"/>
        <pt x="450" y="384" on="1"/>
        <pt x="458" y="384" on="0"/>
        <pt x="467" y="373" on="0"/>
        <pt x="467" y="365" on="1"/>
        <pt x="467" y="200" on="1"/>
        <pt x="467" y="144" on="0"/>
        <pt x="437" y="65" on="0"/>
        <pt x="384" y="16" on="0"/>
        <pt x="312" y="-6" on="0"/>
        <pt x="271" y="-6" on="1"/>
        <pt x="230" y="-6" on="0"/>
        <pt x="158" y="16" on="0"/>
        <pt x="106" y="65" on="0"/>
        <pt x="76" y="144" on="0"/>
        <pt x="76" y="200" on="1"/>
        <pt x="76" y="525" on="1"/>
        <pt x="76" y="581" on="0"/>
        <pt x="106" y="660" on="0"/>
        <pt x="158" y="709" on="0"/>
        <pt x="230" y="731" on="0"/>
        <pt x="271" y="731" on="1"/>
        <pt x="317" y="731" on="0"/>
        <pt x="390" y="705" on="0"/>
        <pt x="440" y="661" on="0"/>
        <pt x="467" y="600" on="0"/>
        <pt x="467" y="566" on="1"/>
        <pt x="467" y="555" on="0"/>
        <pt x="456" y="546" on="0"/>
        <pt x="449" y="546" on="1"/>
        <pt x="442" y="546" on="0"/>
        <pt x="432" y="555" on="0"/>
        <pt x="431" y="564" on="1"/>
        <pt x="422" y="632" on="0"/>
        <pt x="337" y="695" on="0"/>
        <pt x="271" y="695" on="1"/>
        <pt x="196" y="695" on="0"/>
        <pt x="112" y="613" on="0"/>
        <pt x="112" y="525" on="1"/>
        <pt x="112" y="200" on="1"/>
        <pt x="112" y="112" on="0"/>
        <pt x="196" y="30" on="0"/>
        <pt x="271" y="30" on="1"/>
        <pt x="346" y="30" on="0"/>
        <pt x="431" y="112" on="0"/>
        <pt x="431" y="200" on="1"/>
        <pt x="431" y="348" on="1"/>
      </contour>
    </TTGlyph>
    <TTGlyph name="Gbreve" xMin="76" yMin="-6" xMax="467" yMax="969">
      <contour>
        <pt x="272" y="348" on="1"/>
        <pt x="264" y="348" on="0"/>
        <pt x="255" y="359" on="0"/>
        <pt x="255" y="366" on="1"/>
        <pt x="255" y="373" on="0"/>
        <pt x="264" y="384" on="0"/>
        <pt x="272" y="384" on="1"/>
        <pt x="450" y="384" on="1"/>
        <pt x="458" y="384" on="0"/>
        <pt x="467" y="373" on="0"/>
        <pt x="467" y="365" on="1"/>
        <pt x="467" y="200" on="1"/>
        <pt x="467" y="144" on="0"/>
        <pt x="437" y="65" on="0"/>
        <pt x="384" y="16" on="0"/>
        <pt x="312" y="-6" on="0"/>
        <pt x="271" y="-6" on="1"/>
        <pt x="230" y="-6" on="0"/>
        <pt x="158" y="16" on="0"/>
        <pt x="106" y="65" on="0"/>
        <pt x="76" y="144" on="0"/>
        <pt x="76" y="200" on="1"/>
        <pt x="76" y="525" on="1"/>
        <pt x="76" y="581" on="0"/>
        <pt x="106" y="660" on="0"/>
        <pt x="158" y="709" on="0"/>
        <pt x="230" y="731" on="0"/>
        <pt x="271" y="731" on="1"/>
        <pt x="317" y="731" on="0"/>
        <pt x="390" y="705" on="0"/>
        <pt x="440" y="661" on="0"/>
        <pt x="467" y="600" on="0"/>
        <pt x="467" y="566" on="1"/>
        <pt x="467" y="555" on="0"/>
        <pt x="456" y="546" on="0"/>
        <pt x="449" y="546" on="1"/>
        <pt x="442" y="546" on="0"/>
        <pt x="432" y="555" on="0"/>
        <pt x="431" y="564" on="1"/>
        <pt x="422" y="632" on="0"/>
        <pt x="337" y="695" on="0"/>
        <pt x="271" y="695" on="1"/>
        <pt x="196" y="695" on="0"/>
        <pt x="112" y="613" on="0"/>
        <pt x="112" y="525" on="1"/>
        <pt x="112" y="200" on="1"/>
        <pt x="112" y="112" on="0"/>
        <pt x="196" y="30" on="0"/>
        <pt x="271" y="30" on="1"/>
        <pt x="346" y="30" on="0"/>
        <pt x="431" y="112" on="0"/>
        <pt x="431" y="200" on="1"/>
        <pt x="431" y="348" on="1"/>
      </contour>
      <contour>
        <pt x="380" y="969" on="1"/>
        <pt x="380" y="947" on="0"/>
        <pt x="362" y="907" on="0"/>
        <pt x="332" y="877" on="0"/>
        <pt x="292" y="860" on="0"/>
        <pt x="271" y="860" on="1"/>
        <pt x="249" y="860" on="0"/>
        <pt x="210" y="877" on="0"/>
        <pt x="180" y="907" on="0"/>
        <pt x="162" y="947" on="0"/>
        <pt x="162" y="969" on="1"/>
        <pt x="194" y="969" on="1"/>
        <pt x="194" y="934" on="0"/>
        <pt x="239" y="886" on="0"/>
        <pt x="271" y="886" on="1"/>
        <pt x="302" y="886" on="0"/>
        <pt x="347" y="934" on="0"/>
        <pt x="347" y="969" on="1"/>
      </contour>
    </TTGlyph>
    <TTGlyph name="Gcircumflex" xMin="76" yMin="-6" xMax="467" yMax="953">
      <contour>
        <pt x="272" y="348" on="1"/>
        <pt x="264" y="348" on="0"/>
        <pt x="255" y="359" on="0"/>
        <pt x="255" y="366" on="1"/>
        <pt x="255" y="373" on="0"/>
        <pt x="264" y="384" on="0"/>
        <pt x="272" y="384" on="1"/>
        <pt x="450" y="384" on="1"/>
        <pt x="458" y="384" on="0"/>
        <pt x="467" y="373" on="0"/>
        <pt x="467" y="365" on="1"/>
        <pt x="467" y="200" on="1"/>
        <pt x="467" y="144" on="0"/>
        <pt x="437" y="65" on="0"/>
        <pt x="384" y="16" on="0"/>
        <pt x="312" y="-6" on="0"/>
        <pt x="271" y="-6" on="1"/>
        <pt x="230" y="-6" on="0"/>
        <pt x="158" y="16" on="0"/>
        <pt x="106" y="65" on="0"/>
        <pt x="76" y="144" on="0"/>
        <pt x="76" y="200" on="1"/>
        <pt x="76" y="525" on="1"/>
        <pt x="76" y="581" on="0"/>
        <pt x="106" y="660" on="0"/>
        <pt x="158" y="709" on="0"/>
        <pt x="230" y="731" on="0"/>
        <pt x="271" y="731" on="1"/>
        <pt x="317" y="731" on="0"/>
        <pt x="390" y="705" on="0"/>
        <pt x="440" y="661" on="0"/>
        <pt x="467" y="600" on="0"/>
        <pt x="467" y="566" on="1"/>
        <pt x="467" y="555" on="0"/>
        <pt x="456" y="546" on="0"/>
        <pt x="449" y="546" on="1"/>
        <pt x="442" y="546" on="0"/>
        <pt x="432" y="555" on="0"/>
        <pt x="431" y="564" on="1"/>
        <pt x="422" y="632" on="0"/>
        <pt x="337" y="695" on="0"/>
        <pt x="271" y="695" on="1"/>
        <pt x="196" y="695" on="0"/>
        <pt x="112" y="613" on="0"/>
        <pt x="112" y="525" on="1"/>
        <pt x="112" y="200" on="1"/>
        <pt x="112" y="112" on="0"/>
        <pt x="196" y="30" on="0"/>
        <pt x="271" y="30" on="1"/>
        <pt x="346" y="30" on="0"/>
        <pt x="431" y="112" on="0"/>
        <pt x="431" y="200" on="1"/>
        <pt x="431" y="348" on="1"/>
      </contour>
      <contour>
        <pt x="167" y="862" on="1"/>
        <pt x="165" y="861" on="0"/>
        <pt x="161" y="859" on="0"/>
        <pt x="159" y="859" on="1"/>
        <pt x="152" y="859" on="0"/>
        <pt x="141" y="870" on="0"/>
        <pt x="141" y="878" on="1"/>
        <pt x="141" y="887" on="0"/>
        <pt x="150" y="892" on="1"/>
        <pt x="254" y="948" on="1"/>
        <pt x="262" y="953" on="0"/>
        <pt x="271" y="953" on="1"/>
        <pt x="280" y="953" on="0"/>
        <pt x="288" y="948" on="1"/>
        <pt x="392" y="893" on="1"/>
        <pt x="401" y="888" on="0"/>
        <pt x="401" y="876" on="1"/>
        <pt x="401" y="869" on="0"/>
        <pt x="391" y="860" on="0"/>
        <pt x="384" y="860" on="1"/>
        <pt x="382" y="860" on="0"/>
        <pt x="377" y="862" on="0"/>
        <pt x="375" y="863" on="1"/>
        <pt x="271" y="918" on="1"/>
      </contour>
    </TTGlyph>
    <TTGlyph name="Gcommaaccent" xMin="76" yMin="-141" xMax="467" yMax="731">
      <contour>
        <pt x="272" y="348" on="1"/>
        <pt x="264" y="348" on="0"/>
        <pt x="255" y="359" on="0"/>
        <pt x="255" y="366" on="1"/>
        <pt x="255" y="373" on="0"/>
        <pt x="264" y="384" on="0"/>
        <pt x="272" y="384" on="1"/>
        <pt x="450" y="384" on="1"/>
        <pt x="458" y="384" on="0"/>
        <pt x="467" y="373" on="0"/>
        <pt x="467" y="365" on="1"/>
        <pt x="467" y="200" on="1"/>
        <pt x="467" y="144" on="0"/>
        <pt x="437" y="65" on="0"/>
        <pt x="384" y="16" on="0"/>
        <pt x="312" y="-6" on="0"/>
        <pt x="271" y="-6" on="1"/>
        <pt x="230" y="-6" on="0"/>
        <pt x="158" y="16" on="0"/>
        <pt x="106" y="65" on="0"/>
        <pt x="76" y="144" on="0"/>
        <pt x="76" y="200" on="1"/>
        <pt x="76" y="525" on="1"/>
        <pt x="76" y="581" on="0"/>
        <pt x="106" y="660" on="0"/>
        <pt x="158" y="709" on="0"/>
        <pt x="230" y="731" on="0"/>
        <pt x="271" y="731" on="1"/>
        <pt x="317" y="731" on="0"/>
        <pt x="390" y="705" on="0"/>
        <pt x="440" y="661" on="0"/>
        <pt x="467" y="600" on="0"/>
        <pt x="467" y="566" on="1"/>
        <pt x="467" y="555" on="0"/>
        <pt x="456" y="546" on="0"/>
        <pt x="449" y="546" on="1"/>
        <pt x="442" y="546" on="0"/>
        <pt x="432" y="555" on="0"/>
        <pt x="431" y="564" on="1"/>
        <pt x="422" y="632" on="0"/>
        <pt x="337" y="695" on="0"/>
        <pt x="271" y="695" on="1"/>
        <pt x="196" y="695" on="0"/>
        <pt x="112" y="613" on="0"/>
        <pt x="112" y="525" on="1"/>
        <pt x="112" y="200" on="1"/>
        <pt x="112" y="112" on="0"/>
        <pt x="196" y="30" on="0"/>
        <pt x="271" y="30" on="1"/>
        <pt x="346" y="30" on="0"/>
        <pt x="431" y="112" on="0"/>
        <pt x="431" y="200" on="1"/>
        <pt x="431" y="348" on="1"/>
      </contour>
      <contour>
        <pt x="230" y="-138" on="1"/>
        <pt x="225" y="-141" on="0"/>
        <pt x="221" y="-141" on="1"/>
        <pt x="213" y="-141" on="0"/>
        <pt x="202" y="-131" on="0"/>
        <pt x="202" y="-123" on="1"/>
        <pt x="202" y="-114" on="0"/>
        <pt x="210" y="-110" on="1"/>
        <pt x="312" y="-50" on="1"/>
        <pt x="316" y="-48" on="0"/>
        <pt x="319" y="-48" on="1"/>
        <pt x="327" y="-48" on="0"/>
        <pt x="335" y="-59" on="0"/>
        <pt x="335" y="-66" on="1"/>
        <pt x="335" y="-78" on="0"/>
        <pt x="325" y="-84" on="1"/>
      </contour>
    </TTGlyph>
    <TTGlyph name="Gdotaccent" xMin="76" yMin="-6" xMax="467" yMax="918">
      <contour>
        <pt x="272" y="348" on="1"/>
        <pt x="264" y="348" on="0"/>
        <pt x="255" y="359" on="0"/>
        <pt x="255" y="366" on="1"/>
        <pt x="255" y="373" on="0"/>
        <pt x="264" y="384" on="0"/>
        <pt x="272" y="384" on="1"/>
        <pt x="450" y="384" on="1"/>
        <pt x="458" y="384" on="0"/>
        <pt x="467" y="373" on="0"/>
        <pt x="467" y="365" on="1"/>
        <pt x="467" y="200" on="1"/>
        <pt x="467" y="144" on="0"/>
        <pt x="437" y="65" on="0"/>
        <pt x="384" y="16" on="0"/>
        <pt x="312" y="-6" on="0"/>
        <pt x="271" y="-6" on="1"/>
        <pt x="230" y="-6" on="0"/>
        <pt x="158" y="16" on="0"/>
        <pt x="106" y="65" on="0"/>
        <pt x="76" y="144" on="0"/>
        <pt x="76" y="200" on="1"/>
        <pt x="76" y="525" on="1"/>
        <pt x="76" y="581" on="0"/>
        <pt x="106" y="660" on="0"/>
        <pt x="158" y="709" on="0"/>
        <pt x="230" y="731" on="0"/>
        <pt x="271" y="731" on="1"/>
        <pt x="317" y="731" on="0"/>
        <pt x="390" y="705" on="0"/>
        <pt x="440" y="661" on="0"/>
        <pt x="467" y="600" on="0"/>
        <pt x="467" y="566" on="1"/>
        <pt x="467" y="555" on="0"/>
        <pt x="456" y="546" on="0"/>
        <pt x="449" y="546" on="1"/>
        <pt x="442" y="546" on="0"/>
        <pt x="432" y="555" on="0"/>
        <pt x="431" y="564" on="1"/>
        <pt x="422" y="632" on="0"/>
        <pt x="337" y="695" on="0"/>
        <pt x="271" y="695" on="1"/>
        <pt x="196" y="695" on="0"/>
        <pt x="112" y="613" on="0"/>
        <pt x="112" y="525" on="1"/>
        <pt x="112" y="200" on="1"/>
        <pt x="112" y="112" on="0"/>
        <pt x="196" y="30" on="0"/>
        <pt x="271" y="30" on="1"/>
        <pt x="346" y="30" on="0"/>
        <pt x="431" y="112" on="0"/>
        <pt x="431" y="200" on="1"/>
        <pt x="431" y="348" on="1"/>
      </contour>
      <contour>
        <pt x="272" y="918" on="1"/>
        <pt x="285" y="918" on="0"/>
        <pt x="301" y="902" on="0"/>
        <pt x="301" y="889" on="1"/>
        <pt x="301" y="876" on="0"/>
        <pt x="285" y="859" on="0"/>
        <pt x="272" y="859" on="1"/>
        <pt x="258" y="859" on="0"/>
        <pt x="242" y="876" on="0"/>
        <pt x="242" y="889" on="1"/>
        <pt x="242" y="902" on="0"/>
        <pt x="258" y="918" on="0"/>
      </contour>
    </TTGlyph>
    <TTGlyph name="H" xMin="83" yMin="0" xMax="474" yMax="731">
      <contour>
        <pt x="438" y="361" on="1"/>
        <pt x="119" y="361" on="1"/>
        <pt x="119" y="18" on="1"/>
        <pt x="119" y="9" on="0"/>
        <pt x="108" y="0" on="0"/>
        <pt x="101" y="0" on="1"/>
        <pt x="94" y="0" on="0"/>
        <pt x="83" y="9" on="0"/>
        <pt x="83" y="18" on="1"/>
        <pt x="83" y="714" on="1"/>
        <pt x="83" y="723" on="0"/>
        <pt x="94" y="731" on="0"/>
        <pt x="101" y="731" on="1"/>
        <pt x="108" y="731" on="0"/>
        <pt x="119" y="723" on="0"/>
        <pt x="119" y="714" on="1"/>
        <pt x="119" y="397" on="1"/>
        <pt x="438" y="397" on="1"/>
        <pt x="438" y="714" on="1"/>
        <pt x="438" y="723" on="0"/>
        <pt x="449" y="731" on="0"/>
        <pt x="456" y="731" on="1"/>
        <pt x="463" y="731" on="0"/>
        <pt x="474" y="723" on="0"/>
        <pt x="474" y="714" on="1"/>
        <pt x="474" y="18" on="1"/>
        <pt x="474" y="9" on="0"/>
        <pt x="463" y="0" on="0"/>
        <pt x="456" y="0" on="1"/>
        <pt x="449" y="0" on="0"/>
        <pt x="438" y="9" on="0"/>
        <pt x="438" y="18" on="1"/>
      </contour>
    </TTGlyph>
    <TTGlyph name="Hbar" xMin="21" yMin="0" xMax="536" yMax="731">
      <contour>
        <pt x="438" y="361" on="1"/>
        <pt x="119" y="361" on="1"/>
        <pt x="119" y="18" on="1"/>
        <pt x="119" y="9" on="0"/>
        <pt x="108" y="0" on="0"/>
        <pt x="101" y="0" on="1"/>
        <pt x="94" y="0" on="0"/>
        <pt x="83" y="9" on="0"/>
        <pt x="83" y="18" on="1"/>
        <pt x="83" y="543" on="1"/>
        <pt x="38" y="543" on="1"/>
        <pt x="21" y="543" on="0"/>
        <pt x="21" y="560" on="1"/>
        <pt x="21" y="568" on="0"/>
        <pt x="30" y="578" on="0"/>
        <pt x="38" y="578" on="1"/>
        <pt x="83" y="578" on="1"/>
        <pt x="83" y="714" on="1"/>
        <pt x="83" y="723" on="0"/>
        <pt x="94" y="731" on="0"/>
        <pt x="101" y="731" on="1"/>
        <pt x="108" y="731" on="0"/>
        <pt x="119" y="723" on="0"/>
        <pt x="119" y="714" on="1"/>
        <pt x="119" y="578" on="1"/>
        <pt x="438" y="578" on="1"/>
        <pt x="438" y="714" on="1"/>
        <pt x="438" y="723" on="0"/>
        <pt x="449" y="731" on="0"/>
        <pt x="456" y="731" on="1"/>
        <pt x="463" y="731" on="0"/>
        <pt x="474" y="723" on="0"/>
        <pt x="474" y="714" on="1"/>
        <pt x="474" y="578" on="1"/>
        <pt x="518" y="578" on="1"/>
        <pt x="525" y="578" on="0"/>
        <pt x="536" y="568" on="0"/>
        <pt x="536" y="560" on="1"/>
        <pt x="536" y="552" on="0"/>
        <pt x="525" y="543" on="0"/>
        <pt x="518" y="543" on="1"/>
        <pt x="474" y="543" on="1"/>
        <pt x="474" y="18" on="1"/>
        <pt x="474" y="9" on="0"/>
        <pt x="463" y="0" on="0"/>
        <pt x="456" y="0" on="1"/>
        <pt x="449" y="0" on="0"/>
        <pt x="438" y="9" on="0"/>
        <pt x="438" y="18" on="1"/>
      </contour>
      <contour>
        <pt x="438" y="397" on="1"/>
        <pt x="438" y="543" on="1"/>
        <pt x="119" y="543" on="1"/>
        <pt x="119" y="397" on="1"/>
      </contour>
    </TTGlyph>
    <TTGlyph name="Hcircumflex" xMin="83" yMin="0" xMax="474" yMax="953">
      <contour>
        <pt x="438" y="361" on="1"/>
        <pt x="119" y="361" on="1"/>
        <pt x="119" y="18" on="1"/>
        <pt x="119" y="9" on="0"/>
        <pt x="108" y="0" on="0"/>
        <pt x="101" y="0" on="1"/>
        <pt x="94" y="0" on="0"/>
        <pt x="83" y="9" on="0"/>
        <pt x="83" y="18" on="1"/>
        <pt x="83" y="714" on="1"/>
        <pt x="83" y="723" on="0"/>
        <pt x="94" y="731" on="0"/>
        <pt x="101" y="731" on="1"/>
        <pt x="108" y="731" on="0"/>
        <pt x="119" y="723" on="0"/>
        <pt x="119" y="714" on="1"/>
        <pt x="119" y="397" on="1"/>
        <pt x="438" y="397" on="1"/>
        <pt x="438" y="714" on="1"/>
        <pt x="438" y="723" on="0"/>
        <pt x="449" y="731" on="0"/>
        <pt x="456" y="731" on="1"/>
        <pt x="463" y="731" on="0"/>
        <pt x="474" y="723" on="0"/>
        <pt x="474" y="714" on="1"/>
        <pt x="474" y="18" on="1"/>
        <pt x="474" y="9" on="0"/>
        <pt x="463" y="0" on="0"/>
        <pt x="456" y="0" on="1"/>
        <pt x="449" y="0" on="0"/>
        <pt x="438" y="9" on="0"/>
        <pt x="438" y="18" on="1"/>
      </contour>
      <contour>
        <pt x="175" y="862" on="1"/>
        <pt x="173" y="861" on="0"/>
        <pt x="169" y="859" on="0"/>
        <pt x="167" y="859" on="1"/>
        <pt x="160" y="859" on="0"/>
        <pt x="149" y="870" on="0"/>
        <pt x="149" y="878" on="1"/>
        <pt x="149" y="887" on="0"/>
        <pt x="158" y="892" on="1"/>
        <pt x="262" y="948" on="1"/>
        <pt x="270" y="953" on="0"/>
        <pt x="279" y="953" on="1"/>
        <pt x="288" y="953" on="0"/>
        <pt x="296" y="948" on="1"/>
        <pt x="400" y="893" on="1"/>
        <pt x="409" y="888" on="0"/>
        <pt x="409" y="876" on="1"/>
        <pt x="409" y="869" on="0"/>
        <pt x="399" y="860" on="0"/>
        <pt x="392" y="860" on="1"/>
        <pt x="390" y="860" on="0"/>
        <pt x="385" y="862" on="0"/>
        <pt x="383" y="863" on="1"/>
        <pt x="279" y="918" on="1"/>
      </contour>
    </TTGlyph>
    <TTGlyph name="I" xMin="83" yMin="0" xMax="119" yMax="731">
      <contour>
        <pt x="83" y="714" on="1"/>
        <pt x="83" y="723" on="0"/>
        <pt x="94" y="731" on="0"/>
        <pt x="101" y="731" on="1"/>
        <pt x="108" y="731" on="0"/>
        <pt x="119" y="723" on="0"/>
        <pt x="119" y="714" on="1"/>
        <pt x="119" y="18" on="1"/>
        <pt x="119" y="9" on="0"/>
        <pt x="108" y="0" on="0"/>
        <pt x="101" y="0" on="1"/>
        <pt x="94" y="0" on="0"/>
        <pt x="83" y="9" on="0"/>
        <pt x="83" y="18" on="1"/>
      </contour>
    </TTGlyph>
    <TTGlyph name="IJ" xMin="83" yMin="-6" xMax="617" yMax="731">
      <contour>
        <pt x="83" y="714" on="1"/>
        <pt x="83" y="723" on="0"/>
        <pt x="94" y="731" on="0"/>
        <pt x="101" y="731" on="1"/>
        <pt x="108" y="731" on="0"/>
        <pt x="119" y="723" on="0"/>
        <pt x="119" y="714" on="1"/>
        <pt x="119" y="18" on="1"/>
        <pt x="119" y="9" on="0"/>
        <pt x="108" y="0" on="0"/>
        <pt x="101" y="0" on="1"/>
        <pt x="94" y="0" on="0"/>
        <pt x="83" y="9" on="0"/>
        <pt x="83" y="18" on="1"/>
      </contour>
      <contour>
        <pt x="599" y="731" on="1"/>
        <pt x="606" y="731" on="0"/>
        <pt x="617" y="722" on="0"/>
        <pt x="617" y="713" on="1"/>
        <pt x="617" y="200" on="1"/>
        <pt x="617" y="144" on="0"/>
        <pt x="587" y="65" on="0"/>
        <pt x="534" y="16" on="0"/>
        <pt x="463" y="-6" on="0"/>
        <pt x="422" y="-6" on="1"/>
        <pt x="376" y="-6" on="0"/>
        <pt x="303" y="20" on="0"/>
        <pt x="253" y="64" on="0"/>
        <pt x="226" y="124" on="0"/>
        <pt x="226" y="159" on="1"/>
        <pt x="226" y="170" on="0"/>
        <pt x="236" y="179" on="0"/>
        <pt x="243" y="179" on="1"/>
        <pt x="250" y="179" on="0"/>
        <pt x="262" y="170" on="0"/>
        <pt x="262" y="161" on="1"/>
        <pt x="262" y="128" on="0"/>
        <pt x="287" y="78" on="0"/>
        <pt x="331" y="46" on="0"/>
        <pt x="389" y="30" on="0"/>
        <pt x="422" y="30" on="1"/>
        <pt x="497" y="30" on="0"/>
        <pt x="581" y="112" on="0"/>
        <pt x="581" y="200" on="1"/>
        <pt x="581" y="695" on="1"/>
        <pt x="422" y="695" on="1"/>
        <pt x="414" y="695" on="0"/>
        <pt x="405" y="706" on="0"/>
        <pt x="405" y="714" on="1"/>
        <pt x="405" y="720" on="0"/>
        <pt x="413" y="731" on="0"/>
        <pt x="422" y="731" on="1"/>
      </contour>
    </TTGlyph>
    <TTGlyph name="Iacute" xMin="34" yMin="0" xMax="167" yMax="953">
      <contour>
        <pt x="83" y="714" on="1"/>
        <pt x="83" y="723" on="0"/>
        <pt x="94" y="731" on="0"/>
        <pt x="101" y="731" on="1"/>
        <pt x="108" y="731" on="0"/>
        <pt x="119" y="723" on="0"/>
        <pt x="119" y="714" on="1"/>
        <pt x="119" y="18" on="1"/>
        <pt x="119" y="9" on="0"/>
        <pt x="108" y="0" on="0"/>
        <pt x="101" y="0" on="1"/>
        <pt x="94" y="0" on="0"/>
        <pt x="83" y="9" on="0"/>
        <pt x="83" y="18" on="1"/>
      </contour>
      <contour>
        <pt x="62" y="863" on="1"/>
        <pt x="57" y="860" on="0"/>
        <pt x="53" y="860" on="1"/>
        <pt x="45" y="860" on="0"/>
        <pt x="34" y="870" on="0"/>
        <pt x="34" y="878" on="1"/>
        <pt x="34" y="887" on="0"/>
        <pt x="42" y="891" on="1"/>
        <pt x="144" y="951" on="1"/>
        <pt x="148" y="953" on="0"/>
        <pt x="151" y="953" on="1"/>
        <pt x="159" y="953" on="0"/>
        <pt x="167" y="942" on="0"/>
        <pt x="167" y="935" on="1"/>
        <pt x="167" y="923" on="0"/>
        <pt x="157" y="917" on="1"/>
      </contour>
    </TTGlyph>
    <TTGlyph name="Ibreve" xMin="-8" yMin="0" xMax="210" yMax="969">
      <contour>
        <pt x="83" y="714" on="1"/>
        <pt x="83" y="723" on="0"/>
        <pt x="94" y="731" on="0"/>
        <pt x="101" y="731" on="1"/>
        <pt x="108" y="731" on="0"/>
        <pt x="119" y="723" on="0"/>
        <pt x="119" y="714" on="1"/>
        <pt x="119" y="18" on="1"/>
        <pt x="119" y="9" on="0"/>
        <pt x="108" y="0" on="0"/>
        <pt x="101" y="0" on="1"/>
        <pt x="94" y="0" on="0"/>
        <pt x="83" y="9" on="0"/>
        <pt x="83" y="18" on="1"/>
      </contour>
      <contour>
        <pt x="210" y="969" on="1"/>
        <pt x="210" y="947" on="0"/>
        <pt x="192" y="907" on="0"/>
        <pt x="162" y="877" on="0"/>
        <pt x="122" y="860" on="0"/>
        <pt x="101" y="860" on="1"/>
        <pt x="79" y="860" on="0"/>
        <pt x="40" y="877" on="0"/>
        <pt x="10" y="907" on="0"/>
        <pt x="-8" y="947" on="0"/>
        <pt x="-8" y="969" on="1"/>
        <pt x="24" y="969" on="1"/>
        <pt x="24" y="934" on="0"/>
        <pt x="69" y="886" on="0"/>
        <pt x="101" y="886" on="1"/>
        <pt x="132" y="886" on="0"/>
        <pt x="177" y="934" on="0"/>
        <pt x="177" y="969" on="1"/>
      </contour>
    </TTGlyph>
    <TTGlyph name="Icircumflex" xMin="-29" yMin="0" xMax="231" yMax="953">
      <contour>
        <pt x="83" y="714" on="1"/>
        <pt x="83" y="723" on="0"/>
        <pt x="94" y="731" on="0"/>
        <pt x="101" y="731" on="1"/>
        <pt x="108" y="731" on="0"/>
        <pt x="119" y="723" on="0"/>
        <pt x="119" y="714" on="1"/>
        <pt x="119" y="18" on="1"/>
        <pt x="119" y="9" on="0"/>
        <pt x="108" y="0" on="0"/>
        <pt x="101" y="0" on="1"/>
        <pt x="94" y="0" on="0"/>
        <pt x="83" y="9" on="0"/>
        <pt x="83" y="18" on="1"/>
      </contour>
      <contour>
        <pt x="-3" y="862" on="1"/>
        <pt x="-5" y="861" on="0"/>
        <pt x="-9" y="859" on="0"/>
        <pt x="-11" y="859" on="1"/>
        <pt x="-18" y="859" on="0"/>
        <pt x="-29" y="870" on="0"/>
        <pt x="-29" y="878" on="1"/>
        <pt x="-29" y="887" on="0"/>
        <pt x="-20" y="892" on="1"/>
        <pt x="84" y="948" on="1"/>
        <pt x="92" y="953" on="0"/>
        <pt x="101" y="953" on="1"/>
        <pt x="110" y="953" on="0"/>
        <pt x="118" y="948" on="1"/>
        <pt x="222" y="893" on="1"/>
        <pt x="231" y="888" on="0"/>
        <pt x="231" y="876" on="1"/>
        <pt x="231" y="869" on="0"/>
        <pt x="221" y="860" on="0"/>
        <pt x="214" y="860" on="1"/>
        <pt x="212" y="860" on="0"/>
        <pt x="207" y="862" on="0"/>
        <pt x="205" y="863" on="1"/>
        <pt x="101" y="918" on="1"/>
      </contour>
    </TTGlyph>
    <TTGlyph name="Idieresis" xMin="16" yMin="0" xMax="186" yMax="918">
      <contour>
        <pt x="83" y="714" on="1"/>
        <pt x="83" y="723" on="0"/>
        <pt x="94" y="731" on="0"/>
        <pt x="101" y="731" on="1"/>
        <pt x="108" y="731" on="0"/>
        <pt x="119" y="723" on="0"/>
        <pt x="119" y="714" on="1"/>
        <pt x="119" y="18" on="1"/>
        <pt x="119" y="9" on="0"/>
        <pt x="108" y="0" on="0"/>
        <pt x="101" y="0" on="1"/>
        <pt x="94" y="0" on="0"/>
        <pt x="83" y="9" on="0"/>
        <pt x="83" y="18" on="1"/>
      </contour>
      <contour>
        <pt x="46" y="918" on="1"/>
        <pt x="59" y="918" on="0"/>
        <pt x="75" y="902" on="0"/>
        <pt x="75" y="889" on="1"/>
        <pt x="75" y="876" on="0"/>
        <pt x="59" y="859" on="0"/>
        <pt x="46" y="859" on="1"/>
        <pt x="32" y="859" on="0"/>
        <pt x="16" y="876" on="0"/>
        <pt x="16" y="889" on="1"/>
        <pt x="16" y="902" on="0"/>
        <pt x="32" y="918" on="0"/>
      </contour>
      <contour>
        <pt x="157" y="918" on="1"/>
        <pt x="170" y="918" on="0"/>
        <pt x="186" y="902" on="0"/>
        <pt x="186" y="889" on="1"/>
        <pt x="186" y="876" on="0"/>
        <pt x="170" y="859" on="0"/>
        <pt x="157" y="859" on="1"/>
        <pt x="143" y="859" on="0"/>
        <pt x="127" y="876" on="0"/>
        <pt x="127" y="889" on="1"/>
        <pt x="127" y="902" on="0"/>
        <pt x="143" y="918" on="0"/>
      </contour>
    </TTGlyph>
    <TTGlyph name="Idotaccent" xMin="71" yMin="0" xMax="130" yMax="918">
      <contour>
        <pt x="83" y="714" on="1"/>
        <pt x="83" y="723" on="0"/>
        <pt x="94" y="731" on="0"/>
        <pt x="101" y="731" on="1"/>
        <pt x="108" y="731" on="0"/>
        <pt x="119" y="723" on="0"/>
        <pt x="119" y="714" on="1"/>
        <pt x="119" y="18" on="1"/>
        <pt x="119" y="9" on="0"/>
        <pt x="108" y="0" on="0"/>
        <pt x="101" y="0" on="1"/>
        <pt x="94" y="0" on="0"/>
        <pt x="83" y="9" on="0"/>
        <pt x="83" y="18" on="1"/>
      </contour>
      <contour>
        <pt x="101" y="918" on="1"/>
        <pt x="114" y="918" on="0"/>
        <pt x="130" y="902" on="0"/>
        <pt x="130" y="889" on="1"/>
        <pt x="130" y="876" on="0"/>
        <pt x="114" y="859" on="0"/>
        <pt x="101" y="859" on="1"/>
        <pt x="87" y="859" on="0"/>
        <pt x="71" y="876" on="0"/>
        <pt x="71" y="889" on="1"/>
        <pt x="71" y="902" on="0"/>
        <pt x="87" y="918" on="0"/>
      </contour>
    </TTGlyph>
    <TTGlyph name="Igrave" xMin="34" yMin="0" xMax="167" yMax="953">
      <contour>
        <pt x="83" y="714" on="1"/>
        <pt x="83" y="723" on="0"/>
        <pt x="94" y="731" on="0"/>
        <pt x="101" y="731" on="1"/>
        <pt x="108" y="731" on="0"/>
        <pt x="119" y="723" on="0"/>
        <pt x="119" y="714" on="1"/>
        <pt x="119" y="18" on="1"/>
        <pt x="119" y="9" on="0"/>
        <pt x="108" y="0" on="0"/>
        <pt x="101" y="0" on="1"/>
        <pt x="94" y="0" on="0"/>
        <pt x="83" y="9" on="0"/>
        <pt x="83" y="18" on="1"/>
      </contour>
      <contour>
        <pt x="44" y="917" on="1"/>
        <pt x="34" y="923" on="0"/>
        <pt x="34" y="935" on="1"/>
        <pt x="34" y="942" on="0"/>
        <pt x="42" y="953" on="0"/>
        <pt x="50" y="953" on="1"/>
        <pt x="53" y="953" on="0"/>
        <pt x="57" y="951" on="1"/>
        <pt x="159" y="891" on="1"/>
        <pt x="167" y="887" on="0"/>
        <pt x="167" y="878" on="1"/>
        <pt x="167" y="870" on="0"/>
        <pt x="156" y="860" on="0"/>
        <pt x="148" y="860" on="1"/>
        <pt x="143" y="860" on="0"/>
        <pt x="139" y="863" on="1"/>
      </contour>
    </TTGlyph>
    <TTGlyph name="Imacron" xMin="-26" yMin="0" xMax="229" yMax="941">
      <contour>
        <pt x="83" y="714" on="1"/>
        <pt x="83" y="723" on="0"/>
        <pt x="94" y="731" on="0"/>
        <pt x="101" y="731" on="1"/>
        <pt x="108" y="731" on="0"/>
        <pt x="119" y="723" on="0"/>
        <pt x="119" y="714" on="1"/>
        <pt x="119" y="18" on="1"/>
        <pt x="119" y="9" on="0"/>
        <pt x="108" y="0" on="0"/>
        <pt x="101" y="0" on="1"/>
        <pt x="94" y="0" on="0"/>
        <pt x="83" y="9" on="0"/>
        <pt x="83" y="18" on="1"/>
      </contour>
      <contour>
        <pt x="-26" y="923" on="1"/>
        <pt x="-26" y="931" on="0"/>
        <pt x="-17" y="941" on="0"/>
        <pt x="-9" y="941" on="1"/>
        <pt x="211" y="941" on="1"/>
        <pt x="218" y="941" on="0"/>
        <pt x="229" y="931" on="0"/>
        <pt x="229" y="923" on="1"/>
        <pt x="229" y="915" on="0"/>
        <pt x="218" y="906" on="0"/>
        <pt x="211" y="906" on="1"/>
        <pt x="-9" y="906" on="1"/>
        <pt x="-26" y="906" on="0"/>
      </contour>
    </TTGlyph>
    <TTGlyph name="Iogonek" xMin="15" yMin="-190" xMax="125" yMax="731">
      <contour>
        <pt x="107" y="-164" on="1"/>
        <pt x="115" y="-164" on="0"/>
        <pt x="125" y="-169" on="0"/>
        <pt x="125" y="-177" on="1"/>
        <pt x="125" y="-190" on="0"/>
        <pt x="102" y="-190" on="1"/>
        <pt x="88" y="-190" on="0"/>
        <pt x="58" y="-184" on="0"/>
        <pt x="32" y="-169" on="0"/>
        <pt x="15" y="-143" on="0"/>
        <pt x="15" y="-123" on="1"/>
        <pt x="15" y="-81" on="0"/>
        <pt x="53" y="-13" on="0"/>
        <pt x="84" y="17" on="1"/>
        <pt x="84" y="714" on="1"/>
        <pt x="84" y="723" on="0"/>
        <pt x="95" y="731" on="0"/>
        <pt x="102" y="731" on="1"/>
        <pt x="109" y="731" on="0"/>
        <pt x="120" y="723" on="0"/>
        <pt x="120" y="714" on="1"/>
        <pt x="120" y="18" on="1"/>
        <pt x="120" y="7" on="0"/>
        <pt x="111" y="2" on="1"/>
        <pt x="82" y="-26" on="0"/>
        <pt x="44" y="-83" on="0"/>
        <pt x="44" y="-121" on="1"/>
        <pt x="44" y="-146" on="0"/>
        <pt x="78" y="-164" on="0"/>
      </contour>
    </TTGlyph>
    <TTGlyph name="Itilde" xMin="-46" yMin="0" xMax="249" yMax="949">
      <contour>
        <pt x="83" y="714" on="1"/>
        <pt x="83" y="723" on="0"/>
        <pt x="94" y="731" on="0"/>
        <pt x="101" y="731" on="1"/>
        <pt x="108" y="731" on="0"/>
        <pt x="119" y="723" on="0"/>
        <pt x="119" y="714" on="1"/>
        <pt x="119" y="18" on="1"/>
        <pt x="119" y="9" on="0"/>
        <pt x="108" y="0" on="0"/>
        <pt x="101" y="0" on="1"/>
        <pt x="94" y="0" on="0"/>
        <pt x="83" y="9" on="0"/>
        <pt x="83" y="18" on="1"/>
      </contour>
      <contour>
        <pt x="170" y="912" on="1"/>
        <pt x="187" y="912" on="0"/>
        <pt x="207" y="922" on="0"/>
        <pt x="220" y="934" on="0"/>
        <pt x="229" y="944" on="0"/>
        <pt x="235" y="944" on="1"/>
        <pt x="240" y="944" on="0"/>
        <pt x="249" y="936" on="0"/>
        <pt x="249" y="929" on="1"/>
        <pt x="249" y="917" on="0"/>
        <pt x="232" y="899" on="0"/>
        <pt x="206" y="885" on="0"/>
        <pt x="177" y="878" on="0"/>
        <pt x="165" y="878" on="1"/>
        <pt x="147" y="878" on="0"/>
        <pt x="118" y="890" on="0"/>
        <pt x="89" y="903" on="0"/>
        <pt x="57" y="915" on="0"/>
        <pt x="36" y="915" on="1"/>
        <pt x="20" y="915" on="0"/>
        <pt x="-2" y="904" on="0"/>
        <pt x="-17" y="891" on="0"/>
        <pt x="-28" y="880" on="0"/>
        <pt x="-33" y="880" on="1"/>
        <pt x="-46" y="880" on="0"/>
        <pt x="-46" y="897" on="1"/>
        <pt x="-46" y="907" on="0"/>
        <pt x="-28" y="925" on="0"/>
        <pt x="-2" y="940" on="0"/>
        <pt x="29" y="949" on="0"/>
        <pt x="43" y="949" on="1"/>
        <pt x="61" y="949" on="0"/>
        <pt x="91" y="937" on="0"/>
        <pt x="120" y="924" on="0"/>
        <pt x="151" y="912" on="0"/>
      </contour>
    </TTGlyph>
    <TTGlyph name="J" xMin="26" yMin="-6" xMax="417" yMax="731">
      <contour>
        <pt x="399" y="731" on="1"/>
        <pt x="406" y="731" on="0"/>
        <pt x="417" y="722" on="0"/>
        <pt x="417" y="713" on="1"/>
        <pt x="417" y="200" on="1"/>
        <pt x="417" y="144" on="0"/>
        <pt x="387" y="65" on="0"/>
        <pt x="334" y="16" on="0"/>
        <pt x="263" y="-6" on="0"/>
        <pt x="222" y="-6" on="1"/>
        <pt x="176" y="-6" on="0"/>
        <pt x="103" y="20" on="0"/>
        <pt x="53" y="64" on="0"/>
        <pt x="26" y="124" on="0"/>
        <pt x="26" y="159" on="1"/>
        <pt x="26" y="170" on="0"/>
        <pt x="36" y="179" on="0"/>
        <pt x="43" y="179" on="1"/>
        <pt x="50" y="179" on="0"/>
        <pt x="62" y="170" on="0"/>
        <pt x="62" y="161" on="1"/>
        <pt x="62" y="128" on="0"/>
        <pt x="87" y="78" on="0"/>
        <pt x="131" y="46" on="0"/>
        <pt x="189" y="30" on="0"/>
        <pt x="222" y="30" on="1"/>
        <pt x="297" y="30" on="0"/>
        <pt x="381" y="112" on="0"/>
        <pt x="381" y="200" on="1"/>
        <pt x="381" y="695" on="1"/>
        <pt x="222" y="695" on="1"/>
        <pt x="214" y="695" on="0"/>
        <pt x="205" y="706" on="0"/>
        <pt x="205" y="714" on="1"/>
        <pt x="205" y="720" on="0"/>
        <pt x="213" y="731" on="0"/>
        <pt x="222" y="731" on="1"/>
      </contour>
    </TTGlyph>
    <TTGlyph name="Jcircumflex" xMin="26" yMin="-6" xMax="417" yMax="953">
      <contour>
        <pt x="399" y="731" on="1"/>
        <pt x="406" y="731" on="0"/>
        <pt x="417" y="722" on="0"/>
        <pt x="417" y="713" on="1"/>
        <pt x="417" y="200" on="1"/>
        <pt x="417" y="144" on="0"/>
        <pt x="387" y="65" on="0"/>
        <pt x="334" y="16" on="0"/>
        <pt x="263" y="-6" on="0"/>
        <pt x="222" y="-6" on="1"/>
        <pt x="176" y="-6" on="0"/>
        <pt x="103" y="20" on="0"/>
        <pt x="53" y="64" on="0"/>
        <pt x="26" y="124" on="0"/>
        <pt x="26" y="159" on="1"/>
        <pt x="26" y="170" on="0"/>
        <pt x="36" y="179" on="0"/>
        <pt x="43" y="179" on="1"/>
        <pt x="50" y="179" on="0"/>
        <pt x="62" y="170" on="0"/>
        <pt x="62" y="161" on="1"/>
        <pt x="62" y="128" on="0"/>
        <pt x="87" y="78" on="0"/>
        <pt x="131" y="46" on="0"/>
        <pt x="189" y="30" on="0"/>
        <pt x="222" y="30" on="1"/>
        <pt x="297" y="30" on="0"/>
        <pt x="381" y="112" on="0"/>
        <pt x="381" y="200" on="1"/>
        <pt x="381" y="695" on="1"/>
        <pt x="222" y="695" on="1"/>
        <pt x="214" y="695" on="0"/>
        <pt x="205" y="706" on="0"/>
        <pt x="205" y="714" on="1"/>
        <pt x="205" y="720" on="0"/>
        <pt x="213" y="731" on="0"/>
        <pt x="222" y="731" on="1"/>
      </contour>
      <contour>
        <pt x="144" y="862" on="1"/>
        <pt x="142" y="861" on="0"/>
        <pt x="138" y="859" on="0"/>
        <pt x="136" y="859" on="1"/>
        <pt x="129" y="859" on="0"/>
        <pt x="118" y="870" on="0"/>
        <pt x="118" y="878" on="1"/>
        <pt x="118" y="887" on="0"/>
        <pt x="127" y="892" on="1"/>
        <pt x="231" y="948" on="1"/>
        <pt x="239" y="953" on="0"/>
        <pt x="248" y="953" on="1"/>
        <pt x="257" y="953" on="0"/>
        <pt x="265" y="948" on="1"/>
        <pt x="369" y="893" on="1"/>
        <pt x="378" y="888" on="0"/>
        <pt x="378" y="876" on="1"/>
        <pt x="378" y="869" on="0"/>
        <pt x="368" y="860" on="0"/>
        <pt x="361" y="860" on="1"/>
        <pt x="359" y="860" on="0"/>
        <pt x="354" y="862" on="0"/>
        <pt x="352" y="863" on="1"/>
        <pt x="248" y="918" on="1"/>
      </contour>
    </TTGlyph>
    <TTGlyph name="K" xMin="83" yMin="0" xMax="500" yMax="731">
      <contour>
        <pt x="215" y="385" on="1"/>
        <pt x="119" y="265" on="1"/>
        <pt x="119" y="18" on="1"/>
        <pt x="119" y="9" on="0"/>
        <pt x="108" y="0" on="0"/>
        <pt x="101" y="0" on="1"/>
        <pt x="94" y="0" on="0"/>
        <pt x="83" y="9" on="0"/>
        <pt x="83" y="18" on="1"/>
        <pt x="83" y="714" on="1"/>
        <pt x="83" y="723" on="0"/>
        <pt x="94" y="731" on="0"/>
        <pt x="101" y="731" on="1"/>
        <pt x="108" y="731" on="0"/>
        <pt x="119" y="723" on="0"/>
        <pt x="119" y="714" on="1"/>
        <pt x="119" y="322" on="1"/>
        <pt x="442" y="725" on="1"/>
        <pt x="446" y="731" on="0"/>
        <pt x="456" y="731" on="1"/>
        <pt x="463" y="731" on="0"/>
        <pt x="474" y="720" on="0"/>
        <pt x="474" y="712" on="1"/>
        <pt x="474" y="706" on="0"/>
        <pt x="470" y="702" on="1"/>
        <pt x="239" y="415" on="1"/>
        <pt x="497" y="27" on="1"/>
        <pt x="500" y="22" on="0"/>
        <pt x="500" y="18" on="1"/>
        <pt x="500" y="10" on="0"/>
        <pt x="489" y="0" on="0"/>
        <pt x="481" y="0" on="1"/>
        <pt x="472" y="0" on="0"/>
        <pt x="466" y="9" on="1"/>
      </contour>
    </TTGlyph>
    <TTGlyph name="Kcommaaccent" xMin="83" yMin="-141" xMax="500" yMax="731">
      <contour>
        <pt x="215" y="385" on="1"/>
        <pt x="119" y="265" on="1"/>
        <pt x="119" y="18" on="1"/>
        <pt x="119" y="9" on="0"/>
        <pt x="108" y="0" on="0"/>
        <pt x="101" y="0" on="1"/>
        <pt x="94" y="0" on="0"/>
        <pt x="83" y="9" on="0"/>
        <pt x="83" y="18" on="1"/>
        <pt x="83" y="714" on="1"/>
        <pt x="83" y="723" on="0"/>
        <pt x="94" y="731" on="0"/>
        <pt x="101" y="731" on="1"/>
        <pt x="108" y="731" on="0"/>
        <pt x="119" y="723" on="0"/>
        <pt x="119" y="714" on="1"/>
        <pt x="119" y="322" on="1"/>
        <pt x="442" y="725" on="1"/>
        <pt x="446" y="731" on="0"/>
        <pt x="456" y="731" on="1"/>
        <pt x="463" y="731" on="0"/>
        <pt x="474" y="720" on="0"/>
        <pt x="474" y="712" on="1"/>
        <pt x="474" y="706" on="0"/>
        <pt x="470" y="702" on="1"/>
        <pt x="239" y="415" on="1"/>
        <pt x="497" y="27" on="1"/>
        <pt x="500" y="22" on="0"/>
        <pt x="500" y="18" on="1"/>
        <pt x="500" y="10" on="0"/>
        <pt x="489" y="0" on="0"/>
        <pt x="481" y="0" on="1"/>
        <pt x="472" y="0" on="0"/>
        <pt x="466" y="9" on="1"/>
      </contour>
      <contour>
        <pt x="215" y="-138" on="1"/>
        <pt x="210" y="-141" on="0"/>
        <pt x="206" y="-141" on="1"/>
        <pt x="198" y="-141" on="0"/>
        <pt x="187" y="-131" on="0"/>
        <pt x="187" y="-123" on="1"/>
        <pt x="187" y="-114" on="0"/>
        <pt x="195" y="-110" on="1"/>
        <pt x="297" y="-50" on="1"/>
        <pt x="301" y="-48" on="0"/>
        <pt x="304" y="-48" on="1"/>
        <pt x="312" y="-48" on="0"/>
        <pt x="320" y="-59" on="0"/>
        <pt x="320" y="-66" on="1"/>
        <pt x="320" y="-78" on="0"/>
        <pt x="310" y="-84" on="1"/>
      </contour>
    </TTGlyph>
    <TTGlyph name="L" xMin="83" yMin="0" xMax="438" yMax="731">
      <contour>
        <pt x="101" y="0" on="1"/>
        <pt x="94" y="0" on="0"/>
        <pt x="83" y="9" on="0"/>
        <pt x="83" y="18" on="1"/>
        <pt x="83" y="714" on="1"/>
        <pt x="83" y="723" on="0"/>
        <pt x="94" y="731" on="0"/>
        <pt x="101" y="731" on="1"/>
        <pt x="108" y="731" on="0"/>
        <pt x="119" y="723" on="0"/>
        <pt x="119" y="714" on="1"/>
        <pt x="119" y="36" on="1"/>
        <pt x="423" y="36" on="1"/>
        <pt x="431" y="36" on="0"/>
        <pt x="438" y="25" on="0"/>
        <pt x="438" y="18" on="1"/>
        <pt x="438" y="11" on="0"/>
        <pt x="431" y="0" on="0"/>
        <pt x="423" y="0" on="1"/>
      </contour>
    </TTGlyph>
    <TTGlyph name="Lacute" xMin="83" yMin="0" xMax="438" yMax="953">
      <contour>
        <pt x="101" y="0" on="1"/>
        <pt x="94" y="0" on="0"/>
        <pt x="83" y="9" on="0"/>
        <pt x="83" y="18" on="1"/>
        <pt x="83" y="714" on="1"/>
        <pt x="83" y="723" on="0"/>
        <pt x="94" y="731" on="0"/>
        <pt x="101" y="731" on="1"/>
        <pt x="108" y="731" on="0"/>
        <pt x="119" y="723" on="0"/>
        <pt x="119" y="714" on="1"/>
        <pt x="119" y="36" on="1"/>
        <pt x="423" y="36" on="1"/>
        <pt x="431" y="36" on="0"/>
        <pt x="438" y="25" on="0"/>
        <pt x="438" y="18" on="1"/>
        <pt x="438" y="11" on="0"/>
        <pt x="431" y="0" on="0"/>
        <pt x="423" y="0" on="1"/>
      </contour>
      <contour>
        <pt x="222" y="863" on="1"/>
        <pt x="217" y="860" on="0"/>
        <pt x="213" y="860" on="1"/>
        <pt x="205" y="860" on="0"/>
        <pt x="194" y="870" on="0"/>
        <pt x="194" y="878" on="1"/>
        <pt x="194" y="887" on="0"/>
        <pt x="202" y="891" on="1"/>
        <pt x="304" y="951" on="1"/>
        <pt x="308" y="953" on="0"/>
        <pt x="311" y="953" on="1"/>
        <pt x="319" y="953" on="0"/>
        <pt x="327" y="942" on="0"/>
        <pt x="327" y="935" on="1"/>
        <pt x="327" y="923" on="0"/>
        <pt x="317" y="917" on="1"/>
      </contour>
    </TTGlyph>
    <TTGlyph name="Lcaron" xMin="83" yMin="0" xMax="438" yMax="741">
      <contour>
        <pt x="101" y="0" on="1"/>
        <pt x="94" y="0" on="0"/>
        <pt x="83" y="9" on="0"/>
        <pt x="83" y="18" on="1"/>
        <pt x="83" y="714" on="1"/>
        <pt x="83" y="723" on="0"/>
        <pt x="94" y="731" on="0"/>
        <pt x="101" y="731" on="1"/>
        <pt x="108" y="731" on="0"/>
        <pt x="119" y="723" on="0"/>
        <pt x="119" y="714" on="1"/>
        <pt x="119" y="36" on="1"/>
        <pt x="423" y="36" on="1"/>
        <pt x="431" y="36" on="0"/>
        <pt x="438" y="25" on="0"/>
        <pt x="438" y="18" on="1"/>
        <pt x="438" y="11" on="0"/>
        <pt x="431" y="0" on="0"/>
        <pt x="423" y="0" on="1"/>
      </contour>
      <contour>
        <pt x="324" y="741" on="1"/>
        <pt x="338" y="741" on="0"/>
        <pt x="359" y="720" on="0"/>
        <pt x="359" y="705" on="1"/>
        <pt x="359" y="699" on="0"/>
        <pt x="353" y="676" on="0"/>
        <pt x="344" y="649" on="0"/>
        <pt x="332" y="620" on="0"/>
        <pt x="326" y="608" on="1"/>
        <pt x="321" y="598" on="0"/>
        <pt x="312" y="598" on="1"/>
        <pt x="306" y="598" on="0"/>
        <pt x="296" y="606" on="0"/>
        <pt x="296" y="613" on="1"/>
        <pt x="296" y="617" on="0"/>
        <pt x="297" y="619" on="1"/>
        <pt x="315" y="670" on="1"/>
        <pt x="303" y="673" on="0"/>
        <pt x="288" y="693" on="0"/>
        <pt x="288" y="705" on="1"/>
        <pt x="288" y="720" on="0"/>
        <pt x="308" y="741" on="0"/>
      </contour>
    </TTGlyph>
    <TTGlyph name="Lcommaaccent" xMin="83" yMin="-141" xMax="438" yMax="731">
      <contour>
        <pt x="101" y="0" on="1"/>
        <pt x="94" y="0" on="0"/>
        <pt x="83" y="9" on="0"/>
        <pt x="83" y="18" on="1"/>
        <pt x="83" y="714" on="1"/>
        <pt x="83" y="723" on="0"/>
        <pt x="94" y="731" on="0"/>
        <pt x="101" y="731" on="1"/>
        <pt x="108" y="731" on="0"/>
        <pt x="119" y="723" on="0"/>
        <pt x="119" y="714" on="1"/>
        <pt x="119" y="36" on="1"/>
        <pt x="423" y="36" on="1"/>
        <pt x="431" y="36" on="0"/>
        <pt x="438" y="25" on="0"/>
        <pt x="438" y="18" on="1"/>
        <pt x="438" y="11" on="0"/>
        <pt x="431" y="0" on="0"/>
        <pt x="423" y="0" on="1"/>
      </contour>
      <contour>
        <pt x="214" y="-138" on="1"/>
        <pt x="209" y="-141" on="0"/>
        <pt x="205" y="-141" on="1"/>
        <pt x="197" y="-141" on="0"/>
        <pt x="186" y="-131" on="0"/>
        <pt x="186" y="-123" on="1"/>
        <pt x="186" y="-114" on="0"/>
        <pt x="194" y="-110" on="1"/>
        <pt x="296" y="-50" on="1"/>
        <pt x="300" y="-48" on="0"/>
        <pt x="303" y="-48" on="1"/>
        <pt x="311" y="-48" on="0"/>
        <pt x="319" y="-59" on="0"/>
        <pt x="319" y="-66" on="1"/>
        <pt x="319" y="-78" on="0"/>
        <pt x="309" y="-84" on="1"/>
      </contour>
    </TTGlyph>
    <TTGlyph name="Ldot" xMin="83" yMin="0" xMax="438" yMax="731">
      <contour>
        <pt x="101" y="0" on="1"/>
        <pt x="94" y="0" on="0"/>
        <pt x="83" y="9" on="0"/>
        <pt x="83" y="18" on="1"/>
        <pt x="83" y="714" on="1"/>
        <pt x="83" y="723" on="0"/>
        <pt x="94" y="731" on="0"/>
        <pt x="101" y="731" on="1"/>
        <pt x="108" y="731" on="0"/>
        <pt x="119" y="723" on="0"/>
        <pt x="119" y="714" on="1"/>
        <pt x="119" y="36" on="1"/>
        <pt x="423" y="36" on="1"/>
        <pt x="431" y="36" on="0"/>
        <pt x="438" y="25" on="0"/>
        <pt x="438" y="18" on="1"/>
        <pt x="438" y="11" on="0"/>
        <pt x="431" y="0" on="0"/>
        <pt x="423" y="0" on="1"/>
      </contour>
      <contour>
        <pt x="322" y="457" on="1"/>
        <pt x="336" y="457" on="0"/>
        <pt x="357" y="436" on="0"/>
        <pt x="357" y="421" on="1"/>
        <pt x="357" y="407" on="0"/>
        <pt x="336" y="385" on="0"/>
        <pt x="322" y="385" on="1"/>
        <pt x="306" y="385" on="0"/>
        <pt x="286" y="407" on="0"/>
        <pt x="286" y="421" on="1"/>
        <pt x="286" y="436" on="0"/>
        <pt x="306" y="457" on="0"/>
      </contour>
    </TTGlyph>
    <TTGlyph name="Lslash" xMin="6" yMin="0" xMax="444" yMax="731">
      <contour>
        <pt x="107" y="0" on="1"/>
        <pt x="100" y="0" on="0"/>
        <pt x="89" y="9" on="0"/>
        <pt x="89" y="18" on="1"/>
        <pt x="89" y="303" on="1"/>
        <pt x="32" y="270" on="1"/>
        <pt x="27" y="267" on="0"/>
        <pt x="23" y="267" on="1"/>
        <pt x="17" y="267" on="0"/>
        <pt x="6" y="278" on="0"/>
        <pt x="6" y="286" on="1"/>
        <pt x="6" y="295" on="0"/>
        <pt x="15" y="300" on="1"/>
        <pt x="89" y="343" on="1"/>
        <pt x="89" y="714" on="1"/>
        <pt x="89" y="723" on="0"/>
        <pt x="100" y="731" on="0"/>
        <pt x="107" y="731" on="1"/>
        <pt x="114" y="731" on="0"/>
        <pt x="125" y="723" on="0"/>
        <pt x="125" y="714" on="1"/>
        <pt x="125" y="363" on="1"/>
        <pt x="240" y="430" on="1"/>
        <pt x="243" y="432" on="0"/>
        <pt x="249" y="432" on="1"/>
        <pt x="256" y="432" on="0"/>
        <pt x="266" y="423" on="0"/>
        <pt x="266" y="416" on="1"/>
        <pt x="266" y="405" on="0"/>
        <pt x="257" y="400" on="1"/>
        <pt x="125" y="324" on="1"/>
        <pt x="125" y="36" on="1"/>
        <pt x="429" y="36" on="1"/>
        <pt x="437" y="36" on="0"/>
        <pt x="444" y="25" on="0"/>
        <pt x="444" y="18" on="1"/>
        <pt x="444" y="11" on="0"/>
        <pt x="437" y="0" on="0"/>
        <pt x="429" y="0" on="1"/>
      </contour>
    </TTGlyph>
    <TTGlyph name="M" xMin="83" yMin="0" xMax="570" yMax="731">
      <contour>
        <pt x="345" y="279" on="1"/>
        <pt x="335" y="260" on="0"/>
        <pt x="326" y="260" on="1"/>
        <pt x="316" y="260" on="0"/>
        <pt x="307" y="279" on="1"/>
        <pt x="119" y="643" on="1"/>
        <pt x="119" y="18" on="1"/>
        <pt x="119" y="9" on="0"/>
        <pt x="108" y="0" on="0"/>
        <pt x="101" y="0" on="1"/>
        <pt x="94" y="0" on="0"/>
        <pt x="83" y="9" on="0"/>
        <pt x="83" y="18" on="1"/>
        <pt x="83" y="714" on="1"/>
        <pt x="83" y="724" on="0"/>
        <pt x="93" y="731" on="0"/>
        <pt x="101" y="731" on="1"/>
        <pt x="106" y="731" on="0"/>
        <pt x="115" y="722" on="0"/>
        <pt x="124" y="710" on="0"/>
        <pt x="130" y="698" on="0"/>
        <pt x="132" y="695" on="1"/>
        <pt x="326" y="313" on="1"/>
        <pt x="521" y="695" on="1"/>
        <pt x="523" y="698" on="0"/>
        <pt x="529" y="710" on="0"/>
        <pt x="538" y="722" on="0"/>
        <pt x="547" y="731" on="0"/>
        <pt x="552" y="731" on="1"/>
        <pt x="560" y="731" on="0"/>
        <pt x="570" y="724" on="0"/>
        <pt x="570" y="714" on="1"/>
        <pt x="570" y="18" on="1"/>
        <pt x="570" y="9" on="0"/>
        <pt x="559" y="0" on="0"/>
        <pt x="552" y="0" on="1"/>
        <pt x="545" y="0" on="0"/>
        <pt x="534" y="9" on="0"/>
        <pt x="534" y="18" on="1"/>
        <pt x="534" y="643" on="1"/>
      </contour>
    </TTGlyph>
    <TTGlyph name="N" xMin="83" yMin="0" xMax="474" yMax="731">
      <contour>
        <pt x="438" y="89" on="1"/>
        <pt x="438" y="714" on="1"/>
        <pt x="438" y="723" on="0"/>
        <pt x="449" y="731" on="0"/>
        <pt x="456" y="731" on="1"/>
        <pt x="463" y="731" on="0"/>
        <pt x="474" y="723" on="0"/>
        <pt x="474" y="714" on="1"/>
        <pt x="474" y="18" on="1"/>
        <pt x="474" y="9" on="0"/>
        <pt x="463" y="0" on="0"/>
        <pt x="456" y="0" on="1"/>
        <pt x="446" y="0" on="0"/>
        <pt x="432" y="25" on="0"/>
        <pt x="427" y="36" on="1"/>
        <pt x="119" y="643" on="1"/>
        <pt x="119" y="18" on="1"/>
        <pt x="119" y="9" on="0"/>
        <pt x="108" y="0" on="0"/>
        <pt x="101" y="0" on="1"/>
        <pt x="94" y="0" on="0"/>
        <pt x="83" y="9" on="0"/>
        <pt x="83" y="18" on="1"/>
        <pt x="83" y="714" on="1"/>
        <pt x="83" y="724" on="0"/>
        <pt x="93" y="731" on="0"/>
        <pt x="101" y="731" on="1"/>
        <pt x="106" y="731" on="0"/>
        <pt x="115" y="722" on="0"/>
        <pt x="124" y="710" on="0"/>
        <pt x="130" y="698" on="0"/>
        <pt x="132" y="695" on="1"/>
      </contour>
    </TTGlyph>
    <TTGlyph name="Nacute" xMin="83" yMin="0" xMax="474" yMax="953">
      <contour>
        <pt x="438" y="89" on="1"/>
        <pt x="438" y="714" on="1"/>
        <pt x="438" y="723" on="0"/>
        <pt x="449" y="731" on="0"/>
        <pt x="456" y="731" on="1"/>
        <pt x="463" y="731" on="0"/>
        <pt x="474" y="723" on="0"/>
        <pt x="474" y="714" on="1"/>
        <pt x="474" y="18" on="1"/>
        <pt x="474" y="9" on="0"/>
        <pt x="463" y="0" on="0"/>
        <pt x="456" y="0" on="1"/>
        <pt x="446" y="0" on="0"/>
        <pt x="432" y="25" on="0"/>
        <pt x="427" y="36" on="1"/>
        <pt x="119" y="643" on="1"/>
        <pt x="119" y="18" on="1"/>
        <pt x="119" y="9" on="0"/>
        <pt x="108" y="0" on="0"/>
        <pt x="101" y="0" on="1"/>
        <pt x="94" y="0" on="0"/>
        <pt x="83" y="9" on="0"/>
        <pt x="83" y="18" on="1"/>
        <pt x="83" y="714" on="1"/>
        <pt x="83" y="724" on="0"/>
        <pt x="93" y="731" on="0"/>
        <pt x="101" y="731" on="1"/>
        <pt x="106" y="731" on="0"/>
        <pt x="115" y="722" on="0"/>
        <pt x="124" y="710" on="0"/>
        <pt x="130" y="698" on="0"/>
        <pt x="132" y="695" on="1"/>
      </contour>
      <contour>
        <pt x="240" y="863" on="1"/>
        <pt x="235" y="860" on="0"/>
        <pt x="231" y="860" on="1"/>
        <pt x="223" y="860" on="0"/>
        <pt x="212" y="870" on="0"/>
        <pt x="212" y="878" on="1"/>
        <pt x="212" y="887" on="0"/>
        <pt x="220" y="891" on="1"/>
        <pt x="322" y="951" on="1"/>
        <pt x="326" y="953" on="0"/>
        <pt x="329" y="953" on="1"/>
        <pt x="337" y="953" on="0"/>
        <pt x="345" y="942" on="0"/>
        <pt x="345" y="935" on="1"/>
        <pt x="345" y="923" on="0"/>
        <pt x="335" y="917" on="1"/>
      </contour>
    </TTGlyph>
    <TTGlyph name="Ncaron" xMin="83" yMin="0" xMax="474" yMax="990">
      <contour>
        <pt x="438" y="89" on="1"/>
        <pt x="438" y="714" on="1"/>
        <pt x="438" y="723" on="0"/>
        <pt x="449" y="731" on="0"/>
        <pt x="456" y="731" on="1"/>
        <pt x="463" y="731" on="0"/>
        <pt x="474" y="723" on="0"/>
        <pt x="474" y="714" on="1"/>
        <pt x="474" y="18" on="1"/>
        <pt x="474" y="9" on="0"/>
        <pt x="463" y="0" on="0"/>
        <pt x="456" y="0" on="1"/>
        <pt x="446" y="0" on="0"/>
        <pt x="432" y="25" on="0"/>
        <pt x="427" y="36" on="1"/>
        <pt x="119" y="643" on="1"/>
        <pt x="119" y="18" on="1"/>
        <pt x="119" y="9" on="0"/>
        <pt x="108" y="0" on="0"/>
        <pt x="101" y="0" on="1"/>
        <pt x="94" y="0" on="0"/>
        <pt x="83" y="9" on="0"/>
        <pt x="83" y="18" on="1"/>
        <pt x="83" y="714" on="1"/>
        <pt x="83" y="724" on="0"/>
        <pt x="93" y="731" on="0"/>
        <pt x="101" y="731" on="1"/>
        <pt x="106" y="731" on="0"/>
        <pt x="115" y="722" on="0"/>
        <pt x="124" y="710" on="0"/>
        <pt x="130" y="698" on="0"/>
        <pt x="132" y="695" on="1"/>
      </contour>
      <contour>
        <pt x="298" y="858" on="1"/>
        <pt x="287" y="847" on="0"/>
        <pt x="277" y="847" on="1"/>
        <pt x="265" y="847" on="0"/>
        <pt x="256" y="858" on="1"/>
        <pt x="156" y="959" on="1"/>
        <pt x="148" y="969" on="0"/>
        <pt x="148" y="975" on="1"/>
        <pt x="148" y="980" on="0"/>
        <pt x="156" y="990" on="0"/>
        <pt x="163" y="990" on="1"/>
        <pt x="172" y="990" on="0"/>
        <pt x="179" y="982" on="1"/>
        <pt x="277" y="879" on="1"/>
        <pt x="375" y="982" on="1"/>
        <pt x="382" y="990" on="0"/>
        <pt x="391" y="990" on="1"/>
        <pt x="398" y="990" on="0"/>
        <pt x="406" y="980" on="0"/>
        <pt x="406" y="975" on="1"/>
        <pt x="406" y="969" on="0"/>
        <pt x="398" y="959" on="1"/>
      </contour>
    </TTGlyph>
    <TTGlyph name="Ncommaaccent" xMin="83" yMin="-141" xMax="474" yMax="731">
      <contour>
        <pt x="438" y="89" on="1"/>
        <pt x="438" y="714" on="1"/>
        <pt x="438" y="723" on="0"/>
        <pt x="449" y="731" on="0"/>
        <pt x="456" y="731" on="1"/>
        <pt x="463" y="731" on="0"/>
        <pt x="474" y="723" on="0"/>
        <pt x="474" y="714" on="1"/>
        <pt x="474" y="18" on="1"/>
        <pt x="474" y="9" on="0"/>
        <pt x="463" y="0" on="0"/>
        <pt x="456" y="0" on="1"/>
        <pt x="446" y="0" on="0"/>
        <pt x="432" y="25" on="0"/>
        <pt x="427" y="36" on="1"/>
        <pt x="119" y="643" on="1"/>
        <pt x="119" y="18" on="1"/>
        <pt x="119" y="9" on="0"/>
        <pt x="108" y="0" on="0"/>
        <pt x="101" y="0" on="1"/>
        <pt x="94" y="0" on="0"/>
        <pt x="83" y="9" on="0"/>
        <pt x="83" y="18" on="1"/>
        <pt x="83" y="714" on="1"/>
        <pt x="83" y="724" on="0"/>
        <pt x="93" y="731" on="0"/>
        <pt x="101" y="731" on="1"/>
        <pt x="106" y="731" on="0"/>
        <pt x="115" y="722" on="0"/>
        <pt x="124" y="710" on="0"/>
        <pt x="130" y="698" on="0"/>
        <pt x="132" y="695" on="1"/>
      </contour>
      <contour>
        <pt x="237" y="-138" on="1"/>
        <pt x="232" y="-141" on="0"/>
        <pt x="228" y="-141" on="1"/>
        <pt x="220" y="-141" on="0"/>
        <pt x="209" y="-131" on="0"/>
        <pt x="209" y="-123" on="1"/>
        <pt x="209" y="-114" on="0"/>
        <pt x="217" y="-110" on="1"/>
        <pt x="319" y="-50" on="1"/>
        <pt x="323" y="-48" on="0"/>
        <pt x="326" y="-48" on="1"/>
        <pt x="334" y="-48" on="0"/>
        <pt x="342" y="-59" on="0"/>
        <pt x="342" y="-66" on="1"/>
        <pt x="342" y="-78" on="0"/>
        <pt x="332" y="-84" on="1"/>
      </contour>
    </TTGlyph>
    <TTGlyph name="Ntilde" xMin="83" yMin="0" xMax="474" yMax="949">
      <contour>
        <pt x="438" y="89" on="1"/>
        <pt x="438" y="714" on="1"/>
        <pt x="438" y="723" on="0"/>
        <pt x="449" y="731" on="0"/>
        <pt x="456" y="731" on="1"/>
        <pt x="463" y="731" on="0"/>
        <pt x="474" y="723" on="0"/>
        <pt x="474" y="714" on="1"/>
        <pt x="474" y="18" on="1"/>
        <pt x="474" y="9" on="0"/>
        <pt x="463" y="0" on="0"/>
        <pt x="456" y="0" on="1"/>
        <pt x="446" y="0" on="0"/>
        <pt x="432" y="25" on="0"/>
        <pt x="427" y="36" on="1"/>
        <pt x="119" y="643" on="1"/>
        <pt x="119" y="18" on="1"/>
        <pt x="119" y="9" on="0"/>
        <pt x="108" y="0" on="0"/>
        <pt x="101" y="0" on="1"/>
        <pt x="94" y="0" on="0"/>
        <pt x="83" y="9" on="0"/>
        <pt x="83" y="18" on="1"/>
        <pt x="83" y="714" on="1"/>
        <pt x="83" y="724" on="0"/>
        <pt x="93" y="731" on="0"/>
        <pt x="101" y="731" on="1"/>
        <pt x="106" y="731" on="0"/>
        <pt x="115" y="722" on="0"/>
        <pt x="124" y="710" on="0"/>
        <pt x="130" y="698" on="0"/>
        <pt x="132" y="695" on="1"/>
      </contour>
      <contour>
        <pt x="347" y="912" on="1"/>
        <pt x="364" y="912" on="0"/>
        <pt x="384" y="922" on="0"/>
        <pt x="397" y="934" on="0"/>
        <pt x="406" y="944" on="0"/>
        <pt x="412" y="944" on="1"/>
        <pt x="417" y="944" on="0"/>
        <pt x="426" y="936" on="0"/>
        <pt x="426" y="929" on="1"/>
        <pt x="426" y="917" on="0"/>
        <pt x="409" y="899" on="0"/>
        <pt x="383" y="885" on="0"/>
        <pt x="354" y="878" on="0"/>
        <pt x="342" y="878" on="1"/>
        <pt x="324" y="878" on="0"/>
        <pt x="295" y="890" on="0"/>
        <pt x="266" y="903" on="0"/>
        <pt x="234" y="915" on="0"/>
        <pt x="213" y="915" on="1"/>
        <pt x="197" y="915" on="0"/>
        <pt x="175" y="904" on="0"/>
        <pt x="160" y="891" on="0"/>
        <pt x="149" y="880" on="0"/>
        <pt x="144" y="880" on="1"/>
        <pt x="131" y="880" on="0"/>
        <pt x="131" y="897" on="1"/>
        <pt x="131" y="907" on="0"/>
        <pt x="149" y="925" on="0"/>
        <pt x="175" y="940" on="0"/>
        <pt x="206" y="949" on="0"/>
        <pt x="220" y="949" on="1"/>
        <pt x="238" y="949" on="0"/>
        <pt x="268" y="937" on="0"/>
        <pt x="297" y="924" on="0"/>
        <pt x="328" y="912" on="0"/>
      </contour>
    </TTGlyph>
    <TTGlyph name="O" xMin="76" yMin="-6" xMax="467" yMax="731">
      <contour>
        <pt x="271" y="-6" on="1"/>
        <pt x="230" y="-6" on="0"/>
        <pt x="158" y="16" on="0"/>
        <pt x="106" y="65" on="0"/>
        <pt x="76" y="144" on="0"/>
        <pt x="76" y="200" on="1"/>
        <pt x="76" y="525" on="1"/>
        <pt x="76" y="581" on="0"/>
        <pt x="106" y="660" on="0"/>
        <pt x="158" y="709" on="0"/>
        <pt x="230" y="731" on="0"/>
        <pt x="271" y="731" on="1"/>
        <pt x="312" y="731" on="0"/>
        <pt x="384" y="709" on="0"/>
        <pt x="437" y="660" on="0"/>
        <pt x="467" y="581" on="0"/>
        <pt x="467" y="525" on="1"/>
        <pt x="467" y="200" on="1"/>
        <pt x="467" y="144" on="0"/>
        <pt x="437" y="65" on="0"/>
        <pt x="384" y="16" on="0"/>
        <pt x="312" y="-6" on="0"/>
      </contour>
      <contour>
        <pt x="431" y="525" on="1"/>
        <pt x="431" y="613" on="0"/>
        <pt x="346" y="695" on="0"/>
        <pt x="271" y="695" on="1"/>
        <pt x="196" y="695" on="0"/>
        <pt x="112" y="613" on="0"/>
        <pt x="112" y="525" on="1"/>
        <pt x="112" y="200" on="1"/>
        <pt x="112" y="112" on="0"/>
        <pt x="196" y="30" on="0"/>
        <pt x="271" y="30" on="1"/>
        <pt x="346" y="30" on="0"/>
        <pt x="431" y="112" on="0"/>
        <pt x="431" y="200" on="1"/>
      </contour>
    </TTGlyph>
    <TTGlyph name="OE" xMin="76" yMin="-6" xMax="821" yMax="731">
      <contour>
        <pt x="466" y="384" on="1"/>
        <pt x="626" y="384" on="1"/>
        <pt x="634" y="384" on="0"/>
        <pt x="643" y="373" on="0"/>
        <pt x="643" y="365" on="1"/>
        <pt x="643" y="359" on="0"/>
        <pt x="635" y="348" on="0"/>
        <pt x="626" y="348" on="1"/>
        <pt x="466" y="348" on="1"/>
        <pt x="466" y="36" on="1"/>
        <pt x="804" y="36" on="1"/>
        <pt x="812" y="36" on="0"/>
        <pt x="821" y="25" on="0"/>
        <pt x="821" y="17" on="1"/>
        <pt x="821" y="11" on="0"/>
        <pt x="813" y="0" on="0"/>
        <pt x="804" y="0" on="1"/>
        <pt x="450" y="0" on="1"/>
        <pt x="443" y="0" on="0"/>
        <pt x="432" y="9" on="0"/>
        <pt x="432" y="18" on="1"/>
        <pt x="432" y="66" on="1"/>
        <pt x="406" y="28" on="0"/>
        <pt x="322" y="-6" on="0"/>
        <pt x="271" y="-6" on="1"/>
        <pt x="230" y="-6" on="0"/>
        <pt x="158" y="16" on="0"/>
        <pt x="106" y="65" on="0"/>
        <pt x="76" y="144" on="0"/>
        <pt x="76" y="200" on="1"/>
        <pt x="76" y="525" on="1"/>
        <pt x="76" y="581" on="0"/>
        <pt x="106" y="660" on="0"/>
        <pt x="158" y="709" on="0"/>
        <pt x="230" y="731" on="0"/>
        <pt x="271" y="731" on="1"/>
        <pt x="322" y="731" on="0"/>
        <pt x="406" y="697" on="0"/>
        <pt x="432" y="659" on="1"/>
        <pt x="432" y="713" on="1"/>
        <pt x="432" y="722" on="0"/>
        <pt x="443" y="731" on="0"/>
        <pt x="450" y="731" on="1"/>
        <pt x="804" y="731" on="1"/>
        <pt x="813" y="731" on="0"/>
        <pt x="821" y="720" on="0"/>
        <pt x="821" y="714" on="1"/>
        <pt x="821" y="706" on="0"/>
        <pt x="812" y="695" on="0"/>
        <pt x="804" y="695" on="1"/>
        <pt x="466" y="695" on="1"/>
      </contour>
      <contour>
        <pt x="431" y="525" on="1"/>
        <pt x="431" y="613" on="0"/>
        <pt x="346" y="695" on="0"/>
        <pt x="271" y="695" on="1"/>
        <pt x="196" y="695" on="0"/>
        <pt x="112" y="613" on="0"/>
        <pt x="112" y="525" on="1"/>
        <pt x="112" y="200" on="1"/>
        <pt x="112" y="112" on="0"/>
        <pt x="196" y="30" on="0"/>
        <pt x="271" y="30" on="1"/>
        <pt x="346" y="30" on="0"/>
        <pt x="431" y="112" on="0"/>
        <pt x="431" y="200" on="1"/>
      </contour>
    </TTGlyph>
    <TTGlyph name="Oacute" xMin="76" yMin="-6" xMax="467" yMax="953">
      <contour>
        <pt x="271" y="-6" on="1"/>
        <pt x="230" y="-6" on="0"/>
        <pt x="158" y="16" on="0"/>
        <pt x="106" y="65" on="0"/>
        <pt x="76" y="144" on="0"/>
        <pt x="76" y="200" on="1"/>
        <pt x="76" y="525" on="1"/>
        <pt x="76" y="581" on="0"/>
        <pt x="106" y="660" on="0"/>
        <pt x="158" y="709" on="0"/>
        <pt x="230" y="731" on="0"/>
        <pt x="271" y="731" on="1"/>
        <pt x="312" y="731" on="0"/>
        <pt x="384" y="709" on="0"/>
        <pt x="437" y="660" on="0"/>
        <pt x="467" y="581" on="0"/>
        <pt x="467" y="525" on="1"/>
        <pt x="467" y="200" on="1"/>
        <pt x="467" y="144" on="0"/>
        <pt x="437" y="65" on="0"/>
        <pt x="384" y="16" on="0"/>
        <pt x="312" y="-6" on="0"/>
      </contour>
      <contour>
        <pt x="431" y="525" on="1"/>
        <pt x="431" y="613" on="0"/>
        <pt x="346" y="695" on="0"/>
        <pt x="271" y="695" on="1"/>
        <pt x="196" y="695" on="0"/>
        <pt x="112" y="613" on="0"/>
        <pt x="112" y="525" on="1"/>
        <pt x="112" y="200" on="1"/>
        <pt x="112" y="112" on="0"/>
        <pt x="196" y="30" on="0"/>
        <pt x="271" y="30" on="1"/>
        <pt x="346" y="30" on="0"/>
        <pt x="431" y="112" on="0"/>
        <pt x="431" y="200" on="1"/>
      </contour>
      <contour>
        <pt x="233" y="863" on="1"/>
        <pt x="228" y="860" on="0"/>
        <pt x="224" y="860" on="1"/>
        <pt x="216" y="860" on="0"/>
        <pt x="205" y="870" on="0"/>
        <pt x="205" y="878" on="1"/>
        <pt x="205" y="887" on="0"/>
        <pt x="213" y="891" on="1"/>
        <pt x="315" y="951" on="1"/>
        <pt x="319" y="953" on="0"/>
        <pt x="322" y="953" on="1"/>
        <pt x="330" y="953" on="0"/>
        <pt x="338" y="942" on="0"/>
        <pt x="338" y="935" on="1"/>
        <pt x="338" y="923" on="0"/>
        <pt x="328" y="917" on="1"/>
      </contour>
    </TTGlyph>
    <TTGlyph name="Obreve" xMin="76" yMin="-6" xMax="467" yMax="969">
      <contour>
        <pt x="271" y="-6" on="1"/>
        <pt x="230" y="-6" on="0"/>
        <pt x="158" y="16" on="0"/>
        <pt x="106" y="65" on="0"/>
        <pt x="76" y="144" on="0"/>
        <pt x="76" y="200" on="1"/>
        <pt x="76" y="525" on="1"/>
        <pt x="76" y="581" on="0"/>
        <pt x="106" y="660" on="0"/>
        <pt x="158" y="709" on="0"/>
        <pt x="230" y="731" on="0"/>
        <pt x="271" y="731" on="1"/>
        <pt x="312" y="731" on="0"/>
        <pt x="384" y="709" on="0"/>
        <pt x="437" y="660" on="0"/>
        <pt x="467" y="581" on="0"/>
        <pt x="467" y="525" on="1"/>
        <pt x="467" y="200" on="1"/>
        <pt x="467" y="144" on="0"/>
        <pt x="437" y="65" on="0"/>
        <pt x="384" y="16" on="0"/>
        <pt x="312" y="-6" on="0"/>
      </contour>
      <contour>
        <pt x="431" y="525" on="1"/>
        <pt x="431" y="613" on="0"/>
        <pt x="346" y="695" on="0"/>
        <pt x="271" y="695" on="1"/>
        <pt x="196" y="695" on="0"/>
        <pt x="112" y="613" on="0"/>
        <pt x="112" y="525" on="1"/>
        <pt x="112" y="200" on="1"/>
        <pt x="112" y="112" on="0"/>
        <pt x="196" y="30" on="0"/>
        <pt x="271" y="30" on="1"/>
        <pt x="346" y="30" on="0"/>
        <pt x="431" y="112" on="0"/>
        <pt x="431" y="200" on="1"/>
      </contour>
      <contour>
        <pt x="380" y="969" on="1"/>
        <pt x="380" y="947" on="0"/>
        <pt x="362" y="907" on="0"/>
        <pt x="332" y="877" on="0"/>
        <pt x="292" y="860" on="0"/>
        <pt x="271" y="860" on="1"/>
        <pt x="249" y="860" on="0"/>
        <pt x="210" y="877" on="0"/>
        <pt x="180" y="907" on="0"/>
        <pt x="162" y="947" on="0"/>
        <pt x="162" y="969" on="1"/>
        <pt x="194" y="969" on="1"/>
        <pt x="194" y="934" on="0"/>
        <pt x="239" y="886" on="0"/>
        <pt x="271" y="886" on="1"/>
        <pt x="302" y="886" on="0"/>
        <pt x="347" y="934" on="0"/>
        <pt x="347" y="969" on="1"/>
      </contour>
    </TTGlyph>
    <TTGlyph name="Ocircumflex" xMin="76" yMin="-6" xMax="467" yMax="953">
      <contour>
        <pt x="271" y="-6" on="1"/>
        <pt x="230" y="-6" on="0"/>
        <pt x="158" y="16" on="0"/>
        <pt x="106" y="65" on="0"/>
        <pt x="76" y="144" on="0"/>
        <pt x="76" y="200" on="1"/>
        <pt x="76" y="525" on="1"/>
        <pt x="76" y="581" on="0"/>
        <pt x="106" y="660" on="0"/>
        <pt x="158" y="709" on="0"/>
        <pt x="230" y="731" on="0"/>
        <pt x="271" y="731" on="1"/>
        <pt x="312" y="731" on="0"/>
        <pt x="384" y="709" on="0"/>
        <pt x="437" y="660" on="0"/>
        <pt x="467" y="581" on="0"/>
        <pt x="467" y="525" on="1"/>
        <pt x="467" y="200" on="1"/>
        <pt x="467" y="144" on="0"/>
        <pt x="437" y="65" on="0"/>
        <pt x="384" y="16" on="0"/>
        <pt x="312" y="-6" on="0"/>
      </contour>
      <contour>
        <pt x="431" y="525" on="1"/>
        <pt x="431" y="613" on="0"/>
        <pt x="346" y="695" on="0"/>
        <pt x="271" y="695" on="1"/>
        <pt x="196" y="695" on="0"/>
        <pt x="112" y="613" on="0"/>
        <pt x="112" y="525" on="1"/>
        <pt x="112" y="200" on="1"/>
        <pt x="112" y="112" on="0"/>
        <pt x="196" y="30" on="0"/>
        <pt x="271" y="30" on="1"/>
        <pt x="346" y="30" on="0"/>
        <pt x="431" y="112" on="0"/>
        <pt x="431" y="200" on="1"/>
      </contour>
      <contour>
        <pt x="167" y="862" on="1"/>
        <pt x="165" y="861" on="0"/>
        <pt x="161" y="859" on="0"/>
        <pt x="159" y="859" on="1"/>
        <pt x="152" y="859" on="0"/>
        <pt x="141" y="870" on="0"/>
        <pt x="141" y="878" on="1"/>
        <pt x="141" y="887" on="0"/>
        <pt x="150" y="892" on="1"/>
        <pt x="254" y="948" on="1"/>
        <pt x="262" y="953" on="0"/>
        <pt x="271" y="953" on="1"/>
        <pt x="280" y="953" on="0"/>
        <pt x="288" y="948" on="1"/>
        <pt x="392" y="893" on="1"/>
        <pt x="401" y="888" on="0"/>
        <pt x="401" y="876" on="1"/>
        <pt x="401" y="869" on="0"/>
        <pt x="391" y="860" on="0"/>
        <pt x="384" y="860" on="1"/>
        <pt x="382" y="860" on="0"/>
        <pt x="377" y="862" on="0"/>
        <pt x="375" y="863" on="1"/>
        <pt x="271" y="918" on="1"/>
      </contour>
    </TTGlyph>
    <TTGlyph name="Odieresis" xMin="76" yMin="-6" xMax="467" yMax="918">
      <contour>
        <pt x="271" y="-6" on="1"/>
        <pt x="230" y="-6" on="0"/>
        <pt x="158" y="16" on="0"/>
        <pt x="106" y="65" on="0"/>
        <pt x="76" y="144" on="0"/>
        <pt x="76" y="200" on="1"/>
        <pt x="76" y="525" on="1"/>
        <pt x="76" y="581" on="0"/>
        <pt x="106" y="660" on="0"/>
        <pt x="158" y="709" on="0"/>
        <pt x="230" y="731" on="0"/>
        <pt x="271" y="731" on="1"/>
        <pt x="312" y="731" on="0"/>
        <pt x="384" y="709" on="0"/>
        <pt x="437" y="660" on="0"/>
        <pt x="467" y="581" on="0"/>
        <pt x="467" y="525" on="1"/>
        <pt x="467" y="200" on="1"/>
        <pt x="467" y="144" on="0"/>
        <pt x="437" y="65" on="0"/>
        <pt x="384" y="16" on="0"/>
        <pt x="312" y="-6" on="0"/>
      </contour>
      <contour>
        <pt x="431" y="525" on="1"/>
        <pt x="431" y="613" on="0"/>
        <pt x="346" y="695" on="0"/>
        <pt x="271" y="695" on="1"/>
        <pt x="196" y="695" on="0"/>
        <pt x="112" y="613" on="0"/>
        <pt x="112" y="525" on="1"/>
        <pt x="112" y="200" on="1"/>
        <pt x="112" y="112" on="0"/>
        <pt x="196" y="30" on="0"/>
        <pt x="271" y="30" on="1"/>
        <pt x="346" y="30" on="0"/>
        <pt x="431" y="112" on="0"/>
        <pt x="431" y="200" on="1"/>
      </contour>
      <contour>
        <pt x="216" y="918" on="1"/>
        <pt x="229" y="918" on="0"/>
        <pt x="245" y="902" on="0"/>
        <pt x="245" y="889" on="1"/>
        <pt x="245" y="876" on="0"/>
        <pt x="229" y="859" on="0"/>
        <pt x="216" y="859" on="1"/>
        <pt x="202" y="859" on="0"/>
        <pt x="186" y="876" on="0"/>
        <pt x="186" y="889" on="1"/>
        <pt x="186" y="902" on="0"/>
        <pt x="202" y="918" on="0"/>
      </contour>
      <contour>
        <pt x="327" y="918" on="1"/>
        <pt x="340" y="918" on="0"/>
        <pt x="356" y="902" on="0"/>
        <pt x="356" y="889" on="1"/>
        <pt x="356" y="876" on="0"/>
        <pt x="340" y="859" on="0"/>
        <pt x="327" y="859" on="1"/>
        <pt x="313" y="859" on="0"/>
        <pt x="297" y="876" on="0"/>
        <pt x="297" y="889" on="1"/>
        <pt x="297" y="902" on="0"/>
        <pt x="313" y="918" on="0"/>
      </contour>
    </TTGlyph>
    <TTGlyph name="Ograve" xMin="76" yMin="-6" xMax="467" yMax="953">
      <contour>
        <pt x="271" y="-6" on="1"/>
        <pt x="230" y="-6" on="0"/>
        <pt x="158" y="16" on="0"/>
        <pt x="106" y="65" on="0"/>
        <pt x="76" y="144" on="0"/>
        <pt x="76" y="200" on="1"/>
        <pt x="76" y="525" on="1"/>
        <pt x="76" y="581" on="0"/>
        <pt x="106" y="660" on="0"/>
        <pt x="158" y="709" on="0"/>
        <pt x="230" y="731" on="0"/>
        <pt x="271" y="731" on="1"/>
        <pt x="312" y="731" on="0"/>
        <pt x="384" y="709" on="0"/>
        <pt x="437" y="660" on="0"/>
        <pt x="467" y="581" on="0"/>
        <pt x="467" y="525" on="1"/>
        <pt x="467" y="200" on="1"/>
        <pt x="467" y="144" on="0"/>
        <pt x="437" y="65" on="0"/>
        <pt x="384" y="16" on="0"/>
        <pt x="312" y="-6" on="0"/>
      </contour>
      <contour>
        <pt x="431" y="525" on="1"/>
        <pt x="431" y="613" on="0"/>
        <pt x="346" y="695" on="0"/>
        <pt x="271" y="695" on="1"/>
        <pt x="196" y="695" on="0"/>
        <pt x="112" y="613" on="0"/>
        <pt x="112" y="525" on="1"/>
        <pt x="112" y="200" on="1"/>
        <pt x="112" y="112" on="0"/>
        <pt x="196" y="30" on="0"/>
        <pt x="271" y="30" on="1"/>
        <pt x="346" y="30" on="0"/>
        <pt x="431" y="112" on="0"/>
        <pt x="431" y="200" on="1"/>
      </contour>
      <contour>
        <pt x="215" y="917" on="1"/>
        <pt x="205" y="923" on="0"/>
        <pt x="205" y="935" on="1"/>
        <pt x="205" y="942" on="0"/>
        <pt x="213" y="953" on="0"/>
        <pt x="221" y="953" on="1"/>
        <pt x="224" y="953" on="0"/>
        <pt x="228" y="951" on="1"/>
        <pt x="330" y="891" on="1"/>
        <pt x="338" y="887" on="0"/>
        <pt x="338" y="878" on="1"/>
        <pt x="338" y="870" on="0"/>
        <pt x="327" y="860" on="0"/>
        <pt x="319" y="860" on="1"/>
        <pt x="314" y="860" on="0"/>
        <pt x="310" y="863" on="1"/>
      </contour>
    </TTGlyph>
    <TTGlyph name="Ohungarumlaut" xMin="76" yMin="-6" xMax="467" yMax="953">
      <contour>
        <pt x="271" y="-6" on="1"/>
        <pt x="230" y="-6" on="0"/>
        <pt x="158" y="16" on="0"/>
        <pt x="106" y="65" on="0"/>
        <pt x="76" y="144" on="0"/>
        <pt x="76" y="200" on="1"/>
        <pt x="76" y="525" on="1"/>
        <pt x="76" y="581" on="0"/>
        <pt x="106" y="660" on="0"/>
        <pt x="158" y="709" on="0"/>
        <pt x="230" y="731" on="0"/>
        <pt x="271" y="731" on="1"/>
        <pt x="312" y="731" on="0"/>
        <pt x="384" y="709" on="0"/>
        <pt x="437" y="660" on="0"/>
        <pt x="467" y="581" on="0"/>
        <pt x="467" y="525" on="1"/>
        <pt x="467" y="200" on="1"/>
        <pt x="467" y="144" on="0"/>
        <pt x="437" y="65" on="0"/>
        <pt x="384" y="16" on="0"/>
        <pt x="312" y="-6" on="0"/>
      </contour>
      <contour>
        <pt x="431" y="525" on="1"/>
        <pt x="431" y="613" on="0"/>
        <pt x="346" y="695" on="0"/>
        <pt x="271" y="695" on="1"/>
        <pt x="196" y="695" on="0"/>
        <pt x="112" y="613" on="0"/>
        <pt x="112" y="525" on="1"/>
        <pt x="112" y="200" on="1"/>
        <pt x="112" y="112" on="0"/>
        <pt x="196" y="30" on="0"/>
        <pt x="271" y="30" on="1"/>
        <pt x="346" y="30" on="0"/>
        <pt x="431" y="112" on="0"/>
        <pt x="431" y="200" on="1"/>
      </contour>
      <contour>
        <pt x="199" y="863" on="1"/>
        <pt x="194" y="860" on="0"/>
        <pt x="190" y="860" on="1"/>
        <pt x="182" y="860" on="0"/>
        <pt x="171" y="870" on="0"/>
        <pt x="171" y="878" on="1"/>
        <pt x="171" y="887" on="0"/>
        <pt x="179" y="891" on="1"/>
        <pt x="281" y="951" on="1"/>
        <pt x="285" y="953" on="0"/>
        <pt x="288" y="953" on="1"/>
        <pt x="296" y="953" on="0"/>
        <pt x="304" y="942" on="0"/>
        <pt x="304" y="935" on="1"/>
        <pt x="304" y="923" on="0"/>
        <pt x="294" y="917" on="1"/>
      </contour>
      <contour>
        <pt x="346" y="863" on="1"/>
        <pt x="341" y="860" on="0"/>
        <pt x="337" y="860" on="1"/>
        <pt x="329" y="860" on="0"/>
        <pt x="318" y="870" on="0"/>
        <pt x="318" y="878" on="1"/>
        <pt x="318" y="887" on="0"/>
        <pt x="326" y="891" on="1"/>
        <pt x="428" y="951" on="1"/>
        <pt x="432" y="953" on="0"/>
        <pt x="435" y="953" on="1"/>
        <pt x="443" y="953" on="0"/>
        <pt x="451" y="942" on="0"/>
        <pt x="451" y="935" on="1"/>
        <pt x="451" y="923" on="0"/>
        <pt x="441" y="917" on="1"/>
      </contour>
    </TTGlyph>
    <TTGlyph name="Omacron" xMin="76" yMin="-6" xMax="467" yMax="941">
      <contour>
        <pt x="271" y="-6" on="1"/>
        <pt x="230" y="-6" on="0"/>
        <pt x="158" y="16" on="0"/>
        <pt x="106" y="65" on="0"/>
        <pt x="76" y="144" on="0"/>
        <pt x="76" y="200" on="1"/>
        <pt x="76" y="525" on="1"/>
        <pt x="76" y="581" on="0"/>
        <pt x="106" y="660" on="0"/>
        <pt x="158" y="709" on="0"/>
        <pt x="230" y="731" on="0"/>
        <pt x="271" y="731" on="1"/>
        <pt x="312" y="731" on="0"/>
        <pt x="384" y="709" on="0"/>
        <pt x="437" y="660" on="0"/>
        <pt x="467" y="581" on="0"/>
        <pt x="467" y="525" on="1"/>
        <pt x="467" y="200" on="1"/>
        <pt x="467" y="144" on="0"/>
        <pt x="437" y="65" on="0"/>
        <pt x="384" y="16" on="0"/>
        <pt x="312" y="-6" on="0"/>
      </contour>
      <contour>
        <pt x="431" y="525" on="1"/>
        <pt x="431" y="613" on="0"/>
        <pt x="346" y="695" on="0"/>
        <pt x="271" y="695" on="1"/>
        <pt x="196" y="695" on="0"/>
        <pt x="112" y="613" on="0"/>
        <pt x="112" y="525" on="1"/>
        <pt x="112" y="200" on="1"/>
        <pt x="112" y="112" on="0"/>
        <pt x="196" y="30" on="0"/>
        <pt x="271" y="30" on="1"/>
        <pt x="346" y="30" on="0"/>
        <pt x="431" y="112" on="0"/>
        <pt x="431" y="200" on="1"/>
      </contour>
      <contour>
        <pt x="144" y="923" on="1"/>
        <pt x="144" y="931" on="0"/>
        <pt x="153" y="941" on="0"/>
        <pt x="161" y="941" on="1"/>
        <pt x="381" y="941" on="1"/>
        <pt x="388" y="941" on="0"/>
        <pt x="399" y="931" on="0"/>
        <pt x="399" y="923" on="1"/>
        <pt x="399" y="915" on="0"/>
        <pt x="388" y="906" on="0"/>
        <pt x="381" y="906" on="1"/>
        <pt x="161" y="906" on="1"/>
        <pt x="144" y="906" on="0"/>
      </contour>
    </TTGlyph>
    <TTGlyph name="Omega" xMin="60" yMin="0" xMax="474" yMax="731">
      <contour>
        <pt x="315" y="103" on="1"/>
        <pt x="369" y="115" on="0"/>
        <pt x="426" y="196" on="0"/>
        <pt x="426" y="268" on="1"/>
        <pt x="426" y="525" on="1"/>
        <pt x="426" y="613" on="0"/>
        <pt x="342" y="695" on="0"/>
        <pt x="267" y="695" on="1"/>
        <pt x="192" y="695" on="0"/>
        <pt x="108" y="613" on="0"/>
        <pt x="108" y="525" on="1"/>
        <pt x="108" y="268" on="1"/>
        <pt x="108" y="196" on="0"/>
        <pt x="165" y="115" on="0"/>
        <pt x="219" y="103" on="1"/>
        <pt x="219" y="0" on="1"/>
        <pt x="77" y="0" on="1"/>
        <pt x="69" y="0" on="0"/>
        <pt x="60" y="10" on="0"/>
        <pt x="60" y="18" on="1"/>
        <pt x="60" y="26" on="0"/>
        <pt x="70" y="35" on="0"/>
        <pt x="77" y="35" on="1"/>
        <pt x="184" y="35" on="1"/>
        <pt x="184" y="75" on="1"/>
        <pt x="133" y="93" on="0"/>
        <pt x="72" y="186" on="0"/>
        <pt x="72" y="268" on="1"/>
        <pt x="72" y="525" on="1"/>
        <pt x="72" y="581" on="0"/>
        <pt x="102" y="660" on="0"/>
        <pt x="154" y="709" on="0"/>
        <pt x="226" y="731" on="0"/>
        <pt x="267" y="731" on="1"/>
        <pt x="308" y="731" on="0"/>
        <pt x="379" y="709" on="0"/>
        <pt x="432" y="660" on="0"/>
        <pt x="462" y="581" on="0"/>
        <pt x="462" y="525" on="1"/>
        <pt x="462" y="268" on="1"/>
        <pt x="462" y="186" on="0"/>
        <pt x="400" y="93" on="0"/>
        <pt x="350" y="75" on="1"/>
        <pt x="350" y="35" on="1"/>
        <pt x="457" y="35" on="1"/>
        <pt x="464" y="35" on="0"/>
        <pt x="474" y="26" on="0"/>
        <pt x="474" y="18" on="1"/>
        <pt x="474" y="10" on="0"/>
        <pt x="465" y="0" on="0"/>
        <pt x="457" y="0" on="1"/>
        <pt x="315" y="0" on="1"/>
      </contour>
    </TTGlyph>
    <TTGlyph name="Oslash" xMin="59" yMin="-20" xMax="483" yMax="768">
      <contour>
        <pt x="436" y="653" on="1"/>
        <pt x="450" y="629" on="0"/>
        <pt x="467" y="566" on="0"/>
        <pt x="467" y="525" on="1"/>
        <pt x="467" y="200" on="1"/>
        <pt x="467" y="144" on="0"/>
        <pt x="437" y="65" on="0"/>
        <pt x="384" y="16" on="0"/>
        <pt x="312" y="-6" on="0"/>
        <pt x="271" y="-6" on="1"/>
        <pt x="226" y="-6" on="0"/>
        <pt x="149" y="20" on="0"/>
        <pt x="123" y="50" on="1"/>
        <pt x="92" y="-9" on="1"/>
        <pt x="86" y="-20" on="0"/>
        <pt x="75" y="-20" on="1"/>
        <pt x="69" y="-20" on="0"/>
        <pt x="59" y="-12" on="0"/>
        <pt x="59" y="-5" on="1"/>
        <pt x="59" y="1" on="0"/>
        <pt x="61" y="4" on="1"/>
        <pt x="101" y="81" on="1"/>
        <pt x="76" y="129" on="0"/>
        <pt x="76" y="200" on="1"/>
        <pt x="76" y="525" on="1"/>
        <pt x="76" y="581" on="0"/>
        <pt x="106" y="660" on="0"/>
        <pt x="158" y="709" on="0"/>
        <pt x="230" y="731" on="0"/>
        <pt x="271" y="731" on="1"/>
        <pt x="313" y="731" on="0"/>
        <pt x="385" y="708" on="0"/>
        <pt x="412" y="682" on="1"/>
        <pt x="452" y="760" on="1"/>
        <pt x="456" y="768" on="0"/>
        <pt x="465" y="768" on="1"/>
        <pt x="471" y="768" on="0"/>
        <pt x="483" y="757" on="0"/>
        <pt x="483" y="749" on="1"/>
        <pt x="483" y="744" on="0"/>
        <pt x="480" y="738" on="1"/>
      </contour>
      <contour>
        <pt x="431" y="525" on="1"/>
        <pt x="431" y="578" on="0"/>
        <pt x="415" y="613" on="1"/>
        <pt x="141" y="86" on="1"/>
        <pt x="161" y="57" on="0"/>
        <pt x="227" y="30" on="0"/>
        <pt x="271" y="30" on="1"/>
        <pt x="346" y="30" on="0"/>
        <pt x="431" y="112" on="0"/>
        <pt x="431" y="200" on="1"/>
      </contour>
      <contour>
        <pt x="112" y="200" on="1"/>
        <pt x="112" y="157" on="0"/>
        <pt x="123" y="124" on="1"/>
        <pt x="394" y="647" on="1"/>
        <pt x="352" y="695" on="0"/>
        <pt x="271" y="695" on="1"/>
        <pt x="196" y="695" on="0"/>
        <pt x="112" y="613" on="0"/>
        <pt x="112" y="525" on="1"/>
      </contour>
    </TTGlyph>
    <TTGlyph name="Oslashacute" xMin="59" yMin="-20" xMax="483" yMax="953">
      <contour>
        <pt x="436" y="653" on="1"/>
        <pt x="450" y="629" on="0"/>
        <pt x="467" y="566" on="0"/>
        <pt x="467" y="525" on="1"/>
        <pt x="467" y="200" on="1"/>
        <pt x="467" y="144" on="0"/>
        <pt x="437" y="65" on="0"/>
        <pt x="384" y="16" on="0"/>
        <pt x="312" y="-6" on="0"/>
        <pt x="271" y="-6" on="1"/>
        <pt x="226" y="-6" on="0"/>
        <pt x="149" y="20" on="0"/>
        <pt x="123" y="50" on="1"/>
        <pt x="92" y="-9" on="1"/>
        <pt x="86" y="-20" on="0"/>
        <pt x="75" y="-20" on="1"/>
        <pt x="69" y="-20" on="0"/>
        <pt x="59" y="-12" on="0"/>
        <pt x="59" y="-5" on="1"/>
        <pt x="59" y="1" on="0"/>
        <pt x="61" y="4" on="1"/>
        <pt x="101" y="81" on="1"/>
        <pt x="76" y="129" on="0"/>
        <pt x="76" y="200" on="1"/>
        <pt x="76" y="525" on="1"/>
        <pt x="76" y="581" on="0"/>
        <pt x="106" y="660" on="0"/>
        <pt x="158" y="709" on="0"/>
        <pt x="230" y="731" on="0"/>
        <pt x="271" y="731" on="1"/>
        <pt x="313" y="731" on="0"/>
        <pt x="385" y="708" on="0"/>
        <pt x="412" y="682" on="1"/>
        <pt x="452" y="760" on="1"/>
        <pt x="456" y="768" on="0"/>
        <pt x="465" y="768" on="1"/>
        <pt x="471" y="768" on="0"/>
        <pt x="483" y="757" on="0"/>
        <pt x="483" y="749" on="1"/>
        <pt x="483" y="744" on="0"/>
        <pt x="480" y="738" on="1"/>
      </contour>
      <contour>
        <pt x="431" y="525" on="1"/>
        <pt x="431" y="578" on="0"/>
        <pt x="415" y="613" on="1"/>
        <pt x="141" y="86" on="1"/>
        <pt x="161" y="57" on="0"/>
        <pt x="227" y="30" on="0"/>
        <pt x="271" y="30" on="1"/>
        <pt x="346" y="30" on="0"/>
        <pt x="431" y="112" on="0"/>
        <pt x="431" y="200" on="1"/>
      </contour>
      <contour>
        <pt x="112" y="200" on="1"/>
        <pt x="112" y="157" on="0"/>
        <pt x="123" y="124" on="1"/>
        <pt x="394" y="647" on="1"/>
        <pt x="352" y="695" on="0"/>
        <pt x="271" y="695" on="1"/>
        <pt x="196" y="695" on="0"/>
        <pt x="112" y="613" on="0"/>
        <pt x="112" y="525" on="1"/>
      </contour>
      <contour>
        <pt x="233" y="863" on="1"/>
        <pt x="228" y="860" on="0"/>
        <pt x="224" y="860" on="1"/>
        <pt x="216" y="860" on="0"/>
        <pt x="205" y="870" on="0"/>
        <pt x="205" y="878" on="1"/>
        <pt x="205" y="887" on="0"/>
        <pt x="213" y="891" on="1"/>
        <pt x="315" y="951" on="1"/>
        <pt x="319" y="953" on="0"/>
        <pt x="322" y="953" on="1"/>
        <pt x="330" y="953" on="0"/>
        <pt x="338" y="942" on="0"/>
        <pt x="338" y="935" on="1"/>
        <pt x="338" y="923" on="0"/>
        <pt x="328" y="917" on="1"/>
      </contour>
    </TTGlyph>
    <TTGlyph name="Otilde" xMin="76" yMin="-6" xMax="467" yMax="949">
      <contour>
        <pt x="271" y="-6" on="1"/>
        <pt x="230" y="-6" on="0"/>
        <pt x="158" y="16" on="0"/>
        <pt x="106" y="65" on="0"/>
        <pt x="76" y="144" on="0"/>
        <pt x="76" y="200" on="1"/>
        <pt x="76" y="525" on="1"/>
        <pt x="76" y="581" on="0"/>
        <pt x="106" y="660" on="0"/>
        <pt x="158" y="709" on="0"/>
        <pt x="230" y="731" on="0"/>
        <pt x="271" y="731" on="1"/>
        <pt x="312" y="731" on="0"/>
        <pt x="384" y="709" on="0"/>
        <pt x="437" y="660" on="0"/>
        <pt x="467" y="581" on="0"/>
        <pt x="467" y="525" on="1"/>
        <pt x="467" y="200" on="1"/>
        <pt x="467" y="144" on="0"/>
        <pt x="437" y="65" on="0"/>
        <pt x="384" y="16" on="0"/>
        <pt x="312" y="-6" on="0"/>
      </contour>
      <contour>
        <pt x="431" y="525" on="1"/>
        <pt x="431" y="613" on="0"/>
        <pt x="346" y="695" on="0"/>
        <pt x="271" y="695" on="1"/>
        <pt x="196" y="695" on="0"/>
        <pt x="112" y="613" on="0"/>
        <pt x="112" y="525" on="1"/>
        <pt x="112" y="200" on="1"/>
        <pt x="112" y="112" on="0"/>
        <pt x="196" y="30" on="0"/>
        <pt x="271" y="30" on="1"/>
        <pt x="346" y="30" on="0"/>
        <pt x="431" y="112" on="0"/>
        <pt x="431" y="200" on="1"/>
      </contour>
      <contour>
        <pt x="340" y="912" on="1"/>
        <pt x="357" y="912" on="0"/>
        <pt x="377" y="922" on="0"/>
        <pt x="390" y="934" on="0"/>
        <pt x="399" y="944" on="0"/>
        <pt x="405" y="944" on="1"/>
        <pt x="410" y="944" on="0"/>
        <pt x="419" y="936" on="0"/>
        <pt x="419" y="929" on="1"/>
        <pt x="419" y="917" on="0"/>
        <pt x="402" y="899" on="0"/>
        <pt x="376" y="885" on="0"/>
        <pt x="347" y="878" on="0"/>
        <pt x="335" y="878" on="1"/>
        <pt x="317" y="878" on="0"/>
        <pt x="288" y="890" on="0"/>
        <pt x="259" y="903" on="0"/>
        <pt x="227" y="915" on="0"/>
        <pt x="206" y="915" on="1"/>
        <pt x="190" y="915" on="0"/>
        <pt x="168" y="904" on="0"/>
        <pt x="153" y="891" on="0"/>
        <pt x="142" y="880" on="0"/>
        <pt x="137" y="880" on="1"/>
        <pt x="124" y="880" on="0"/>
        <pt x="124" y="897" on="1"/>
        <pt x="124" y="907" on="0"/>
        <pt x="142" y="925" on="0"/>
        <pt x="168" y="940" on="0"/>
        <pt x="199" y="949" on="0"/>
        <pt x="213" y="949" on="1"/>
        <pt x="231" y="949" on="0"/>
        <pt x="261" y="937" on="0"/>
        <pt x="290" y="924" on="0"/>
        <pt x="321" y="912" on="0"/>
      </contour>
    </TTGlyph>
    <TTGlyph name="P" xMin="83" yMin="0" xMax="474" yMax="731">
      <contour>
        <pt x="83" y="714" on="1"/>
        <pt x="83" y="729" on="0"/>
        <pt x="101" y="731" on="1"/>
        <pt x="278" y="731" on="1"/>
        <pt x="319" y="731" on="0"/>
        <pt x="391" y="709" on="0"/>
        <pt x="444" y="660" on="0"/>
        <pt x="474" y="581" on="0"/>
        <pt x="474" y="525" on="1"/>
        <pt x="474" y="513" on="1"/>
        <pt x="474" y="457" on="0"/>
        <pt x="444" y="378" on="0"/>
        <pt x="391" y="328" on="0"/>
        <pt x="319" y="306" on="0"/>
        <pt x="278" y="306" on="1"/>
        <pt x="119" y="306" on="1"/>
        <pt x="119" y="18" on="1"/>
        <pt x="119" y="9" on="0"/>
        <pt x="108" y="0" on="0"/>
        <pt x="101" y="0" on="1"/>
        <pt x="94" y="0" on="0"/>
        <pt x="83" y="9" on="0"/>
        <pt x="83" y="18" on="1"/>
      </contour>
      <contour>
        <pt x="119" y="695" on="1"/>
        <pt x="119" y="342" on="1"/>
        <pt x="278" y="342" on="1"/>
        <pt x="353" y="342" on="0"/>
        <pt x="438" y="425" on="0"/>
        <pt x="438" y="513" on="1"/>
        <pt x="438" y="525" on="1"/>
        <pt x="438" y="613" on="0"/>
        <pt x="353" y="695" on="0"/>
        <pt x="278" y="695" on="1"/>
      </contour>
    </TTGlyph>
    <TTGlyph name="Q" xMin="76" yMin="-109" xMax="467" yMax="731">
      <contour>
        <pt x="254" y="-5" on="1"/>
        <pt x="216" y="-3" on="0"/>
        <pt x="151" y="21" on="0"/>
        <pt x="103" y="70" on="0"/>
        <pt x="76" y="146" on="0"/>
        <pt x="76" y="200" on="1"/>
        <pt x="76" y="525" on="1"/>
        <pt x="76" y="581" on="0"/>
        <pt x="106" y="660" on="0"/>
        <pt x="158" y="709" on="0"/>
        <pt x="230" y="731" on="0"/>
        <pt x="271" y="731" on="1"/>
        <pt x="312" y="731" on="0"/>
        <pt x="384" y="709" on="0"/>
        <pt x="437" y="660" on="0"/>
        <pt x="467" y="581" on="0"/>
        <pt x="467" y="525" on="1"/>
        <pt x="467" y="200" on="1"/>
        <pt x="467" y="147" on="0"/>
        <pt x="440" y="71" on="0"/>
        <pt x="393" y="21" on="0"/>
        <pt x="328" y="-3" on="0"/>
        <pt x="290" y="-5" on="1"/>
        <pt x="290" y="-91" on="1"/>
        <pt x="290" y="-100" on="0"/>
        <pt x="279" y="-109" on="0"/>
        <pt x="272" y="-109" on="1"/>
        <pt x="265" y="-109" on="0"/>
        <pt x="254" y="-100" on="0"/>
        <pt x="254" y="-91" on="1"/>
      </contour>
      <contour>
        <pt x="431" y="525" on="1"/>
        <pt x="431" y="613" on="0"/>
        <pt x="346" y="695" on="0"/>
        <pt x="271" y="695" on="1"/>
        <pt x="196" y="695" on="0"/>
        <pt x="112" y="613" on="0"/>
        <pt x="112" y="525" on="1"/>
        <pt x="112" y="200" on="1"/>
        <pt x="112" y="117" on="0"/>
        <pt x="186" y="35" on="0"/>
        <pt x="254" y="30" on="1"/>
        <pt x="254" y="114" on="1"/>
        <pt x="254" y="123" on="0"/>
        <pt x="265" y="131" on="0"/>
        <pt x="272" y="131" on="1"/>
        <pt x="279" y="131" on="0"/>
        <pt x="290" y="123" on="0"/>
        <pt x="290" y="114" on="1"/>
        <pt x="290" y="31" on="1"/>
        <pt x="356" y="36" on="0"/>
        <pt x="431" y="118" on="0"/>
        <pt x="431" y="200" on="1"/>
      </contour>
    </TTGlyph>
    <TTGlyph name="R" xMin="83" yMin="0" xMax="474" yMax="731">
      <contour>
        <pt x="83" y="714" on="1"/>
        <pt x="83" y="729" on="0"/>
        <pt x="101" y="731" on="1"/>
        <pt x="268" y="731" on="1"/>
        <pt x="309" y="731" on="0"/>
        <pt x="384" y="712" on="0"/>
        <pt x="441" y="668" on="0"/>
        <pt x="474" y="594" on="0"/>
        <pt x="474" y="540" on="1"/>
        <pt x="474" y="492" on="0"/>
        <pt x="448" y="424" on="0"/>
        <pt x="402" y="379" on="0"/>
        <pt x="341" y="354" on="0"/>
        <pt x="306" y="350" on="1"/>
        <pt x="471" y="29" on="1"/>
        <pt x="474" y="23" on="0"/>
        <pt x="474" y="18" on="1"/>
        <pt x="474" y="10" on="0"/>
        <pt x="464" y="0" on="0"/>
        <pt x="456" y="0" on="1"/>
        <pt x="445" y="0" on="0"/>
        <pt x="432" y="25" on="0"/>
        <pt x="427" y="36" on="1"/>
        <pt x="267" y="348" on="1"/>
        <pt x="119" y="348" on="1"/>
        <pt x="119" y="18" on="1"/>
        <pt x="119" y="9" on="0"/>
        <pt x="108" y="0" on="0"/>
        <pt x="101" y="0" on="1"/>
        <pt x="94" y="0" on="0"/>
        <pt x="83" y="9" on="0"/>
        <pt x="83" y="18" on="1"/>
      </contour>
      <contour>
        <pt x="119" y="695" on="1"/>
        <pt x="119" y="384" on="1"/>
        <pt x="268" y="384" on="1"/>
        <pt x="305" y="384" on="0"/>
        <pt x="368" y="402" on="0"/>
        <pt x="413" y="439" on="0"/>
        <pt x="438" y="498" on="0"/>
        <pt x="438" y="540" on="1"/>
        <pt x="438" y="582" on="0"/>
        <pt x="413" y="640" on="0"/>
        <pt x="368" y="678" on="0"/>
        <pt x="305" y="695" on="0"/>
        <pt x="268" y="695" on="1"/>
      </contour>
    </TTGlyph>
    <TTGlyph name="Racute" xMin="83" yMin="0" xMax="474" yMax="953">
      <contour>
        <pt x="83" y="714" on="1"/>
        <pt x="83" y="729" on="0"/>
        <pt x="101" y="731" on="1"/>
        <pt x="268" y="731" on="1"/>
        <pt x="309" y="731" on="0"/>
        <pt x="384" y="712" on="0"/>
        <pt x="441" y="668" on="0"/>
        <pt x="474" y="594" on="0"/>
        <pt x="474" y="540" on="1"/>
        <pt x="474" y="492" on="0"/>
        <pt x="448" y="424" on="0"/>
        <pt x="402" y="379" on="0"/>
        <pt x="341" y="354" on="0"/>
        <pt x="306" y="350" on="1"/>
        <pt x="471" y="29" on="1"/>
        <pt x="474" y="23" on="0"/>
        <pt x="474" y="18" on="1"/>
        <pt x="474" y="10" on="0"/>
        <pt x="464" y="0" on="0"/>
        <pt x="456" y="0" on="1"/>
        <pt x="445" y="0" on="0"/>
        <pt x="432" y="25" on="0"/>
        <pt x="427" y="36" on="1"/>
        <pt x="267" y="348" on="1"/>
        <pt x="119" y="348" on="1"/>
        <pt x="119" y="18" on="1"/>
        <pt x="119" y="9" on="0"/>
        <pt x="108" y="0" on="0"/>
        <pt x="101" y="0" on="1"/>
        <pt x="94" y="0" on="0"/>
        <pt x="83" y="9" on="0"/>
        <pt x="83" y="18" on="1"/>
      </contour>
      <contour>
        <pt x="119" y="695" on="1"/>
        <pt x="119" y="384" on="1"/>
        <pt x="268" y="384" on="1"/>
        <pt x="305" y="384" on="0"/>
        <pt x="368" y="402" on="0"/>
        <pt x="413" y="439" on="0"/>
        <pt x="438" y="498" on="0"/>
        <pt x="438" y="540" on="1"/>
        <pt x="438" y="582" on="0"/>
        <pt x="413" y="640" on="0"/>
        <pt x="368" y="678" on="0"/>
        <pt x="305" y="695" on="0"/>
        <pt x="268" y="695" on="1"/>
      </contour>
      <contour>
        <pt x="240" y="863" on="1"/>
        <pt x="235" y="860" on="0"/>
        <pt x="231" y="860" on="1"/>
        <pt x="223" y="860" on="0"/>
        <pt x="212" y="870" on="0"/>
        <pt x="212" y="878" on="1"/>
        <pt x="212" y="887" on="0"/>
        <pt x="220" y="891" on="1"/>
        <pt x="322" y="951" on="1"/>
        <pt x="326" y="953" on="0"/>
        <pt x="329" y="953" on="1"/>
        <pt x="337" y="953" on="0"/>
        <pt x="345" y="942" on="0"/>
        <pt x="345" y="935" on="1"/>
        <pt x="345" y="923" on="0"/>
        <pt x="335" y="917" on="1"/>
      </contour>
    </TTGlyph>
    <TTGlyph name="Rcaron" xMin="83" yMin="0" xMax="474" yMax="990">
      <contour>
        <pt x="83" y="714" on="1"/>
        <pt x="83" y="729" on="0"/>
        <pt x="101" y="731" on="1"/>
        <pt x="268" y="731" on="1"/>
        <pt x="309" y="731" on="0"/>
        <pt x="384" y="712" on="0"/>
        <pt x="441" y="668" on="0"/>
        <pt x="474" y="594" on="0"/>
        <pt x="474" y="540" on="1"/>
        <pt x="474" y="492" on="0"/>
        <pt x="448" y="424" on="0"/>
        <pt x="402" y="379" on="0"/>
        <pt x="341" y="354" on="0"/>
        <pt x="306" y="350" on="1"/>
        <pt x="471" y="29" on="1"/>
        <pt x="474" y="23" on="0"/>
        <pt x="474" y="18" on="1"/>
        <pt x="474" y="10" on="0"/>
        <pt x="464" y="0" on="0"/>
        <pt x="456" y="0" on="1"/>
        <pt x="445" y="0" on="0"/>
        <pt x="432" y="25" on="0"/>
        <pt x="427" y="36" on="1"/>
        <pt x="267" y="348" on="1"/>
        <pt x="119" y="348" on="1"/>
        <pt x="119" y="18" on="1"/>
        <pt x="119" y="9" on="0"/>
        <pt x="108" y="0" on="0"/>
        <pt x="101" y="0" on="1"/>
        <pt x="94" y="0" on="0"/>
        <pt x="83" y="9" on="0"/>
        <pt x="83" y="18" on="1"/>
      </contour>
      <contour>
        <pt x="119" y="695" on="1"/>
        <pt x="119" y="384" on="1"/>
        <pt x="268" y="384" on="1"/>
        <pt x="305" y="384" on="0"/>
        <pt x="368" y="402" on="0"/>
        <pt x="413" y="439" on="0"/>
        <pt x="438" y="498" on="0"/>
        <pt x="438" y="540" on="1"/>
        <pt x="438" y="582" on="0"/>
        <pt x="413" y="640" on="0"/>
        <pt x="368" y="678" on="0"/>
        <pt x="305" y="695" on="0"/>
        <pt x="268" y="695" on="1"/>
      </contour>
      <contour>
        <pt x="298" y="858" on="1"/>
        <pt x="287" y="847" on="0"/>
        <pt x="277" y="847" on="1"/>
        <pt x="265" y="847" on="0"/>
        <pt x="256" y="858" on="1"/>
        <pt x="156" y="959" on="1"/>
        <pt x="148" y="969" on="0"/>
        <pt x="148" y="975" on="1"/>
        <pt x="148" y="980" on="0"/>
        <pt x="156" y="990" on="0"/>
        <pt x="163" y="990" on="1"/>
        <pt x="172" y="990" on="0"/>
        <pt x="179" y="982" on="1"/>
        <pt x="277" y="879" on="1"/>
        <pt x="375" y="982" on="1"/>
        <pt x="382" y="990" on="0"/>
        <pt x="391" y="990" on="1"/>
        <pt x="398" y="990" on="0"/>
        <pt x="406" y="980" on="0"/>
        <pt x="406" y="975" on="1"/>
        <pt x="406" y="969" on="0"/>
        <pt x="398" y="959" on="1"/>
      </contour>
    </TTGlyph>
    <TTGlyph name="Rcommaaccent" xMin="83" yMin="-141" xMax="474" yMax="731">
      <contour>
        <pt x="83" y="714" on="1"/>
        <pt x="83" y="729" on="0"/>
        <pt x="101" y="731" on="1"/>
        <pt x="268" y="731" on="1"/>
        <pt x="309" y="731" on="0"/>
        <pt x="384" y="712" on="0"/>
        <pt x="441" y="668" on="0"/>
        <pt x="474" y="594" on="0"/>
        <pt x="474" y="540" on="1"/>
        <pt x="474" y="492" on="0"/>
        <pt x="448" y="424" on="0"/>
        <pt x="402" y="379" on="0"/>
        <pt x="341" y="354" on="0"/>
        <pt x="306" y="350" on="1"/>
        <pt x="471" y="29" on="1"/>
        <pt x="474" y="23" on="0"/>
        <pt x="474" y="18" on="1"/>
        <pt x="474" y="10" on="0"/>
        <pt x="464" y="0" on="0"/>
        <pt x="456" y="0" on="1"/>
        <pt x="445" y="0" on="0"/>
        <pt x="432" y="25" on="0"/>
        <pt x="427" y="36" on="1"/>
        <pt x="267" y="348" on="1"/>
        <pt x="119" y="348" on="1"/>
        <pt x="119" y="18" on="1"/>
        <pt x="119" y="9" on="0"/>
        <pt x="108" y="0" on="0"/>
        <pt x="101" y="0" on="1"/>
        <pt x="94" y="0" on="0"/>
        <pt x="83" y="9" on="0"/>
        <pt x="83" y="18" on="1"/>
      </contour>
      <contour>
        <pt x="119" y="695" on="1"/>
        <pt x="119" y="384" on="1"/>
        <pt x="268" y="384" on="1"/>
        <pt x="305" y="384" on="0"/>
        <pt x="368" y="402" on="0"/>
        <pt x="413" y="439" on="0"/>
        <pt x="438" y="498" on="0"/>
        <pt x="438" y="540" on="1"/>
        <pt x="438" y="582" on="0"/>
        <pt x="413" y="640" on="0"/>
        <pt x="368" y="678" on="0"/>
        <pt x="305" y="695" on="0"/>
        <pt x="268" y="695" on="1"/>
      </contour>
      <contour>
        <pt x="202" y="-138" on="1"/>
        <pt x="197" y="-141" on="0"/>
        <pt x="193" y="-141" on="1"/>
        <pt x="185" y="-141" on="0"/>
        <pt x="174" y="-131" on="0"/>
        <pt x="174" y="-123" on="1"/>
        <pt x="174" y="-114" on="0"/>
        <pt x="182" y="-110" on="1"/>
        <pt x="284" y="-50" on="1"/>
        <pt x="288" y="-48" on="0"/>
        <pt x="291" y="-48" on="1"/>
        <pt x="299" y="-48" on="0"/>
        <pt x="307" y="-59" on="0"/>
        <pt x="307" y="-66" on="1"/>
        <pt x="307" y="-78" on="0"/>
        <pt x="297" y="-84" on="1"/>
      </contour>
    </TTGlyph>
    <TTGlyph name="S" xMin="42" yMin="-6" xMax="433" yMax="731">
      <contour>
        <pt x="230" y="30" on="1"/>
        <pt x="312" y="30" on="0"/>
        <pt x="397" y="112" on="0"/>
        <pt x="397" y="192" on="1"/>
        <pt x="397" y="256" on="0"/>
        <pt x="347" y="325" on="0"/>
        <pt x="272" y="365" on="0"/>
        <pt x="185" y="390" on="0"/>
        <pt x="110" y="429" on="0"/>
        <pt x="60" y="496" on="0"/>
        <pt x="60" y="558" on="1"/>
        <pt x="60" y="612" on="0"/>
        <pt x="98" y="680" on="0"/>
        <pt x="157" y="718" on="0"/>
        <pt x="226" y="731" on="0"/>
        <pt x="257" y="731" on="1"/>
        <pt x="288" y="731" on="0"/>
        <pt x="345" y="721" on="0"/>
        <pt x="389" y="706" on="0"/>
        <pt x="415" y="688" on="0"/>
        <pt x="415" y="679" on="1"/>
        <pt x="415" y="673" on="0"/>
        <pt x="404" y="657" on="0"/>
        <pt x="397" y="657" on="1"/>
        <pt x="392" y="657" on="0"/>
        <pt x="372" y="669" on="0"/>
        <pt x="338" y="683" on="0"/>
        <pt x="290" y="695" on="0"/>
        <pt x="256" y="695" on="1"/>
        <pt x="228" y="695" on="0"/>
        <pt x="171" y="683" on="0"/>
        <pt x="125" y="653" on="0"/>
        <pt x="96" y="601" on="0"/>
        <pt x="96" y="561" on="1"/>
        <pt x="96" y="521" on="0"/>
        <pt x="125" y="470" on="0"/>
        <pt x="172" y="437" on="0"/>
        <pt x="233" y="415" on="0"/>
        <pt x="296" y="393" on="0"/>
        <pt x="357" y="365" on="0"/>
        <pt x="404" y="319" on="0"/>
        <pt x="433" y="248" on="0"/>
        <pt x="433" y="195" on="1"/>
        <pt x="433" y="142" on="0"/>
        <pt x="403" y="66" on="0"/>
        <pt x="351" y="17" on="0"/>
        <pt x="278" y="-6" on="0"/>
        <pt x="235" y="-6" on="1"/>
        <pt x="187" y="-6" on="0"/>
        <pt x="115" y="18" on="0"/>
        <pt x="66" y="51" on="0"/>
        <pt x="42" y="85" on="0"/>
        <pt x="42" y="95" on="1"/>
        <pt x="42" y="103" on="0"/>
        <pt x="54" y="116" on="0"/>
        <pt x="59" y="116" on="1"/>
        <pt x="66" y="116" on="0"/>
        <pt x="83" y="89" on="0"/>
        <pt x="119" y="57" on="0"/>
        <pt x="179" y="30" on="0"/>
      </contour>
    </TTGlyph>
    <TTGlyph name="Sacute" xMin="42" yMin="-6" xMax="433" yMax="953">
      <contour>
        <pt x="230" y="30" on="1"/>
        <pt x="312" y="30" on="0"/>
        <pt x="397" y="112" on="0"/>
        <pt x="397" y="192" on="1"/>
        <pt x="397" y="256" on="0"/>
        <pt x="347" y="325" on="0"/>
        <pt x="272" y="365" on="0"/>
        <pt x="185" y="390" on="0"/>
        <pt x="110" y="429" on="0"/>
        <pt x="60" y="496" on="0"/>
        <pt x="60" y="558" on="1"/>
        <pt x="60" y="612" on="0"/>
        <pt x="98" y="680" on="0"/>
        <pt x="157" y="718" on="0"/>
        <pt x="226" y="731" on="0"/>
        <pt x="257" y="731" on="1"/>
        <pt x="288" y="731" on="0"/>
        <pt x="345" y="721" on="0"/>
        <pt x="389" y="706" on="0"/>
        <pt x="415" y="688" on="0"/>
        <pt x="415" y="679" on="1"/>
        <pt x="415" y="673" on="0"/>
        <pt x="404" y="657" on="0"/>
        <pt x="397" y="657" on="1"/>
        <pt x="392" y="657" on="0"/>
        <pt x="372" y="669" on="0"/>
        <pt x="338" y="683" on="0"/>
        <pt x="290" y="695" on="0"/>
        <pt x="256" y="695" on="1"/>
        <pt x="228" y="695" on="0"/>
        <pt x="171" y="683" on="0"/>
        <pt x="125" y="653" on="0"/>
        <pt x="96" y="601" on="0"/>
        <pt x="96" y="561" on="1"/>
        <pt x="96" y="521" on="0"/>
        <pt x="125" y="470" on="0"/>
        <pt x="172" y="437" on="0"/>
        <pt x="233" y="415" on="0"/>
        <pt x="296" y="393" on="0"/>
        <pt x="357" y="365" on="0"/>
        <pt x="404" y="319" on="0"/>
        <pt x="433" y="248" on="0"/>
        <pt x="433" y="195" on="1"/>
        <pt x="433" y="142" on="0"/>
        <pt x="403" y="66" on="0"/>
        <pt x="351" y="17" on="0"/>
        <pt x="278" y="-6" on="0"/>
        <pt x="235" y="-6" on="1"/>
        <pt x="187" y="-6" on="0"/>
        <pt x="115" y="18" on="0"/>
        <pt x="66" y="51" on="0"/>
        <pt x="42" y="85" on="0"/>
        <pt x="42" y="95" on="1"/>
        <pt x="42" y="103" on="0"/>
        <pt x="54" y="116" on="0"/>
        <pt x="59" y="116" on="1"/>
        <pt x="66" y="116" on="0"/>
        <pt x="83" y="89" on="0"/>
        <pt x="119" y="57" on="0"/>
        <pt x="179" y="30" on="0"/>
      </contour>
      <contour>
        <pt x="199" y="863" on="1"/>
        <pt x="194" y="860" on="0"/>
        <pt x="190" y="860" on="1"/>
        <pt x="182" y="860" on="0"/>
        <pt x="171" y="870" on="0"/>
        <pt x="171" y="878" on="1"/>
        <pt x="171" y="887" on="0"/>
        <pt x="179" y="891" on="1"/>
        <pt x="281" y="951" on="1"/>
        <pt x="285" y="953" on="0"/>
        <pt x="288" y="953" on="1"/>
        <pt x="296" y="953" on="0"/>
        <pt x="304" y="942" on="0"/>
        <pt x="304" y="935" on="1"/>
        <pt x="304" y="923" on="0"/>
        <pt x="294" y="917" on="1"/>
      </contour>
    </TTGlyph>
    <TTGlyph name="Scaron" xMin="42" yMin="-6" xMax="433" yMax="990">
      <contour>
        <pt x="230" y="30" on="1"/>
        <pt x="312" y="30" on="0"/>
        <pt x="397" y="112" on="0"/>
        <pt x="397" y="192" on="1"/>
        <pt x="397" y="256" on="0"/>
        <pt x="347" y="325" on="0"/>
        <pt x="272" y="365" on="0"/>
        <pt x="185" y="390" on="0"/>
        <pt x="110" y="429" on="0"/>
        <pt x="60" y="496" on="0"/>
        <pt x="60" y="558" on="1"/>
        <pt x="60" y="612" on="0"/>
        <pt x="98" y="680" on="0"/>
        <pt x="157" y="718" on="0"/>
        <pt x="226" y="731" on="0"/>
        <pt x="257" y="731" on="1"/>
        <pt x="288" y="731" on="0"/>
        <pt x="345" y="721" on="0"/>
        <pt x="389" y="706" on="0"/>
        <pt x="415" y="688" on="0"/>
        <pt x="415" y="679" on="1"/>
        <pt x="415" y="673" on="0"/>
        <pt x="404" y="657" on="0"/>
        <pt x="397" y="657" on="1"/>
        <pt x="392" y="657" on="0"/>
        <pt x="372" y="669" on="0"/>
        <pt x="338" y="683" on="0"/>
        <pt x="290" y="695" on="0"/>
        <pt x="256" y="695" on="1"/>
        <pt x="228" y="695" on="0"/>
        <pt x="171" y="683" on="0"/>
        <pt x="125" y="653" on="0"/>
        <pt x="96" y="601" on="0"/>
        <pt x="96" y="561" on="1"/>
        <pt x="96" y="521" on="0"/>
        <pt x="125" y="470" on="0"/>
        <pt x="172" y="437" on="0"/>
        <pt x="233" y="415" on="0"/>
        <pt x="296" y="393" on="0"/>
        <pt x="357" y="365" on="0"/>
        <pt x="404" y="319" on="0"/>
        <pt x="433" y="248" on="0"/>
        <pt x="433" y="195" on="1"/>
        <pt x="433" y="142" on="0"/>
        <pt x="403" y="66" on="0"/>
        <pt x="351" y="17" on="0"/>
        <pt x="278" y="-6" on="0"/>
        <pt x="235" y="-6" on="1"/>
        <pt x="187" y="-6" on="0"/>
        <pt x="115" y="18" on="0"/>
        <pt x="66" y="51" on="0"/>
        <pt x="42" y="85" on="0"/>
        <pt x="42" y="95" on="1"/>
        <pt x="42" y="103" on="0"/>
        <pt x="54" y="116" on="0"/>
        <pt x="59" y="116" on="1"/>
        <pt x="66" y="116" on="0"/>
        <pt x="83" y="89" on="0"/>
        <pt x="119" y="57" on="0"/>
        <pt x="179" y="30" on="0"/>
      </contour>
      <contour>
        <pt x="257" y="858" on="1"/>
        <pt x="246" y="847" on="0"/>
        <pt x="236" y="847" on="1"/>
        <pt x="224" y="847" on="0"/>
        <pt x="215" y="858" on="1"/>
        <pt x="115" y="959" on="1"/>
        <pt x="107" y="969" on="0"/>
        <pt x="107" y="975" on="1"/>
        <pt x="107" y="980" on="0"/>
        <pt x="115" y="990" on="0"/>
        <pt x="122" y="990" on="1"/>
        <pt x="131" y="990" on="0"/>
        <pt x="138" y="982" on="1"/>
        <pt x="236" y="879" on="1"/>
        <pt x="334" y="982" on="1"/>
        <pt x="341" y="990" on="0"/>
        <pt x="350" y="990" on="1"/>
        <pt x="357" y="990" on="0"/>
        <pt x="365" y="980" on="0"/>
        <pt x="365" y="975" on="1"/>
        <pt x="365" y="969" on="0"/>
        <pt x="357" y="959" on="1"/>
      </contour>
    </TTGlyph>
    <TTGlyph name="Scedilla" xMin="42" yMin="-207" xMax="433" yMax="731">
      <contour>
        <pt x="230" y="30" on="1"/>
        <pt x="312" y="30" on="0"/>
        <pt x="397" y="112" on="0"/>
        <pt x="397" y="192" on="1"/>
        <pt x="397" y="256" on="0"/>
        <pt x="347" y="325" on="0"/>
        <pt x="272" y="365" on="0"/>
        <pt x="185" y="390" on="0"/>
        <pt x="110" y="429" on="0"/>
        <pt x="60" y="496" on="0"/>
        <pt x="60" y="558" on="1"/>
        <pt x="60" y="612" on="0"/>
        <pt x="98" y="680" on="0"/>
        <pt x="157" y="718" on="0"/>
        <pt x="226" y="731" on="0"/>
        <pt x="257" y="731" on="1"/>
        <pt x="288" y="731" on="0"/>
        <pt x="345" y="721" on="0"/>
        <pt x="389" y="706" on="0"/>
        <pt x="415" y="688" on="0"/>
        <pt x="415" y="679" on="1"/>
        <pt x="415" y="673" on="0"/>
        <pt x="404" y="657" on="0"/>
        <pt x="397" y="657" on="1"/>
        <pt x="392" y="657" on="0"/>
        <pt x="372" y="669" on="0"/>
        <pt x="338" y="683" on="0"/>
        <pt x="290" y="695" on="0"/>
        <pt x="256" y="695" on="1"/>
        <pt x="228" y="695" on="0"/>
        <pt x="171" y="683" on="0"/>
        <pt x="125" y="653" on="0"/>
        <pt x="96" y="601" on="0"/>
        <pt x="96" y="561" on="1"/>
        <pt x="96" y="521" on="0"/>
        <pt x="125" y="470" on="0"/>
        <pt x="172" y="437" on="0"/>
        <pt x="233" y="415" on="0"/>
        <pt x="296" y="393" on="0"/>
        <pt x="357" y="365" on="0"/>
        <pt x="404" y="319" on="0"/>
        <pt x="433" y="248" on="0"/>
        <pt x="433" y="195" on="1"/>
        <pt x="433" y="102" on="0"/>
        <pt x="347" y="7" on="0"/>
        <pt x="278" y="-3" on="1"/>
        <pt x="263" y="-65" on="1"/>
        <pt x="314" y="-67" on="0"/>
        <pt x="357" y="-109" on="0"/>
        <pt x="357" y="-135" on="1"/>
        <pt x="357" y="-163" on="0"/>
        <pt x="314" y="-207" on="0"/>
        <pt x="275" y="-207" on="1"/>
        <pt x="266" y="-207" on="0"/>
        <pt x="241" y="-204" on="0"/>
        <pt x="218" y="-198" on="0"/>
        <pt x="201" y="-189" on="0"/>
        <pt x="201" y="-183" on="1"/>
        <pt x="201" y="-178" on="0"/>
        <pt x="208" y="-165" on="0"/>
        <pt x="213" y="-165" on="1"/>
        <pt x="218" y="-165" on="0"/>
        <pt x="244" y="-178" on="0"/>
        <pt x="269" y="-178" on="1"/>
        <pt x="301" y="-178" on="0"/>
        <pt x="324" y="-153" on="0"/>
        <pt x="324" y="-137" on="1"/>
        <pt x="324" y="-114" on="0"/>
        <pt x="286" y="-94" on="0"/>
        <pt x="254" y="-92" on="1"/>
        <pt x="225" y="-90" on="1"/>
        <pt x="245" y="-6" on="1"/>
        <pt x="235" y="-6" on="1"/>
        <pt x="187" y="-6" on="0"/>
        <pt x="115" y="18" on="0"/>
        <pt x="66" y="51" on="0"/>
        <pt x="42" y="85" on="0"/>
        <pt x="42" y="95" on="1"/>
        <pt x="42" y="103" on="0"/>
        <pt x="54" y="116" on="0"/>
        <pt x="59" y="116" on="1"/>
        <pt x="66" y="116" on="0"/>
        <pt x="83" y="89" on="0"/>
        <pt x="119" y="57" on="0"/>
        <pt x="179" y="30" on="0"/>
      </contour>
    </TTGlyph>
    <TTGlyph name="Scircumflex" xMin="42" yMin="-6" xMax="433" yMax="953">
      <contour>
        <pt x="230" y="30" on="1"/>
        <pt x="312" y="30" on="0"/>
        <pt x="397" y="112" on="0"/>
        <pt x="397" y="192" on="1"/>
        <pt x="397" y="256" on="0"/>
        <pt x="347" y="325" on="0"/>
        <pt x="272" y="365" on="0"/>
        <pt x="185" y="390" on="0"/>
        <pt x="110" y="429" on="0"/>
        <pt x="60" y="496" on="0"/>
        <pt x="60" y="558" on="1"/>
        <pt x="60" y="612" on="0"/>
        <pt x="98" y="680" on="0"/>
        <pt x="157" y="718" on="0"/>
        <pt x="226" y="731" on="0"/>
        <pt x="257" y="731" on="1"/>
        <pt x="288" y="731" on="0"/>
        <pt x="345" y="721" on="0"/>
        <pt x="389" y="706" on="0"/>
        <pt x="415" y="688" on="0"/>
        <pt x="415" y="679" on="1"/>
        <pt x="415" y="673" on="0"/>
        <pt x="404" y="657" on="0"/>
        <pt x="397" y="657" on="1"/>
        <pt x="392" y="657" on="0"/>
        <pt x="372" y="669" on="0"/>
        <pt x="338" y="683" on="0"/>
        <pt x="290" y="695" on="0"/>
        <pt x="256" y="695" on="1"/>
        <pt x="228" y="695" on="0"/>
        <pt x="171" y="683" on="0"/>
        <pt x="125" y="653" on="0"/>
        <pt x="96" y="601" on="0"/>
        <pt x="96" y="561" on="1"/>
        <pt x="96" y="521" on="0"/>
        <pt x="125" y="470" on="0"/>
        <pt x="172" y="437" on="0"/>
        <pt x="233" y="415" on="0"/>
        <pt x="296" y="393" on="0"/>
        <pt x="357" y="365" on="0"/>
        <pt x="404" y="319" on="0"/>
        <pt x="433" y="248" on="0"/>
        <pt x="433" y="195" on="1"/>
        <pt x="433" y="142" on="0"/>
        <pt x="403" y="66" on="0"/>
        <pt x="351" y="17" on="0"/>
        <pt x="278" y="-6" on="0"/>
        <pt x="235" y="-6" on="1"/>
        <pt x="187" y="-6" on="0"/>
        <pt x="115" y="18" on="0"/>
        <pt x="66" y="51" on="0"/>
        <pt x="42" y="85" on="0"/>
        <pt x="42" y="95" on="1"/>
        <pt x="42" y="103" on="0"/>
        <pt x="54" y="116" on="0"/>
        <pt x="59" y="116" on="1"/>
        <pt x="66" y="116" on="0"/>
        <pt x="83" y="89" on="0"/>
        <pt x="119" y="57" on="0"/>
        <pt x="179" y="30" on="0"/>
      </contour>
      <contour>
        <pt x="133" y="862" on="1"/>
        <pt x="131" y="861" on="0"/>
        <pt x="127" y="859" on="0"/>
        <pt x="125" y="859" on="1"/>
        <pt x="118" y="859" on="0"/>
        <pt x="107" y="870" on="0"/>
        <pt x="107" y="878" on="1"/>
        <pt x="107" y="887" on="0"/>
        <pt x="116" y="892" on="1"/>
        <pt x="220" y="948" on="1"/>
        <pt x="228" y="953" on="0"/>
        <pt x="237" y="953" on="1"/>
        <pt x="246" y="953" on="0"/>
        <pt x="254" y="948" on="1"/>
        <pt x="358" y="893" on="1"/>
        <pt x="367" y="888" on="0"/>
        <pt x="367" y="876" on="1"/>
        <pt x="367" y="869" on="0"/>
        <pt x="357" y="860" on="0"/>
        <pt x="350" y="860" on="1"/>
        <pt x="348" y="860" on="0"/>
        <pt x="343" y="862" on="0"/>
        <pt x="341" y="863" on="1"/>
        <pt x="237" y="918" on="1"/>
      </contour>
    </TTGlyph>
    <TTGlyph name="Scommaaccent" xMin="42" yMin="-141" xMax="433" yMax="731">
      <contour>
        <pt x="230" y="30" on="1"/>
        <pt x="312" y="30" on="0"/>
        <pt x="397" y="112" on="0"/>
        <pt x="397" y="192" on="1"/>
        <pt x="397" y="256" on="0"/>
        <pt x="347" y="325" on="0"/>
        <pt x="272" y="365" on="0"/>
        <pt x="185" y="390" on="0"/>
        <pt x="110" y="429" on="0"/>
        <pt x="60" y="496" on="0"/>
        <pt x="60" y="558" on="1"/>
        <pt x="60" y="612" on="0"/>
        <pt x="98" y="680" on="0"/>
        <pt x="157" y="718" on="0"/>
        <pt x="226" y="731" on="0"/>
        <pt x="257" y="731" on="1"/>
        <pt x="288" y="731" on="0"/>
        <pt x="345" y="721" on="0"/>
        <pt x="389" y="706" on="0"/>
        <pt x="415" y="688" on="0"/>
        <pt x="415" y="679" on="1"/>
        <pt x="415" y="673" on="0"/>
        <pt x="404" y="657" on="0"/>
        <pt x="397" y="657" on="1"/>
        <pt x="392" y="657" on="0"/>
        <pt x="372" y="669" on="0"/>
        <pt x="338" y="683" on="0"/>
        <pt x="290" y="695" on="0"/>
        <pt x="256" y="695" on="1"/>
        <pt x="228" y="695" on="0"/>
        <pt x="171" y="683" on="0"/>
        <pt x="125" y="653" on="0"/>
        <pt x="96" y="601" on="0"/>
        <pt x="96" y="561" on="1"/>
        <pt x="96" y="521" on="0"/>
        <pt x="125" y="470" on="0"/>
        <pt x="172" y="437" on="0"/>
        <pt x="233" y="415" on="0"/>
        <pt x="296" y="393" on="0"/>
        <pt x="357" y="365" on="0"/>
        <pt x="404" y="319" on="0"/>
        <pt x="433" y="248" on="0"/>
        <pt x="433" y="195" on="1"/>
        <pt x="433" y="142" on="0"/>
        <pt x="403" y="66" on="0"/>
        <pt x="351" y="17" on="0"/>
        <pt x="278" y="-6" on="0"/>
        <pt x="235" y="-6" on="1"/>
        <pt x="187" y="-6" on="0"/>
        <pt x="115" y="18" on="0"/>
        <pt x="66" y="51" on="0"/>
        <pt x="42" y="85" on="0"/>
        <pt x="42" y="95" on="1"/>
        <pt x="42" y="103" on="0"/>
        <pt x="54" y="116" on="0"/>
        <pt x="59" y="116" on="1"/>
        <pt x="66" y="116" on="0"/>
        <pt x="83" y="89" on="0"/>
        <pt x="119" y="57" on="0"/>
        <pt x="179" y="30" on="0"/>
      </contour>
      <contour>
        <pt x="213" y="-138" on="1"/>
        <pt x="208" y="-141" on="0"/>
        <pt x="204" y="-141" on="1"/>
        <pt x="196" y="-141" on="0"/>
        <pt x="185" y="-131" on="0"/>
        <pt x="185" y="-123" on="1"/>
        <pt x="185" y="-114" on="0"/>
        <pt x="193" y="-110" on="1"/>
        <pt x="295" y="-50" on="1"/>
        <pt x="299" y="-48" on="0"/>
        <pt x="302" y="-48" on="1"/>
        <pt x="310" y="-48" on="0"/>
        <pt x="318" y="-59" on="0"/>
        <pt x="318" y="-66" on="1"/>
        <pt x="318" y="-78" on="0"/>
        <pt x="308" y="-84" on="1"/>
      </contour>
    </TTGlyph>
    <TTGlyph name="T" xMin="14" yMin="0" xMax="441" yMax="731">
      <contour>
        <pt x="32" y="695" on="1"/>
        <pt x="24" y="695" on="0"/>
        <pt x="14" y="706" on="0"/>
        <pt x="14" y="713" on="1"/>
        <pt x="14" y="720" on="0"/>
        <pt x="24" y="731" on="0"/>
        <pt x="32" y="731" on="1"/>
        <pt x="423" y="731" on="1"/>
        <pt x="432" y="731" on="0"/>
        <pt x="441" y="721" on="0"/>
        <pt x="441" y="714" on="1"/>
        <pt x="441" y="707" on="0"/>
        <pt x="433" y="695" on="0"/>
        <pt x="423" y="695" on="1"/>
        <pt x="246" y="695" on="1"/>
        <pt x="246" y="18" on="1"/>
        <pt x="246" y="9" on="0"/>
        <pt x="235" y="0" on="0"/>
        <pt x="228" y="0" on="1"/>
        <pt x="221" y="0" on="0"/>
        <pt x="210" y="9" on="0"/>
        <pt x="210" y="18" on="1"/>
        <pt x="210" y="695" on="1"/>
      </contour>
    </TTGlyph>
</ttFont>
